<svg width="90" height="56" viewBox="0 0 90 56" fill="none" xmlns="http://www.w3.org/2000/svg">
<path opacity="0.858" fill-rule="evenodd" clip-rule="evenodd" d="M86.4117 15.527C86.3087 15.4621 86.2154 15.3799 86.1324 15.2805C86.0598 15.3753 85.9928 15.3616 85.9329 15.2394C85.9593 15.212 85.9864 15.1846 86.0127 15.1572C85.7646 15.1616 85.5651 15.0657 85.4143 14.8696C85.3648 14.7916 85.3784 14.7232 85.4542 14.6642C85.4103 14.5881 85.3576 14.5197 85.2946 14.4587C85.1302 14.591 84.9706 14.6458 84.8158 14.6231C84.5501 13.4725 84.4041 12.2946 84.377 11.0894C84.2972 10.7466 84.1775 10.4179 84.0179 10.1032C83.7051 9.61622 83.3325 9.17796 82.9009 8.78835C82.4923 8.02967 81.9872 7.34487 81.3848 6.73387C81.4383 6.67906 81.4909 6.62433 81.5444 6.56951C80.4433 6.36637 79.6717 5.73638 79.2305 4.6794C79.1694 4.58801 79.0896 4.5332 78.9911 4.51504C78.9911 4.40549 78.9379 4.35068 78.8315 4.35068C77.3891 3.52585 75.8997 2.78624 74.3632 2.13185C73.9553 2.02633 73.543 1.94415 73.1264 1.88531C72.8258 1.89484 72.5466 1.97702 72.2886 2.13185C71.5173 2.24139 70.746 2.24139 69.9747 2.13185C69.6217 1.97086 69.2892 1.77905 68.9773 1.55659C68.6142 1.78678 68.2286 1.97858 67.8203 2.13185C66.9692 2.67973 66.1181 3.22754 65.267 3.77543C64.7616 4.29587 64.2562 4.81639 63.7509 5.33683C63.2497 5.66144 62.7709 6.0176 62.3147 6.40516C62.2198 6.4815 62.1135 6.50887 61.9955 6.48733C61.9256 6.4981 61.8724 6.47073 61.8359 6.40516C62.0439 6.23431 62.0439 6.06995 61.8359 5.91208C61.9869 5.45508 62.2794 5.12637 62.7136 4.92593C63.1658 4.46022 63.6179 3.9946 64.0701 3.52889C65.0625 2.87967 65.9668 2.1127 66.783 1.22788C66.9958 1.17306 67.2085 1.11833 67.4213 1.06352C67.8969 0.795039 68.3756 0.52107 68.8576 0.241727C69.4211 0.142841 69.9264 0.279809 70.3736 0.652622C70.8603 0.416818 71.3391 0.444208 71.8099 0.734802C72.5545 0.789615 73.2993 0.844346 74.044 0.89916C74.557 0.944194 74.9825 1.16337 75.3207 1.55659C75.7861 1.80765 76.2648 2.02682 76.7569 2.21402C77.2448 2.66149 77.7767 3.04502 78.3527 3.36453C78.6653 3.48558 78.9845 3.5814 79.3102 3.65216C79.5577 3.78348 79.7705 3.96156 79.9486 4.18632C80.1289 4.29307 80.3148 4.37525 80.5071 4.43286C80.5502 4.93144 80.8023 5.26016 81.2651 5.41901C81.3521 5.35359 81.4455 5.29878 81.5444 5.25465C82.2306 5.38581 82.8163 5.70088 83.2998 6.19971C83.5129 6.32298 83.7251 6.44625 83.9381 6.56951C84.0985 6.81761 84.1783 7.09152 84.1775 7.3913C84.0674 7.82307 84.0139 8.26133 84.0179 8.70617C84.1017 8.69392 84.1815 8.70757 84.2573 8.74726C84.4552 8.99248 84.6682 9.22538 84.8956 9.44578C85.0648 9.95825 85.277 10.4513 85.534 10.925C85.5874 12.1303 85.6401 13.3356 85.6936 14.5409C86.0295 14.8035 86.2688 15.1322 86.4117 15.527Z" fill="#8E3642"/>
<path opacity="0.807" fill-rule="evenodd" clip-rule="evenodd" d="M33.347 9.44575C33.2133 9.50188 33.1601 9.61151 33.1875 9.77447C33.0013 9.77447 32.8151 9.77447 32.6289 9.77447C32.4235 9.42332 32.2905 9.03979 32.23 8.62396C31.9046 8.20016 31.5986 7.7619 31.3124 7.3091C31.0396 7.76675 31.0662 8.2051 31.3921 8.62396C31.5121 9.03519 31.6318 9.44608 31.7512 9.85665C31.4646 10.996 31.1987 12.1328 30.9533 13.2671C31.1011 13.567 31.141 13.8819 31.073 14.2121C30.6797 14.7419 30.1876 15.1254 29.5968 15.3626C29.3896 15.3445 29.3896 15.3034 29.5968 15.2394C29.4885 15.1626 29.382 15.0941 29.2777 15.0339C29.311 14.8003 29.3907 14.5811 29.5171 14.3765C29.7381 14.2038 29.8977 13.9847 29.9958 13.7191C30.2453 12.4614 30.4847 11.2013 30.7139 9.93883C30.7016 9.64315 30.6218 9.36924 30.4745 9.11704C30.4213 8.67878 30.3682 8.24043 30.315 7.80217C30.1628 7.48085 29.9501 7.20687 29.6766 6.98038C29.5311 6.62561 29.3981 6.26953 29.2777 5.91205C28.6917 5.44561 28.0534 5.06208 27.3627 4.76155C27.1064 4.50342 26.8404 4.25689 26.5648 4.02194C26.4238 3.59419 26.1844 3.23811 25.8467 2.95361C25.2897 2.72153 24.7312 2.50236 24.171 2.29618C24.0224 2.09952 23.916 1.88035 23.8519 1.63874C22.7161 0.954685 21.4926 0.735513 20.1815 0.981311C19.781 1.21495 19.4086 1.48885 19.0644 1.8031C18.3568 2.03041 17.6652 2.30431 16.9898 2.62489C16.1387 3.11797 15.2876 3.61104 14.4365 4.10412C14.0844 4.43883 13.7653 4.79499 13.479 5.17244C13.1755 4.9213 13.109 4.6474 13.2795 4.35065C13.3061 4.40547 13.3327 4.4602 13.3593 4.51501C13.399 4.32518 13.4122 4.13345 13.3992 3.93976C14.7407 2.74183 16.2833 1.90632 18.0271 1.4333C18.9949 0.434245 20.1784 -0.0451386 21.5778 -0.00483798C22.4399 -0.0421637 23.2511 0.149585 24.0114 0.570415C24.3376 0.851139 24.6035 1.17986 24.8094 1.55656C25.6817 1.77294 26.4531 2.18384 27.1233 2.78925C27.2456 2.93627 27.3254 3.10063 27.3627 3.28232C29.0046 3.48235 30.2945 4.27677 31.2326 5.66552C31.6067 6.21743 31.9392 6.79268 32.23 7.39128C32.4535 7.49088 32.653 7.62787 32.8284 7.80217C33.0663 8.33009 33.2392 8.8779 33.347 9.44575Z" fill="#8E3642"/>
<path opacity="0.01" fill-rule="evenodd" clip-rule="evenodd" d="M78.8281 4.35071C78.9345 4.35071 78.9877 4.40552 78.9877 4.51507C78.8813 4.51507 78.8281 4.46025 78.8281 4.35071Z" fill="#8E3642"/>
<path opacity="0.01" fill-rule="evenodd" clip-rule="evenodd" d="M61.2065 7.14478C61.2065 7.25432 61.1532 7.30913 61.0469 7.30913C61.0469 7.19959 61.1001 7.14478 61.2065 7.14478Z" fill="#8E3642"/>
<path opacity="0.823" fill-rule="evenodd" clip-rule="evenodd" d="M13.4049 3.93982C13.418 4.13352 13.4047 4.32524 13.3651 4.51507C13.3385 4.46026 13.3118 4.40553 13.2853 4.35071C13.1147 4.64746 13.1812 4.92137 13.4847 5.17251C13.1032 6.23237 12.6776 7.27333 12.2081 8.29531C12.0092 8.33443 11.8496 8.44405 11.7293 8.62402C11.4556 9.34071 11.2695 10.0803 11.1708 10.8429C11.1982 11.1358 11.2513 11.4235 11.3304 11.7057C11.3038 11.8016 11.2772 11.8975 11.2506 11.9934C10.7718 12.3769 10.2931 12.7603 9.81434 13.1439C9.85639 15.1957 9.85639 17.2502 9.81434 19.3073C9.8804 19.3825 9.96019 19.4372 10.0537 19.4717C10.6129 19.1565 11.1448 18.8003 11.6495 18.4033C12.5012 18.1293 13.3523 17.8554 14.2029 17.5815C15.3465 17.472 16.4902 17.472 17.6339 17.5815C18.0081 17.8975 18.4336 18.103 18.9106 18.1979C20.5119 18.9814 22.0545 19.8716 23.5384 20.8687C24.4999 21.9391 25.2978 23.117 25.9322 24.4024C26.0678 24.4156 26.2008 24.4019 26.3311 24.3613C26.6136 24.1665 26.9061 23.9884 27.2089 23.8271C27.4152 23.7466 27.628 23.7192 27.8472 23.745C27.8367 23.4339 27.7835 23.1326 27.6876 22.841C27.6876 22.7315 27.6344 22.6766 27.528 22.6766C27.4447 22.1724 27.3118 21.6793 27.1291 21.1974C26.1572 20.6823 25.2795 20.0249 24.4959 19.2251C24.4411 19.0793 24.3747 18.9423 24.2965 18.8142C24.23 17.1152 24.2433 15.4169 24.3364 13.7191C24.4627 13.5145 24.5425 13.2953 24.5757 13.0617C25.516 12.7803 26.4735 12.5611 27.4482 12.4043C27.8185 12.4716 28.1644 12.6086 28.4855 12.8152C28.5854 12.9385 28.6652 13.0755 28.7249 13.2261C28.8044 13.8262 28.8311 14.4289 28.8047 15.034C28.9643 15.034 29.1238 15.034 29.2834 15.034C29.3878 15.0941 29.4942 15.1627 29.6026 15.2394C29.3954 15.3035 29.3954 15.3445 29.6026 15.3627C29.2597 15.7273 29.0469 16.1519 28.9643 16.6365C28.9908 16.8146 29.0175 16.9926 29.0441 17.1706C29.2991 17.6876 29.5119 18.2217 29.6824 18.7731C29.5099 19.1963 29.3503 19.6209 29.2036 20.0469C28.1705 20.6197 27.9045 21.4689 28.4057 22.5945C28.5213 22.9971 28.6809 23.3805 28.8845 23.745C28.9741 23.8308 29.0804 23.8855 29.2036 23.9093C29.8787 23.8013 30.557 23.6918 31.2383 23.5806C31.4103 23.6016 31.5699 23.6564 31.7171 23.745C31.7929 23.7021 31.8594 23.6473 31.9165 23.5806C32.0967 22.3949 32.3892 21.2444 32.7942 20.1291C32.6981 19.9407 32.6449 19.7352 32.6347 19.5127C32.741 18.7731 32.8475 18.0335 32.9538 17.2939C32.7248 16.4225 32.7514 15.5596 33.0336 14.7053C33.0868 13.9383 33.14 13.1712 33.1932 12.4043C33.3064 12.1096 33.4926 11.8768 33.7517 11.7057C33.4905 11.626 33.2511 11.5028 33.0336 11.3359C32.8378 10.8306 32.7049 10.3102 32.6347 9.77453C32.8208 9.77453 33.007 9.77453 33.1932 9.77453C33.1658 9.61157 33.2191 9.50194 33.3528 9.44582C33.4217 9.81168 33.5282 10.1678 33.672 10.5141C34.1458 10.7419 34.4649 11.1117 34.6294 11.6236C34.4356 12.0777 34.2228 12.5159 33.9911 12.9384C34.0373 13.1187 34.0905 13.2967 34.1507 13.4726C34.0457 14.3495 33.8861 15.2124 33.672 16.0612C33.7699 16.3779 33.8231 16.7067 33.8315 17.0474C33.802 18.9728 33.5095 20.8492 32.9538 22.6766C32.8749 22.9731 32.8483 23.2744 32.874 23.5806C34.302 23.2862 35.4989 23.7245 36.4646 24.8955C36.671 25.3345 36.8838 25.7591 37.103 26.1693C37.4966 26.2776 37.8955 26.346 38.2999 26.3747C38.2999 26.4569 38.2999 26.5391 38.2999 26.6212C38.5984 26.6802 38.8378 26.8446 39.018 27.1143C39.4029 27.9622 39.8285 28.7839 40.2946 29.5797C40.4591 30.2819 40.5654 30.9941 40.6138 31.7163C41.3532 32.3133 42.0448 32.9707 42.6884 33.6886C42.975 34.362 43.3207 34.9921 43.7257 35.5788C43.6046 35.5797 43.5115 35.6344 43.4464 35.7431C43.4361 35.9735 43.4627 36.1926 43.5262 36.4005C43.4248 36.2869 43.3051 36.2047 43.1671 36.154C42.7906 35.7368 42.4315 35.2985 42.0899 34.8391C41.6014 33.5004 40.7103 32.5964 39.4169 32.1272C39.3853 32.3978 39.2789 32.6307 39.0978 32.8258C39.3351 32.8659 39.5212 32.9891 39.6563 33.1956C39.8859 33.4872 40.0455 33.8159 40.1351 34.1817C40.282 35.3281 40.3885 36.4786 40.4542 37.6332C40.5329 37.9716 40.6393 38.3003 40.7734 38.6194C40.8266 39.8247 40.8797 41.0299 40.933 42.2353C41.495 43.0063 42.027 43.8007 42.5288 44.6184C42.7461 45.5456 42.9322 46.477 43.0873 47.4125C42.8259 47.5453 42.5865 47.7096 42.3692 47.9056C42.2682 46.5055 41.8692 45.1907 41.1723 43.961C40.4618 43.4287 40.0363 42.7164 39.8957 41.8244C39.8425 40.6739 39.7893 39.5233 39.7361 38.3728C39.4745 37.4325 39.3283 36.4737 39.2972 35.4966C39.1837 34.9818 39.064 34.4613 38.9382 33.9352C38.6722 33.6613 38.4062 33.3873 38.1403 33.1134C38.0339 32.8668 38.0339 32.6203 38.1403 32.3738C38.4799 31.8593 38.8788 31.3936 39.3371 30.9767C39.432 30.9004 39.5384 30.873 39.6563 30.8945C39.5898 30.538 39.51 30.1819 39.4169 29.8262C38.9766 29.1879 38.6043 28.503 38.2999 27.7717C37.8888 27.3375 37.3834 27.091 36.7838 27.0321C36.571 26.9226 36.3583 26.813 36.1455 26.7034C35.9067 26.1858 35.6673 25.6653 35.4274 25.142C35.1643 24.9071 34.8717 24.7154 34.5497 24.5668C34.3502 24.5394 34.1507 24.5119 33.9512 24.4846C33.1001 24.7038 32.249 24.7038 31.3979 24.4846C30.5106 24.5958 29.6329 24.7601 28.7648 24.9777C28.4006 24.9735 28.1213 24.8092 27.927 24.4846C27.238 24.7158 26.5731 25.0171 25.9322 25.3885C25.3434 25.5285 24.7583 25.6655 24.1768 25.7994C24.1522 25.9986 24.1789 26.1904 24.2566 26.3747C24.56 27.0649 24.8792 27.7498 25.2141 28.4292C25.4914 29.5602 25.8638 30.6559 26.3311 31.7163C26.6503 32.1546 26.9695 32.5929 27.2886 33.0312C27.3628 33.1289 27.3893 33.2385 27.3684 33.3599C27.8776 33.2626 28.3563 33.0708 28.8047 32.7847C29.5372 32.4784 30.282 32.2044 31.0388 31.9629C31.3266 31.8816 31.6192 31.8542 31.9165 31.8807C31.9165 32.0177 31.9165 32.1546 31.9165 32.2916C31.2078 32.6082 30.4896 32.9095 29.7622 33.1956C29.188 33.532 28.6295 33.8881 28.0866 34.2639C27.8686 35.3127 27.6823 36.3673 27.528 37.4278C27.6069 38.5578 27.7931 39.6672 28.0866 40.756C28.2727 40.9478 28.4589 41.1396 28.6451 41.3313C28.74 41.4076 28.8463 41.435 28.9643 41.4135C28.9643 41.523 28.9643 41.6326 28.9643 41.7422C29.0441 41.7422 29.1238 41.7422 29.2036 41.7422C29.2036 41.9339 29.2036 42.1257 29.2036 42.3174C29.1238 42.3174 29.0441 42.3174 28.9643 42.3174C28.8976 42.5715 28.8443 42.8318 28.8047 43.0981C28.8984 43.4907 28.9515 43.8879 28.9643 44.2897C28.9643 44.3993 29.0175 44.4541 29.1238 44.4541C29.3055 44.9191 29.3853 45.4122 29.3632 45.9333C28.2434 45.9102 27.8178 46.4581 28.0866 47.5769C28.1375 48.1476 28.3769 48.6133 28.8047 48.9739C29.1485 49.1236 29.4677 49.3153 29.7622 49.5492C29.9147 49.9595 29.8482 50.3156 29.5627 50.6175C29.4337 50.9083 29.3805 51.2097 29.4031 51.5215C29.7402 52.682 30.2322 53.7778 30.8793 54.8087C30.9552 54.9356 30.9818 55.0726 30.959 55.2195C30.6133 55.2195 30.2675 55.2195 29.9218 55.2195C29.3138 53.9534 28.7819 52.6522 28.3259 51.316C28.5241 50.8532 28.7369 50.4012 28.9643 49.9601C28.1107 49.656 27.5522 49.0534 27.2886 48.1521C27.1823 47.4125 27.1823 46.6729 27.2886 45.9333C27.6127 45.5656 28.0116 45.319 28.4855 45.1937C28.3856 45.0704 28.3058 44.9334 28.2461 44.7828C28.1892 44.2175 28.1094 43.656 28.0068 43.0981C28.0378 42.8996 28.0909 42.7079 28.1663 42.5229C27.9218 42.0381 27.6292 41.5861 27.2886 41.1669C27.1589 40.8488 27.0791 40.5201 27.0493 40.1808C27.0493 40.0712 26.996 40.0164 26.8897 40.0164C26.8215 39.3416 26.7417 38.6567 26.6503 37.9619C26.7731 36.8169 26.9593 35.6801 27.2089 34.5515C27.1823 34.4009 27.1556 34.2502 27.1291 34.0995C26.996 33.99 26.8631 33.8804 26.7301 33.7708C26.2514 33.0038 25.7726 32.2368 25.2939 31.4698C25.0279 30.5654 24.7619 29.6614 24.4959 28.7579C24.0417 27.8908 23.6427 27.0006 23.2991 26.0871C23.3248 25.8014 23.4311 25.5549 23.6182 25.3475C22.8162 24.9182 22.0448 24.4388 21.3043 23.9093C19.3599 23.333 17.4184 22.7578 15.4795 22.1836C15.4263 21.9644 15.3732 21.9644 15.3199 22.1836C15.2202 22.1772 15.1537 22.1224 15.1205 22.0192C14.4884 22.1528 13.8367 22.2349 13.1656 22.2657C11.9463 22.559 10.7494 22.915 9.57496 23.3341C9.4686 23.3341 9.41538 23.3889 9.41538 23.4984C9.14154 23.5196 8.87551 23.5744 8.61747 23.6628C8.5111 23.6628 8.45788 23.7176 8.45788 23.8271C7.63566 24.0457 6.83774 24.347 6.06414 24.7311C5.85136 25.005 5.63859 25.279 5.42581 25.5529C4.11201 26.2842 2.72895 26.832 1.27666 27.1965C0.86564 27.4359 0.440085 27.6276 0 27.7717C0 27.443 0 27.1143 0 26.7856C0.244493 26.7504 0.483867 26.6957 0.718122 26.6212C0.718122 26.5391 0.718122 26.4569 0.718122 26.3747C1.57306 26.1695 2.42417 25.923 3.27145 25.6351C3.48423 25.5255 3.697 25.4159 3.90978 25.3064C4.18234 24.9705 4.50151 24.6966 4.86727 24.4846C5.873 23.929 6.87039 23.3537 7.85945 22.7588C7.87394 22.5348 7.91383 22.3156 7.97914 22.1014C8.55124 21.4295 8.89705 20.6488 9.01642 19.7593C8.80633 18.4309 8.80633 17.1023 9.01642 15.7736C8.94748 15.0098 8.84112 14.2565 8.69726 13.5137C8.86314 12.9938 9.10252 12.5145 9.41538 12.0755C9.62427 11.804 9.89022 11.6397 10.2133 11.5825C10.3384 10.4914 10.5778 9.42305 10.9314 8.37749C11.2358 8.02535 11.5018 7.64182 11.7293 7.22698C12.0803 6.12052 12.5591 5.07964 13.1656 4.10418C13.2266 4.01279 13.3064 3.95798 13.4049 3.93982ZM25.1343 16.9241C25.1343 16.7598 25.1343 16.5954 25.1343 16.431C25.1343 16.294 25.1343 16.1571 25.1343 16.0201C25.1123 15.2726 25.1655 14.533 25.2939 13.8013C25.7258 13.6301 26.1646 13.4658 26.6104 13.3082C26.7763 13.3824 26.9492 13.4372 27.1291 13.4726C27.3588 13.3662 27.5982 13.3114 27.8472 13.3082C28.0404 14.7782 28.1734 16.2574 28.2461 17.7459C28.5945 18.2703 28.7807 18.8455 28.8047 19.4717C28.303 19.5758 27.9041 19.8497 27.6078 20.2934C26.9882 19.9605 26.3765 19.6044 25.7726 19.2251C25.6396 19.0881 25.5067 18.9512 25.3736 18.8142C25.1928 18.1976 25.113 17.5675 25.1343 16.9241ZM14.7614 18.4033C16.0034 18.3029 17.2003 18.4946 18.352 18.9786C19.2371 19.4618 20.1413 19.9001 21.0649 20.2934C21.9838 20.9104 22.8084 21.6501 23.5384 22.5123C24.0057 23.1993 24.4579 23.8978 24.8949 24.6078C24.8606 24.7257 24.794 24.8216 24.6954 24.8955C23.8146 24.1679 22.8438 23.5926 21.783 23.1697C19.6818 22.5398 17.5806 21.9235 15.4795 21.3207C14.2995 21.2302 13.1292 21.2987 11.9687 21.5261C10.9431 21.869 9.93251 22.2251 8.93663 22.5945C8.94972 22.3275 9.02951 22.081 9.17601 21.8549C9.38881 21.5261 9.60153 21.1974 9.81434 20.8687C10.6118 19.9917 11.5693 19.3616 12.6868 18.9786C13.392 18.7563 14.0836 18.5646 14.7614 18.4033Z" fill="#8E3642"/>
<path opacity="0.01" fill-rule="evenodd" clip-rule="evenodd" d="M58.9643 8.13092C58.9643 8.24047 58.911 8.29528 58.8047 8.29528C58.8047 8.18573 58.8579 8.13092 58.9643 8.13092Z" fill="#8E3642"/>
<path opacity="0.851" fill-rule="evenodd" clip-rule="evenodd" d="M61.8339 5.91211C62.0418 6.06998 62.0418 6.23433 61.8339 6.40518C61.8703 6.47076 61.9236 6.49813 61.9935 6.48736C61.8212 6.82315 61.5552 7.04232 61.1955 7.1448C61.0892 7.1448 61.036 7.19961 61.036 7.30915C60.3312 7.55109 59.6396 7.82499 58.9614 8.13094C58.855 8.13094 58.8018 8.18576 58.8018 8.2953C58.2303 8.57693 57.7249 8.96046 57.2858 9.44581C57.1662 9.9812 56.9003 10.4195 56.4878 10.7607C56.0557 11.7342 55.5237 12.6381 54.892 13.4726C54.6171 14.4639 54.3777 15.4637 54.1739 16.4721C54.4965 17.2634 54.8423 18.0441 55.2112 18.8142C55.8211 19.5522 56.4328 20.2918 57.0464 21.0331C57.3482 21.0698 57.6275 21.152 57.8842 21.2796C57.8975 21.2111 57.9108 21.1426 57.9241 21.0741C57.216 19.684 56.4979 18.3006 55.7697 16.9241C55.7034 16.6224 55.5837 16.3484 55.4107 16.1023C55.347 15.9578 55.3603 15.8208 55.4506 15.6914C55.7746 15.3237 56.1736 15.0771 56.6474 14.9518C58.6152 14.2319 60.6099 13.6293 62.6318 13.1439C63.5497 12.8018 64.454 12.4456 65.3447 12.0755C65.3447 11.9934 65.3447 11.9112 65.3447 11.829C64.7943 11.8472 64.2623 11.9431 63.7489 12.1166C63.3774 12.1576 63.0051 12.1714 62.6318 12.1577C62.5954 11.861 62.6486 11.5871 62.7914 11.3359C63.1448 11.1643 63.5171 11.0548 63.9084 11.0072C64.5897 10.9494 65.2679 10.8672 65.9431 10.7607C66.0894 10.788 66.2357 10.8155 66.382 10.8429C66.6479 11.0072 66.9139 11.1716 67.1799 11.3359C68.4443 12.7257 68.4176 14.0953 67.1001 15.4449C67.0191 15.695 66.9393 15.9416 66.8607 16.1845C66.9405 16.1845 67.0203 16.1845 67.1001 16.1845C67.1001 15.8558 67.2597 15.6914 67.5788 15.6914C67.7192 15.2375 67.9054 14.7991 68.1374 14.3766C68.182 13.4138 68.2618 12.455 68.3768 11.5003C68.3502 11.3633 68.3235 11.2264 68.297 11.0894C67.6385 10.5246 66.8805 10.1959 66.0229 10.1032C65.7793 10.1389 65.5399 10.1936 65.3048 10.2676C65.1061 10.1989 64.9066 10.1442 64.7064 10.1032C64.7636 9.79573 64.9232 9.54919 65.1851 9.36363C65.8009 9.23469 66.386 9.02924 66.9405 8.74729C67.3521 8.70061 67.4319 8.85124 67.1799 9.19927C67.6329 9.51492 68.1117 9.78882 68.6161 10.0211C69.052 10.4527 69.3445 10.9731 69.4938 11.5825C69.5495 11.9011 69.6027 12.2161 69.6534 12.5275C69.6099 13.2358 69.5966 13.9617 69.6135 14.7053C69.7244 14.517 69.844 14.3389 69.9726 14.1711C69.8781 14.0741 69.8249 13.9509 69.813 13.8013C69.8115 13.5762 69.8647 13.3708 69.9726 13.185C69.9371 13.066 69.8839 12.9565 69.813 12.8562C69.8839 12.756 69.9371 12.6464 69.9726 12.5275C69.8176 12.2217 69.7911 11.9067 69.8928 11.5825C69.97 11.5012 70.0632 11.4464 70.1721 11.4181C70.4053 11.5346 70.6048 11.699 70.7705 11.9112C70.824 12.4573 70.9038 12.9915 71.0099 13.5137C70.9568 14.1833 70.744 14.7996 70.3715 15.3627C70.1322 15.4722 69.8928 15.4722 69.6534 15.3627C69.5447 15.2482 69.4782 15.1113 69.4539 14.9518C68.8363 15.6837 68.2644 16.4507 67.7384 17.2528C67.6173 17.5023 67.4976 17.7489 67.3794 17.9924C67.2724 18.7563 67.206 19.5233 67.1799 20.2934C67.8163 20.3355 68.3216 20.089 68.6959 19.5538C68.9296 19.473 69.1689 19.4456 69.414 19.4717C69.4615 19.7055 69.4615 19.9521 69.414 20.2113C69.3203 20.1933 69.2405 20.2206 69.1747 20.2934C68.9916 20.5644 68.7787 20.8109 68.5363 21.0331C68.4622 21.1308 68.4356 21.2403 68.4566 21.3618C68.2437 21.4166 68.031 21.4713 67.8182 21.5261C67.7922 21.8864 67.8189 22.2425 67.898 22.5945C68.4589 22.9814 68.7781 23.5292 68.8555 24.238C68.9351 25.0306 68.9618 25.8249 68.9353 26.6212C69.024 26.8548 68.9841 27.0739 68.8156 27.2787C68.7058 27.0629 68.6128 27.0629 68.5363 27.2787C68.2314 27.2664 68.0452 27.1021 67.9778 26.7856C67.9383 25.7367 67.8585 24.6958 67.7384 23.6628C67.537 23.5691 67.3242 23.5143 67.1001 23.4984C67.053 23.1823 66.92 22.9084 66.7011 22.6766C66.6583 21.8303 66.4987 21.0085 66.2224 20.2113C66.1958 19.8141 66.1692 19.4168 66.1426 19.0197C66.1325 18.3611 66.1858 17.7173 66.3022 17.0885C65.9369 17.1518 65.7241 17.0012 65.6639 16.6365C65.8211 16.1643 65.9541 15.6848 66.0628 15.1983C66.7576 14.6173 67.0236 13.8776 66.8607 12.9795C66.7043 12.879 66.5581 12.7695 66.4219 12.6508C66.1263 12.892 65.7939 13.0563 65.4245 13.1439C65.3279 13.1794 65.2481 13.2342 65.1851 13.3082C65.0521 13.3082 64.9192 13.3082 64.7861 13.3082C64.7893 13.5861 64.7628 13.86 64.7064 14.13C64.116 14.2366 63.5308 14.3735 62.9509 14.5409C62.6742 14.7028 62.4083 14.8808 62.153 15.0751C60.8185 15.4648 59.4886 15.862 58.1635 16.2667C58.1389 16.4659 58.1655 16.6576 58.2433 16.8419C58.3205 16.9232 58.4136 16.978 58.5225 17.0063C58.954 16.8899 59.3928 16.8077 59.8391 16.7597C60.2431 16.2886 60.6952 15.8777 61.1955 15.5271C61.2891 15.5615 61.3688 15.6162 61.4349 15.6914C61.5413 15.8831 61.5413 16.0749 61.4349 16.2667C60.8108 17.0593 60.2257 17.8811 59.6795 18.732C59.5724 18.8557 59.4395 18.9105 59.2805 18.8964C59.222 19.8287 59.1422 20.7601 59.0412 21.6905C58.8816 21.9644 58.722 22.2384 58.5624 22.5123C57.9185 23.1204 57.3333 23.7778 56.807 24.4846C56.6809 24.83 56.7341 25.1313 56.9666 25.3885C56.8949 25.4426 56.8152 25.4973 56.7272 25.5529C56.7691 25.6098 56.8223 25.6509 56.8868 25.6762C56.7698 25.8037 56.69 25.9544 56.6474 26.1282C56.7092 26.2277 56.7757 26.2277 56.8469 26.1282C56.9021 26.2052 56.8888 26.2599 56.807 26.2925C56.5224 26.2066 56.283 26.0423 56.0889 25.7994C55.996 25.2536 55.9827 24.7058 56.049 24.1559C56.4136 23.5744 56.8525 23.0539 57.3656 22.5945C57.4362 22.5267 57.4628 22.4445 57.4453 22.3479C57.2775 22.3725 57.1179 22.3451 56.9666 22.2657C56.1404 21.4696 55.369 20.6204 54.6526 19.7182C54.2367 18.9162 53.8643 18.0944 53.5356 17.2528C53.4205 16.1217 53.4737 14.9986 53.6952 13.8835C54.2145 12.9781 54.6933 12.0468 55.1314 11.0894C55.7104 10.3106 56.2158 9.48879 56.6474 8.62402C57.5848 8.00521 58.5157 7.38887 59.4401 6.77499C59.9107 6.62468 60.3895 6.48777 60.8764 6.36409C61.2058 6.22858 61.525 6.07786 61.8339 5.91211ZM57.206 15.7736C57.3415 15.7604 57.4745 15.7741 57.6049 15.8147C57.3954 15.9343 57.2624 16.1124 57.206 16.3488C57.3459 17.0618 57.572 17.7465 57.8842 18.4033C58.0338 18.5054 58.1801 18.615 58.323 18.732C58.4155 19.0297 58.4288 19.331 58.3629 19.636C57.7825 18.687 57.2638 17.7009 56.807 16.6776C56.7007 16.4858 56.7007 16.294 56.807 16.1023C56.9657 16.0093 57.0987 15.8997 57.206 15.7736Z" fill="#8E3642"/>
<path opacity="0.01" fill-rule="evenodd" clip-rule="evenodd" d="M65.4347 13.1438C65.4091 13.271 65.3293 13.3259 65.1953 13.3082C65.2583 13.2341 65.3381 13.1793 65.4347 13.1438Z" fill="#8E3642"/>
<path opacity="0.867" fill-rule="evenodd" clip-rule="evenodd" d="M80.7421 20.8687C80.7421 20.7591 80.6886 20.7043 80.5825 20.7043C80.5506 20.0087 80.604 19.3239 80.7421 18.6498C80.979 18.6178 81.1913 18.6726 81.3804 18.8142C81.6652 19.9438 81.8647 21.0943 81.9788 22.2657C82.0187 22.3068 82.0586 22.3479 82.0985 22.389C82.7113 22.4622 83.3233 22.5444 83.9337 22.6355C84.1188 22.7993 84.3311 22.8951 84.572 22.9231C84.3821 21.2694 84.1691 19.6259 83.9337 17.9924C84.0175 17.4986 84.1244 17.0055 84.2529 16.5132C84.4899 16.4811 84.7021 16.5359 84.8912 16.6775C85.0181 17.1659 85.1242 17.659 85.2104 18.1568C85.2638 19.1977 85.3165 20.2386 85.37 21.2796C85.425 21.3227 85.4649 21.3775 85.4896 21.4439C85.5559 19.6628 85.5431 17.8822 85.4497 16.1023C85.2766 15.582 85.0636 15.0889 84.8114 14.6231C84.9662 14.6458 85.1258 14.591 85.2902 14.4587C85.3532 14.5197 85.4059 14.5881 85.4497 14.6641C85.3739 14.7231 85.3604 14.7916 85.4098 14.8696C85.5607 15.0657 85.7601 15.1616 86.0083 15.1572C85.982 15.1846 85.9548 15.212 85.9285 15.2394C85.9883 15.3616 86.0554 15.3753 86.128 15.2805C86.211 15.3799 86.3043 15.4621 86.4072 15.527C86.4336 17.8013 86.4072 20.0749 86.3274 22.3479C86.274 22.6766 86.2213 23.0053 86.1679 23.334C86.0226 23.4349 85.9429 23.5719 85.9285 23.7449C86.886 24.0984 87.8435 24.4408 88.801 24.7722C89.2821 24.9809 89.6811 25.2959 89.9979 25.7172C89.9979 26.0733 89.9979 26.4295 89.9979 26.7856C89.5454 26.3475 89.0667 25.9366 88.5616 25.5529C87.6711 25.1923 86.7671 24.8636 85.8487 24.5667C85.1761 24.193 84.4851 23.8643 83.7741 23.5806C82.8932 23.3127 82.0155 23.2853 81.141 23.4984C80.2114 23.3233 79.2802 23.1589 78.3483 23.0053C78.2951 22.7861 78.242 22.7861 78.1887 23.0053C77.9695 22.9796 77.7567 23.007 77.5504 23.0875C76.362 23.3952 75.1917 23.7513 74.0396 24.1558C73.9728 24.0301 73.893 23.8657 73.8002 23.6627C73.7637 23.5972 73.7105 23.5698 73.6406 23.5806C73.6988 23.2724 73.8584 23.0259 74.1194 22.841C74.5258 22.7569 74.7652 22.5103 74.8375 22.1013C75.18 21.5979 75.5657 21.1322 75.9945 20.7043C76.2041 20.2182 76.4567 19.7525 76.7525 19.3073C76.8454 18.5143 76.8588 17.7199 76.7924 16.9241C76.4224 16.1208 76.0633 15.3128 75.7152 14.4998C75.9034 13.8484 76.2226 13.7525 76.6727 14.2122C77.1712 15.1155 77.5702 16.0605 77.8696 17.0473C77.6724 17.738 77.6724 18.4228 77.8696 19.1018C77.6914 19.5837 77.5052 20.0631 77.311 20.5399C76.8442 21.1167 76.392 21.7057 75.9546 22.3068C75.9811 22.3479 76.0078 22.389 76.0344 22.4301C76.7661 22.1595 77.5108 21.9404 78.2685 21.7726C78.4299 21.9101 78.6161 21.9649 78.8271 21.937C78.8322 21.4257 78.8854 20.9189 78.9866 20.4167C78.9573 20.1376 78.9041 19.8637 78.8271 19.5949C78.8938 19.3903 78.9469 19.1848 78.9866 18.9785C79.1456 18.9927 79.2785 18.9379 79.3856 18.8142C79.6066 18.9868 79.7662 19.206 79.8644 19.4716C79.8348 20.3188 79.8348 21.168 79.8644 22.0192C80.1229 22.1437 80.3622 22.1162 80.5825 21.937C80.529 21.8822 80.4764 21.8274 80.4229 21.7726C80.5418 21.4743 80.6479 21.1731 80.7421 20.8687Z" fill="#8E3642"/>
<path opacity="0.01" fill-rule="evenodd" clip-rule="evenodd" d="M25.1303 16.0201C25.1303 16.1571 25.1303 16.294 25.1303 16.431C25.0771 16.431 25.024 16.431 24.9708 16.431C24.937 16.2436 24.9902 16.1066 25.1303 16.0201Z" fill="#8E3642"/>
<path opacity="0.01" fill-rule="evenodd" clip-rule="evenodd" d="M24.9728 16.431C25.026 16.431 25.0791 16.431 25.1323 16.431C25.1323 16.5954 25.1323 16.7597 25.1323 16.9241C24.9881 16.8075 24.9349 16.6432 24.9728 16.431Z" fill="#8E3642"/>
<path opacity="0.01" fill-rule="evenodd" clip-rule="evenodd" d="M80.5938 20.7043C80.6999 20.7043 80.7533 20.7591 80.7533 20.8686C80.6472 20.8686 80.5938 20.8138 80.5938 20.7043Z" fill="#8E3642"/>
<path opacity="0.01" fill-rule="evenodd" clip-rule="evenodd" d="M15.4799 22.1835C15.4267 22.1835 15.3735 22.1835 15.3203 22.1835C15.3735 21.9643 15.4267 21.9643 15.4799 22.1835Z" fill="#8E3642"/>
<path opacity="0.839" fill-rule="evenodd" clip-rule="evenodd" d="M73.644 23.5806C73.7139 23.5698 73.7671 23.5972 73.8036 23.6628C73.8964 23.8658 73.9762 24.0301 74.043 24.1559C74.0253 24.2574 73.9721 24.3395 73.8834 24.4024C73.5093 24.54 73.1901 24.7591 72.9259 25.0598C72.494 25.3733 72.0152 25.5103 71.4896 25.4707C71.4233 25.8409 71.2105 26.0875 70.8513 26.2103C70.325 26.9171 69.7398 27.5745 69.0959 28.1826C68.536 28.4718 67.9508 28.6636 67.3405 28.7579C67.3405 28.8401 67.3405 28.9223 67.3405 29.0044C66.5955 29.2088 65.8773 29.4691 65.1861 29.7851C63.8045 30.0988 62.4746 30.5782 61.1965 31.2233C60.9902 31.3038 60.7774 31.3312 60.5582 31.3054C60.5945 31.4589 60.6477 31.6095 60.7178 31.7574C60.6286 31.9266 60.5754 32.1047 60.5582 32.2916C60.2229 32.3176 59.9038 32.2902 59.6007 32.2094C59.6216 32.088 59.5951 31.9784 59.5209 31.8807C59.3961 31.9371 59.2631 31.9233 59.122 31.8396C59.1752 31.7848 59.2283 31.7301 59.2816 31.6753C59.2721 31.5812 59.2455 31.4853 59.2018 31.3876C59.403 31.4182 59.5626 31.3497 59.6805 31.1822C59.5585 30.9928 59.4654 30.7874 59.4012 30.5658C59.3934 30.0628 59.327 29.5697 59.2018 29.0866C59.2833 28.6659 59.1903 28.2823 58.9225 27.9361C58.9084 27.6582 58.8686 27.3843 58.8028 27.1143C58.6418 26.9623 58.4955 26.7979 58.364 26.6212C58.2011 26.7241 58.0149 26.7789 57.8054 26.7856C57.6325 26.7582 57.4597 26.7308 57.2868 26.7034C57.1159 26.5634 56.9564 26.4265 56.808 26.2925C56.8898 26.2599 56.9031 26.2052 56.8479 26.1282C56.7767 26.2277 56.7102 26.2277 56.6484 26.1282C56.691 25.9544 56.7708 25.8037 56.8878 25.6762C56.8233 25.6509 56.7701 25.6098 56.7282 25.5529C56.8162 25.4974 56.896 25.4426 56.9676 25.3886C57.1344 25.5439 57.3205 25.6809 57.5261 25.7994C58.1733 25.8453 58.8116 25.9275 59.4411 26.046C59.5325 26.3399 59.6123 26.6413 59.6805 26.95C59.8264 27.086 59.9329 27.2504 59.9997 27.443C60.1282 28.3749 60.2612 29.2926 60.3986 30.196C60.7738 30.2641 61.1462 30.2504 61.5157 30.1549C63.6556 29.0827 65.8898 28.261 68.2182 27.6896C68.3587 27.5731 68.4651 27.4362 68.5373 27.2787C68.6138 27.063 68.7068 27.063 68.8166 27.2787C68.9851 27.0739 69.025 26.8548 68.9363 26.6212C69.079 26.6447 69.212 26.6173 69.3353 26.5391C69.4679 26.3007 69.5876 26.0541 69.6943 25.7994C69.8294 25.7432 69.9491 25.6611 70.0534 25.5529C70.2281 25.1401 70.5207 24.8525 70.9311 24.69C70.6802 24.5575 70.5872 24.352 70.6518 24.0737C71.0993 23.4893 71.5913 22.9415 72.128 22.4301C72.5003 21.8275 72.8727 21.2248 73.245 20.6222C73.3883 20.3087 73.4947 19.9799 73.5642 19.636C73.7299 19.4238 73.9294 19.2595 74.1626 19.1429C74.6297 19.3518 74.776 19.7078 74.6015 20.2113C74.3484 20.568 74.1356 20.9515 73.9632 21.3618C73.3597 21.8937 72.9607 22.5512 72.7663 23.3341C72.7749 23.4115 72.8015 23.4799 72.8461 23.5395C73.1108 23.5804 73.3767 23.5942 73.644 23.5806ZM71.6492 24.3202C71.729 24.3202 71.8088 24.3202 71.8886 24.3202C71.8886 24.4024 71.8886 24.4846 71.8886 24.5668C71.6932 24.6125 71.507 24.6125 71.33 24.5668C71.4762 24.521 71.5826 24.4388 71.6492 24.3202Z" fill="#8E3642"/>
<path opacity="0.01" fill-rule="evenodd" clip-rule="evenodd" d="M27.5312 22.6766C27.6376 22.6766 27.6908 22.7314 27.6908 22.841C27.5845 22.841 27.5312 22.7862 27.5312 22.6766Z" fill="#8E3642"/>
<path opacity="0.01" fill-rule="evenodd" clip-rule="evenodd" d="M78.3549 23.0053C78.3017 23.0053 78.2485 23.0053 78.1953 23.0053C78.2485 22.7861 78.3017 22.7861 78.3549 23.0053Z" fill="#8E3642"/>
<path opacity="0.01" fill-rule="evenodd" clip-rule="evenodd" d="M9.56583 23.334C9.56583 23.4436 9.51261 23.4984 9.40625 23.4984C9.40625 23.3888 9.45947 23.334 9.56583 23.334Z" fill="#8E3642"/>
<path opacity="0.01" fill-rule="evenodd" clip-rule="evenodd" d="M8.61271 23.6628C8.61271 23.7724 8.55949 23.8272 8.45312 23.8272C8.45312 23.7176 8.50635 23.6628 8.61271 23.6628Z" fill="#8E3642"/>
<path opacity="0.01" fill-rule="evenodd" clip-rule="evenodd" d="M26.8984 40.0164C27.0048 40.0164 27.058 40.0712 27.058 40.1807C26.9517 40.1807 26.8984 40.1259 26.8984 40.0164Z" fill="#8E3642"/>
<path opacity="0.85" fill-rule="evenodd" clip-rule="evenodd" d="M59.211 31.3876C59.2547 31.4852 59.2813 31.5811 59.2908 31.6752C59.2375 31.73 59.1844 31.7847 59.1312 31.8396C59.2723 31.9233 59.4053 31.937 59.5301 31.8806C59.6043 31.9784 59.6308 32.0879 59.6099 32.2094C59.4541 32.0862 59.3211 32.1136 59.211 32.2915C59.0798 32.6677 58.9734 33.0512 58.8918 33.442C58.6981 33.6966 58.4587 33.8884 58.1737 34.0173C58.053 34.2658 57.8934 34.485 57.6949 34.6747C57.6001 34.7511 57.4937 34.7784 57.3758 34.7569C57.3967 34.8784 57.3701 34.9879 57.296 35.0856C57.1364 35.1952 56.9768 35.3048 56.8172 35.4143C56.6209 35.9456 56.3017 36.3839 55.8597 36.7292C55.5811 37.3581 55.2619 37.9608 54.9022 38.5372C54.224 39.5503 53.5857 40.5913 52.9872 41.66C52.5998 42.1691 52.121 42.5526 51.551 42.8105C51.3751 43.4541 51.2687 44.1115 51.2318 44.7828C50.7856 45.7845 50.2005 46.6885 49.4764 47.4947C49.0473 47.7249 48.6218 47.9715 48.1998 48.2343C48.0646 48.8924 47.9183 49.5498 47.7609 50.2066C47.6412 50.3298 47.5215 50.4531 47.4019 50.5764C46.6213 51.0315 45.8233 51.4561 45.0081 51.8502C44.7422 51.9597 44.4761 51.9597 44.2102 51.8502C44.004 51.6355 43.7646 51.4711 43.4921 51.3571C43.3059 51.1654 43.1197 50.9736 42.9335 50.7818C42.6244 49.855 42.4383 48.8962 42.375 47.9056C42.5923 47.7096 42.8316 47.5452 43.0931 47.4125C43.354 48.3389 43.5933 49.2702 43.8112 50.2066C44.1443 50.354 44.49 50.4636 44.8485 50.5353C44.7859 49.9899 44.7327 49.4421 44.6889 48.8917C44.7683 47.57 44.8746 46.2552 45.0081 44.9471C44.9549 44.8376 44.9018 44.7279 44.8485 44.6184C45.0655 43.9301 44.9857 43.2726 44.6092 42.6461C44.567 41.4509 44.4872 40.2593 44.3698 39.0713C44.3953 38.8445 44.4485 38.6253 44.5294 38.4139C44.4405 37.9808 44.2011 37.6932 43.8112 37.551C43.8321 37.4295 43.8056 37.32 43.7315 37.2223C43.3977 36.9455 43.2115 36.5894 43.1729 36.154C43.3109 36.2047 43.4306 36.2868 43.532 36.4005C43.4685 36.1926 43.4419 35.9735 43.4522 35.7431C43.5173 35.6343 43.6104 35.5796 43.7315 35.5787C44.2546 36.2431 44.7599 36.928 45.2475 37.6332C45.3587 38.8553 45.3321 40.0743 45.1677 41.2901C45.1943 41.4956 45.2209 41.701 45.2475 41.9065C45.414 42.091 45.5205 42.3102 45.5667 42.5639C45.6464 45.1109 45.673 47.6584 45.6464 50.2066C45.9449 50.2279 46.2374 50.2005 46.5242 50.1244C46.5893 49.8071 46.6957 49.5058 46.8433 49.2204C46.8965 48.8917 46.9497 48.563 47.0029 48.2343C47.182 47.9208 47.315 47.5921 47.4019 47.2481C47.7709 47.1134 48.1432 46.9764 48.5189 46.8372C48.8521 46.7071 49.1446 46.5153 49.3966 46.262C49.7354 45.8107 50.0546 45.345 50.3541 44.8649C50.2528 44.5375 50.2528 44.2088 50.3541 43.8788C50.521 43.327 50.6806 42.7791 50.8329 42.2352C51.2269 41.9915 51.6258 41.7723 52.0298 41.5778C52.0179 41.4913 52.0311 41.4091 52.0696 41.3312C52.6469 40.532 53.1389 39.6828 53.5458 38.7837C53.9721 38.0162 54.3976 37.2492 54.8225 36.4827C55.8648 35.4641 56.8489 34.3957 57.7747 33.2777C57.9201 32.3874 58.3989 31.7573 59.211 31.3876Z" fill="#8E3642"/>
</svg>
