<?xml version="1.0" standalone="no"?>
<!DOCTYPE svg PUBLIC "-//W3C//DTD SVG 20010904//EN"
 "http://www.w3.org/TR/2001/REC-SVG-20010904/DTD/svg10.dtd">
<svg version="1.0" xmlns="http://www.w3.org/2000/svg"
 width="1328.000000pt" height="1328.000000pt" viewBox="0 0 1328.000000 1328.000000"
 preserveAspectRatio="xMidYMid meet">
<metadata>
Created by potrace 1.14, written by Peter Selinger 2001-2017
</metadata>
<g transform="translate(0.000000,1328.000000) scale(0.100000,-0.100000)"
fill="#000000" stroke="none">
<path d="M3059 10555 c-2 -2 -17 -5 -34 -8 -41 -6 -114 -27 -134 -37 -9 -5
-32 -16 -51 -25 -68 -31 -159 -96 -166 -118 -3 -10 -8 -16 -11 -14 -5 5 -89
-16 -128 -32 -93 -38 -182 -73 -190 -74 -5 -1 -12 -4 -15 -8 -3 -3 -22 -13
-42 -22 -20 -10 -40 -22 -43 -27 -3 -6 -15 -10 -25 -10 -10 0 -20 -3 -22 -7
-5 -11 -97 -73 -108 -73 -6 0 -10 -4 -10 -8 0 -4 -25 -25 -56 -47 -81 -58 -89
-66 -115 -110 -44 -77 -129 -245 -124 -245 3 0 -1 -10 -10 -23 -8 -12 -16 -32
-18 -42 -9 -50 -62 -142 -123 -214 -19 -22 -59 -122 -68 -168 -3 -15 -8 -39
-11 -53 -3 -14 -8 -32 -10 -40 -2 -8 -4 -16 -5 -17 -4 -4 -6 -14 -15 -73 -5
-30 -10 -59 -11 -65 -1 -5 -2 -19 -3 -30 -1 -14 -16 -27 -51 -43 -38 -18 -59
-37 -90 -82 -73 -107 -92 -168 -74 -240 26 -112 34 -247 20 -370 -9 -75 -9
-229 -1 -310 11 -104 13 -175 5 -185 -4 -5 -13 -31 -20 -58 -7 -26 -26 -68
-41 -93 -16 -24 -29 -47 -29 -50 0 -3 -13 -22 -30 -42 -16 -21 -32 -55 -36
-79 -4 -29 -12 -44 -25 -48 -11 -4 -19 -11 -19 -16 0 -5 -6 -9 -14 -9 -7 0
-51 -22 -97 -48 -73 -42 -229 -127 -310 -168 -14 -8 -46 -33 -71 -56 -78 -74
-132 -97 -395 -168 -56 -15 -104 -25 -107 -22 -3 2 -11 -7 -17 -22 -11 -23
-46 -38 -94 -41 -5 0 -11 -30 -13 -67 -4 -82 -2 -83 106 -32 42 20 102 42 132
50 96 25 285 88 288 96 2 5 10 8 18 8 8 0 36 10 62 21 157 71 189 90 222 129
19 23 42 51 51 61 9 10 34 26 55 35 22 9 53 22 69 30 42 19 212 74 229 74 8 0
16 6 19 13 3 8 34 20 69 27 34 7 70 18 78 25 14 10 262 91 309 100 11 2 64 15
118 30 54 14 127 28 163 31 36 2 79 6 95 9 23 3 100 14 135 18 3 0 14 -4 24
-8 13 -6 21 -4 24 4 3 9 7 7 16 -4 6 -9 20 -18 31 -20 11 -2 20 -4 20 -5 0 -1
7 -3 15 -5 8 -1 74 -19 145 -39 166 -47 236 -67 258 -71 9 -2 22 -7 28 -10 5
-4 20 -8 32 -10 12 -2 54 -13 92 -24 39 -12 79 -23 90 -25 11 -2 34 -9 50 -16
17 -6 32 -11 35 -11 18 3 84 -28 132 -60 31 -22 59 -39 62 -39 5 0 72 -40 131
-78 11 -7 32 -17 48 -23 15 -6 27 -12 27 -13 0 -2 -8 -18 -17 -37 -27 -53 -26
-71 10 -155 37 -86 113 -242 126 -259 8 -9 25 -61 101 -305 20 -65 48 -127 72
-162 21 -31 38 -61 38 -67 0 -5 4 -11 8 -13 4 -1 33 -42 64 -90 31 -47 73
-101 93 -120 28 -26 36 -41 36 -68 0 -31 -6 -75 -11 -75 -1 0 -3 -9 -4 -20 -8
-55 -18 -110 -21 -115 -3 -5 -8 -33 -21 -125 -3 -27 -9 -59 -11 -70 -9 -42
-10 -117 -2 -159 8 -41 15 -107 22 -181 1 -16 7 -34 13 -40 10 -8 22 -55 26
-92 0 -11 39 -87 47 -93 3 -3 20 -25 36 -50 16 -25 32 -47 35 -50 3 -3 13 -16
22 -31 13 -21 14 -30 4 -55 -7 -16 -11 -40 -10 -54 3 -36 14 -120 20 -155 3
-16 7 -43 10 -59 2 -16 11 -40 19 -53 9 -14 15 -26 13 -27 -2 -1 -24 -10 -49
-19 -64 -24 -126 -79 -128 -114 -5 -74 -3 -232 3 -263 10 -54 54 -136 96 -178
21 -21 65 -52 98 -69 33 -17 57 -35 52 -39 -5 -5 -27 -46 -51 -92 l-42 -83 43
-107 c23 -59 50 -125 60 -147 56 -129 78 -176 105 -230 l30 -61 78 -1 c61 0
77 2 77 14 0 16 -26 71 -45 93 -29 34 -126 238 -165 348 -28 77 -23 146 15
204 28 42 35 92 16 126 -6 12 -45 40 -86 63 -91 50 -129 96 -151 180 -44 172
-8 253 120 266 59 6 60 7 56 69 -3 61 -27 143 -43 150 -7 2 -14 17 -15 32 -1
15 -5 52 -9 82 -14 112 -2 180 33 180 10 0 14 12 14 40 0 33 -3 40 -20 40 -11
0 -19 3 -19 8 4 23 -3 38 -20 39 -10 1 -39 23 -64 48 -51 53 -60 79 -97 285
-25 138 -30 226 -18 289 5 25 11 60 14 76 2 17 6 41 9 55 6 31 15 76 21 110 7
46 21 105 29 122 11 27 277 188 312 188 4 0 62 22 128 49 115 47 120 51 123
81 l3 31 -48 -2 c-59 -2 -328 -88 -426 -136 -40 -20 -97 -43 -127 -53 -49 -17
-56 -17 -65 -3 -13 20 -96 134 -110 150 -5 7 -16 19 -23 28 -36 42 -128 271
-171 422 -10 37 -54 139 -96 226 -83 172 -92 217 -46 224 97 14 247 59 314 92
42 21 77 37 77 34 0 -3 6 -1 13 4 6 6 35 18 64 27 l52 17 31 -29 c34 -33 78
-44 125 -31 16 5 46 11 65 14 19 3 54 10 77 15 78 18 148 25 218 22 113 -4
294 -3 374 2 79 5 117 -7 186 -60 27 -20 114 -173 115 -200 1 -10 35 -54 43
-54 2 0 22 -8 43 -17 22 -9 41 -17 44 -18 3 0 23 -4 45 -9 46 -9 133 -56 155
-84 8 -10 33 -54 55 -97 22 -43 59 -107 82 -142 24 -35 40 -63 37 -63 -4 0 -1
-7 6 -15 7 -8 10 -15 7 -15 -3 0 0 -21 8 -47 19 -61 20 -56 -14 -71 -45 -20
-173 -162 -197 -218 -19 -46 -6 -76 66 -149 32 -33 61 -71 64 -85 3 -14 13
-54 22 -90 9 -36 17 -74 19 -85 1 -11 3 -20 4 -20 1 0 11 -123 15 -192 0 -13
4 -23 7 -23 3 0 6 -16 7 -35 1 -19 6 -44 12 -55 6 -11 8 -20 6 -20 -3 0 -1
-12 5 -27 6 -15 12 -61 14 -103 2 -41 7 -124 10 -185 12 -231 15 -271 27 -305
21 -66 60 -125 122 -186 43 -43 74 -85 100 -140 37 -74 99 -244 91 -244 -3 0
-1 -10 4 -23 14 -35 24 -98 35 -207 13 -138 24 -198 58 -315 22 -75 66 -129
139 -169 18 -10 44 -28 57 -40 18 -15 36 -21 73 -21 41 1 77 15 232 93 184 92
233 127 241 172 2 14 5 25 6 25 1 0 3 7 5 15 2 8 13 57 24 107 12 51 21 95 21
97 0 5 160 96 170 96 13 0 100 100 153 177 88 126 124 200 131 268 3 33 8 71
11 85 3 14 10 47 15 74 10 50 25 76 42 76 16 0 101 62 144 104 22 23 69 88
104 146 35 58 68 107 72 108 4 2 8 8 8 12 0 5 37 64 83 132 46 68 92 139 103
158 10 19 21 37 24 40 3 3 20 34 38 69 17 35 54 86 80 112 27 27 59 69 73 95
13 27 40 58 61 72 21 14 41 35 44 48 3 13 10 22 14 19 11 -7 77 51 85 73 3 10
18 26 35 35 62 37 88 70 106 137 9 36 24 78 31 94 13 25 18 27 46 21 18 -3 47
-8 65 -11 18 -2 36 -5 40 -5 51 -8 78 48 57 117 -6 19 -2 22 37 26 24 3 68 16
98 30 131 60 274 111 418 148 64 17 141 40 170 51 28 10 76 28 105 39 28 10
78 26 110 35 31 9 55 20 53 24 -9 14 10 29 44 34 19 3 35 6 35 7 0 1 11 3 24
6 12 2 53 16 90 30 55 22 81 41 152 113 47 47 107 112 133 144 27 31 54 57 60
57 16 0 62 50 70 76 5 15 14 20 34 19 23 -1 52 4 107 18 24 7 76 39 102 63 15
14 49 37 74 49 25 13 51 30 58 39 12 14 89 42 236 85 39 11 97 28 130 37 33
10 64 17 69 16 4 -2 14 3 22 9 8 6 14 9 14 6 0 -3 21 1 47 9 25 8 59 14 75 14
15 0 28 5 28 11 0 9 4 9 13 0 14 -11 67 -23 157 -36 25 -3 95 -15 155 -26 85
-15 122 -17 160 -10 52 10 216 8 275 -4 45 -9 159 -54 288 -116 58 -27 113
-49 122 -49 9 0 19 -3 22 -6 3 -3 64 -25 135 -49 189 -64 211 -76 311 -159 50
-42 94 -76 97 -76 3 0 5 33 5 74 l0 74 -47 42 c-66 58 -97 72 -337 154 -186
63 -211 73 -208 91 2 11 9 25 16 30 33 26 44 212 45 774 l1 334 -25 42 c-13
24 -37 53 -52 66 -20 17 -28 34 -30 59 -10 220 -14 318 -18 385 -3 69 -10 93
-48 175 -24 52 -46 100 -48 107 -7 21 -100 113 -114 113 -12 0 -13 14 -9 73
15 191 10 210 -74 258 -30 17 -66 42 -81 55 -58 55 -227 114 -245 86 -5 -8
-15 -8 -34 -1 -41 15 -71 48 -84 91 -8 29 -18 40 -43 48 -17 6 -51 28 -75 50
-24 22 -51 42 -60 44 -160 46 -209 70 -336 167 -28 22 -80 51 -115 65 -91 37
-134 60 -185 99 -62 48 -110 59 -309 71 -142 8 -175 12 -204 27 -32 16 -114
19 -149 6 -17 -7 -36 -2 -74 18 -37 19 -69 28 -112 29 -57 2 -67 -1 -171 -57
-60 -33 -131 -65 -156 -72 -35 -9 -65 -29 -116 -77 -90 -83 -126 -114 -182
-153 -25 -18 -48 -35 -51 -38 -3 -3 -25 -18 -50 -34 -25 -15 -93 -74 -151
-131 -58 -57 -110 -104 -115 -104 -16 0 -71 -54 -97 -96 -22 -35 -37 -46 -104
-73 -43 -17 -88 -33 -101 -36 -13 -2 -32 -7 -42 -10 -10 -3 -27 -8 -37 -10
-56 -12 -92 -30 -183 -87 -115 -72 -120 -75 -229 -143 -72 -45 -84 -56 -123
-124 -23 -41 -76 -123 -116 -181 -41 -58 -99 -154 -130 -215 -30 -60 -58 -112
-62 -115 -4 -3 -10 -15 -14 -27 -4 -13 -13 -29 -19 -35 -21 -23 -58 -98 -62
-126 -2 -15 -4 -27 -5 -27 -6 0 -11 -83 -14 -224 -3 -125 -1 -174 10 -205 33
-92 156 -327 197 -372 98 -111 227 -244 296 -303 13 -12 37 -21 53 -21 15 0
28 -3 28 -7 0 -5 -28 -36 -63 -70 -35 -34 -83 -87 -108 -119 l-44 -57 2 -110
c1 -123 9 -139 87 -175 22 -11 54 -32 69 -46 15 -14 36 -27 45 -27 66 -6 100
-5 120 2 42 16 102 -62 102 -133 0 -17 10 -46 21 -65 14 -22 23 -55 24 -87 1
-28 6 -67 10 -85 4 -19 9 -50 10 -70 2 -20 4 -36 5 -36 1 0 3 -18 4 -40 2 -22
10 -54 19 -72 26 -50 23 -55 -43 -68 -46 -9 -105 -54 -161 -122 -16 -20 -61
-129 -56 -137 3 -7 -195 -218 -320 -341 -91 -89 -173 -188 -173 -209 0 -2 -26
-48 -58 -103 -32 -54 -80 -138 -106 -188 -27 -49 -79 -136 -117 -193 -38 -57
-69 -109 -69 -117 0 -7 -21 -22 -47 -34 -114 -52 -142 -79 -159 -154 -9 -40
-14 -55 -34 -112 -13 -37 -20 -81 -20 -115 1 -30 1 -60 1 -66 -1 -11 -120
-174 -146 -200 -7 -8 -18 -14 -24 -14 -6 0 -11 -4 -11 -8 0 -10 -58 -38 -120
-59 -95 -31 -130 -46 -130 -57 0 -6 -13 -39 -30 -74 -16 -34 -32 -86 -36 -115
-4 -28 -17 -79 -30 -111 -13 -33 -24 -65 -24 -72 0 -23 -114 -42 -126 -22 -4
6 -9 209 -11 452 -4 622 -4 613 -36 675 -30 56 -34 90 -22 196 4 39 8 147 8
242 l1 172 -30 42 c-16 23 -33 49 -39 58 -5 9 -12 18 -15 21 -3 3 -21 25 -40
50 -35 45 -74 92 -97 116 -7 7 -13 17 -13 23 0 5 -6 14 -13 18 -8 4 -17 15
-20 23 -4 8 -17 31 -29 50 -12 19 -41 71 -65 115 -23 44 -43 77 -43 74 0 -3
-33 26 -72 66 -40 39 -100 94 -133 121 -33 27 -65 54 -71 59 -6 6 -14 39 -18
74 -15 137 -37 225 -70 281 -18 30 -51 89 -72 130 -21 41 -41 77 -44 80 -3 3
-16 29 -29 57 -14 29 -26 51 -29 48 -2 -2 -12 5 -21 16 -9 11 -25 21 -36 23
-11 1 -24 12 -30 24 -6 14 -19 22 -35 23 -14 0 -34 2 -45 5 -11 2 -31 6 -45 8
-49 8 -60 19 -101 99 -23 45 -53 96 -67 112 -51 62 -180 144 -250 159 -15 4
-38 9 -52 12 -30 6 -132 6 -179 -1 l-34 -4 6 62 c4 34 13 81 21 104 9 22 17
52 20 65 2 12 12 51 21 85 9 35 18 73 20 85 3 13 7 34 10 48 28 144 39 264 38
425 0 72 -3 148 -6 170 -2 22 -2 44 1 50 3 5 7 16 8 25 1 8 5 26 8 40 36 155
46 242 34 289 -9 36 -7 47 25 110 19 38 39 76 43 83 14 22 13 40 -1 68 -18 35
-80 97 -105 105 -17 5 -60 96 -60 127 0 6 -4 25 -9 42 -15 48 -36 120 -37 126
0 3 -6 19 -13 35 -7 17 -11 31 -9 32 8 5 -68 73 -81 73 -16 0 -26 14 -84 120
-17 30 -34 57 -39 58 -4 2 -8 8 -8 13 0 15 -99 140 -149 187 -66 63 -221 165
-221 146 0 -4 -6 -2 -12 3 -21 17 -85 36 -185 55 -40 7 -53 14 -53 27 0 18
-45 64 -112 114 -21 15 -38 25 -38 22 0 -4 -13 3 -29 14 -16 12 -35 21 -43 21
-8 0 -18 4 -24 9 -11 12 -114 42 -114 34 0 -3 -12 11 -26 32 -37 56 -107 125
-125 125 -8 0 -19 4 -25 9 -8 8 -66 29 -101 38 -7 2 -21 5 -30 7 -10 3 -18 5
-18 6 0 4 -283 9 -286 5z m206 -128 c17 -1 32 -4 35 -7 3 -3 40 -16 83 -30 42
-13 77 -26 77 -30 0 -3 16 -12 36 -19 19 -7 33 -15 30 -18 -3 -3 4 -23 15 -45
17 -34 46 -55 84 -62 22 -4 141 -50 149 -58 6 -4 17 -8 25 -8 16 0 91 -78 91
-95 0 -6 9 -21 20 -33 12 -12 18 -22 14 -22 -4 0 10 -15 31 -32 21 -18 48 -42
59 -53 17 -17 47 -34 63 -37 1 0 26 -13 55 -29 29 -16 61 -32 71 -35 9 -4 17
-10 17 -15 0 -5 5 -9 10 -9 16 0 99 -63 100 -76 1 -32 53 -133 88 -170 41 -44
68 -104 58 -129 -3 -8 -2 -16 2 -19 4 -3 9 -20 10 -38 3 -46 8 -68 23 -103 19
-47 25 -91 16 -115 -5 -13 -12 -53 -32 -165 -2 -16 -7 -41 -11 -55 -14 -59
-32 -153 -39 -200 -1 -8 -5 -22 -8 -30 -4 -8 -8 -24 -10 -36 -3 -26 -32 -72
-63 -100 -12 -12 -27 -39 -33 -61 -10 -35 -14 -39 -43 -38 -37 1 -35 -7 -39
130 -4 144 -23 179 -120 215 -46 18 -71 21 -115 16 -30 -3 -59 -8 -62 -10 -4
-2 -28 -7 -55 -10 -47 -7 -267 -61 -271 -68 -1 -1 -10 -26 -19 -54 -18 -50
-25 -157 -26 -354 -2 -432 -4 -422 95 -506 31 -27 61 -54 68 -59 18 -17 146
-99 206 -133 54 -30 57 -34 78 -102 12 -39 22 -79 22 -89 0 -10 8 -29 18 -42
21 -26 33 -66 37 -116 2 -28 -1 -33 -20 -33 -33 0 -83 -19 -146 -57 -88 -53
-100 -52 -138 8 -17 28 -31 53 -31 55 0 18 -133 205 -210 294 -81 95 -79 94
-155 142 -62 39 -108 66 -305 176 -75 42 -94 52 -107 52 -6 0 -13 3 -15 8 -5
11 -199 100 -235 107 -17 3 -57 22 -90 42 l-58 37 -220 2 c-126 2 -239 -1
-265 -7 -25 -6 -53 -12 -62 -14 -10 -2 -75 -22 -146 -44 -71 -23 -133 -41
-138 -41 -11 0 -86 -39 -94 -49 -9 -11 -84 -59 -112 -72 -16 -7 -28 -16 -28
-20 0 -10 -46 -20 -64 -13 -14 5 -16 44 -15 328 1 176 1 368 -1 426 -2 111 4
140 26 140 8 0 14 3 14 8 0 4 17 18 37 32 46 31 78 57 116 93 26 25 29 32 22
65 -16 76 -12 157 11 247 13 50 28 98 34 107 5 10 10 24 10 32 0 18 42 62 67
70 10 4 26 23 35 44 9 20 29 64 43 97 15 33 32 74 40 90 32 71 65 159 65 172
0 7 4 13 9 13 5 0 12 11 15 25 4 14 11 25 16 25 6 0 10 4 10 9 0 11 85 96 122
123 15 10 28 16 28 12 0 -4 7 1 15 12 8 10 15 15 15 11 0 -5 13 1 29 12 16 12
34 21 39 21 6 0 18 7 26 16 9 9 22 17 29 18 23 5 87 40 87 48 0 4 6 8 14 8 8
0 22 7 30 16 9 8 16 13 16 10 0 -3 25 8 55 24 30 16 59 29 63 28 4 -1 25 6 47
16 39 17 84 33 115 41 34 8 67 24 79 39 7 9 19 16 26 16 7 0 16 7 19 16 3 8
10 12 16 9 5 -3 10 -2 10 3 0 16 93 58 135 61 22 2 41 4 42 5 3 2 116 -2 188
-7z m6971 -122 c82 -50 109 -55 278 -51 116 2 160 7 189 20 85 38 225 11 425
-80 41 -19 76 -34 79 -34 21 0 443 -220 465 -242 15 -15 35 -44 45 -65 38 -82
190 -196 273 -205 15 -2 25 -9 25 -20 0 -9 16 -33 35 -54 51 -56 121 -147 150
-193 13 -23 52 -70 86 -105 34 -35 76 -84 93 -109 34 -50 71 -141 69 -172 -1
-24 11 -169 17 -205 2 -14 6 -46 9 -71 11 -89 37 -194 60 -244 42 -87 67 -147
73 -169 9 -39 12 -726 2 -732 -5 -3 -10 3 -10 13 -1 10 -2 32 -4 48 -1 17 -6
95 -9 175 -10 193 -14 244 -26 275 -5 14 -9 29 -9 33 1 4 0 12 -1 17 -1 6 -3
15 -4 20 -13 59 -21 74 -42 84 -41 18 -73 14 -79 -11 -3 -13 -14 -61 -25 -107
-10 -46 -17 -87 -15 -91 2 -3 6 -27 9 -52 6 -47 14 -102 21 -147 2 -13 7 -45
11 -70 3 -25 8 -57 10 -71 2 -14 6 -50 10 -80 3 -30 7 -66 9 -80 2 -14 7 -47
10 -75 4 -27 8 -57 10 -65 10 -33 -9 -41 -51 -20 -39 21 -53 24 -128 35 -70
10 -100 14 -132 14 -39 1 -66 21 -69 52 -8 77 -41 270 -59 344 -23 101 -30
117 -53 126 -40 15 -73 11 -74 -8 0 -10 -3 -27 -5 -38 -3 -11 -8 -67 -11 -124
-4 -80 -2 -105 8 -112 11 -6 9 -21 -10 -79 -17 -55 -20 -74 -11 -85 9 -11 5
-15 -23 -20 -74 -14 -73 -15 -73 178 1 185 -6 225 -47 252 -33 21 -83 4 -92
-33 -13 -52 -13 -61 -1 -109 7 -29 9 -64 5 -88 -4 -22 -10 -71 -14 -110 -3
-38 -8 -71 -10 -74 -3 -2 -24 2 -48 8 -38 11 -55 9 -142 -13 -55 -14 -126 -34
-157 -45 -34 -11 -60 -16 -63 -10 -4 5 39 64 93 131 96 119 113 147 162 270
17 45 20 64 13 85 -13 36 -13 190 -1 223 9 25 -6 105 -23 124 -5 6 -9 16 -9
24 0 8 -29 74 -65 148 -84 170 -130 208 -185 150 -38 -41 -37 -44 91 -311 l42
-90 0 -155 -1 -155 -63 -110 c-35 -60 -85 -132 -111 -160 -78 -84 -97 -108
-117 -150 -22 -47 -42 -66 -95 -91 -28 -13 -46 -31 -60 -61 -19 -39 -24 -42
-61 -42 -72 -1 -88 8 -82 43 6 39 39 116 49 116 5 0 8 5 8 11 0 13 54 84 91
119 15 14 39 50 54 80 15 30 31 57 35 60 13 9 40 69 40 89 0 33 -20 67 -51 85
-29 17 -30 17 -69 -11 -36 -25 -51 -53 -61 -108 -3 -19 -56 -110 -121 -210
-38 -58 -108 -143 -166 -203 -55 -57 -108 -119 -118 -138 -18 -33 -18 -34 4
-63 20 -27 20 -30 4 -36 -26 -9 -67 -48 -97 -94 -15 -22 -34 -41 -41 -41 -11
0 -37 -33 -39 -50 -1 -14 -41 -70 -50 -71 -5 0 -17 -2 -26 -4 -15 -3 -17 11
-18 114 -3 264 -21 331 -109 413 -35 32 -45 49 -51 88 -7 41 -6 89 2 96 1 2
14 5 27 7 43 9 59 18 66 40 4 12 23 38 44 58 20 20 40 44 43 53 4 9 17 20 31
25 20 8 23 16 23 53 0 24 -5 46 -10 49 -22 15 -92 -2 -114 -26 -12 -14 -27
-25 -33 -25 -5 0 -10 -4 -10 -9 0 -15 -69 -42 -119 -48 l-48 -5 3 44 c17 251
18 255 56 336 17 37 150 225 182 258 6 6 29 32 50 58 l40 48 13 -25 c16 -31
58 -46 99 -36 23 7 37 21 56 56 54 100 72 180 57 259 -5 27 -12 67 -14 89 -12
93 -24 117 -72 140 -35 17 -72 8 -74 -18 -5 -46 -4 -76 5 -100 8 -20 7 -33 -2
-48 -8 -12 -10 -25 -4 -32 10 -14 10 -38 -2 -90 -6 -27 -5 -46 4 -62 11 -21
10 -27 -13 -55 l-26 -31 1 168 c0 92 -2 182 -5 200 -20 108 -65 205 -120 256
-17 16 -63 44 -102 63 -38 19 -83 45 -100 58 -24 20 -27 26 -17 39 10 12 10
18 -3 30 -18 19 -36 16 -118 -17 -34 -13 -91 -32 -127 -42 -71 -19 -115 -52
-125 -95 -6 -24 -3 -27 32 -34 47 -10 47 -10 108 0 28 5 52 8 55 8 3 -1 25 -4
49 -8 44 -6 133 -37 174 -59 93 -50 123 -91 113 -152 -8 -44 -17 -132 -21
-199 -4 -79 -6 -81 -15 -14 -6 52 -45 151 -69 181 -6 7 -22 28 -37 46 -14 18
-56 50 -93 72 -69 40 -107 47 -181 36 -45 -6 -121 -15 -190 -22 -76 -7 -180
-32 -207 -49 -26 -17 -44 -102 -24 -115 16 -10 135 -2 185 12 49 13 62 16 144
23 55 5 63 4 60 -11 -2 -10 -36 -29 -88 -50 -47 -19 -85 -34 -85 -34 0 1 -12
-3 -26 -9 -89 -33 -208 -74 -230 -77 -14 -3 -111 -27 -215 -55 -226 -60 -193
-51 -284 -79 -41 -13 -80 -25 -87 -26 -36 -7 -304 -99 -341 -117 -54 -26 -112
-80 -112 -104 0 -10 11 -36 25 -58 13 -22 25 -47 25 -55 0 -9 37 -83 83 -165
76 -137 122 -221 213 -389 35 -64 36 -93 2 -75 -19 10 -49 19 -78 22 -19 2
-47 30 -131 127 -35 41 -66 77 -69 80 -45 43 -108 136 -144 211 -75 161 -104
227 -101 231 2 2 7 19 10 38 3 19 13 62 21 95 9 33 17 67 19 75 2 8 8 35 15
60 7 25 14 52 15 60 15 62 39 106 122 215 13 17 40 64 90 155 26 47 66 107 90
134 23 26 51 71 60 99 14 40 31 61 82 103 35 29 79 60 98 69 19 9 42 24 52 34
16 16 170 81 276 116 28 9 57 22 65 29 8 7 30 19 48 26 17 7 45 27 60 45 16
17 40 35 53 38 13 3 34 15 45 25 11 11 61 47 110 81 49 33 139 109 201 168 96
94 135 123 295 219 100 62 208 122 238 135 30 13 69 31 85 41 17 10 31 18 31
18 1 0 28 -16 60 -35z m-5586 -813 c0 -5 9 -17 20 -27 11 -10 18 -20 16 -22
-2 -2 11 -21 30 -41 22 -24 41 -61 55 -107 11 -38 25 -75 31 -82 5 -7 16 -40
24 -75 8 -35 16 -74 20 -88 3 -13 9 -29 14 -35 8 -10 10 -16 10 -33 0 -9 59
-45 78 -48 25 -4 26 -14 4 -35 -51 -47 -54 -57 -67 -239 -3 -41 -7 -93 -9
-115 -2 -22 -9 -62 -15 -90 -23 -94 -26 -135 -15 -220 12 -96 10 -144 -9 -265
-23 -141 -24 -166 -9 -203 8 -19 9 -34 3 -46 -27 -49 -106 -345 -116 -429 -4
-41 -28 -56 -66 -43 -19 6 -49 9 -67 6 -53 -7 -106 -15 -132 -20 -14 -3 -44
-7 -68 -10 -23 -2 -46 -7 -51 -9 -5 -3 -22 -1 -38 5 -29 10 -42 32 -96 159
-43 102 -51 163 -29 227 15 47 63 103 109 126 17 9 35 30 43 49 7 18 23 60 37
94 l24 60 -30 78 c-17 42 -38 88 -47 101 -9 14 -13 25 -10 25 4 0 4 6 -1 13
-4 6 -8 15 -9 20 -1 4 -3 9 -4 12 -15 34 27 175 52 175 5 0 8 6 8 13 0 15 28
44 45 48 36 8 45 12 45 20 0 5 6 9 13 9 7 0 23 9 35 20 12 11 24 20 27 20 8 0
53 49 72 77 16 24 11 99 -8 136 -5 9 -6 17 -1 17 5 0 9 6 10 13 3 33 13 91 18
98 5 9 8 22 19 79 3 14 13 55 24 93 11 37 17 67 15 67 -3 0 1 10 7 22 27 50
23 95 -18 228 -2 8 -4 17 -4 20 0 3 -6 12 -13 20 -33 38 -42 124 -16 155 10
12 14 12 26 0 8 -7 14 -18 14 -23z m5217 -770 c3 -13 3 -50 0 -83 -6 -65 -34
-122 -89 -179 -32 -32 -57 -100 -85 -227 -7 -29 37 -74 66 -68 18 3 20 0 16
-33 -12 -102 -15 -144 -16 -188 0 -96 11 -207 28 -263 9 -31 17 -58 18 -61 16
-71 26 -125 30 -168 3 -32 17 -73 35 -105 16 -29 29 -56 29 -62 0 -5 22 -16
49 -23 42 -12 49 -17 51 -40 0 -15 3 -43 5 -62 9 -83 22 -258 25 -331 1 -38
22 -69 59 -84 l22 -10 -22 -26 c-13 -14 -36 -29 -53 -33 -16 -3 -41 -9 -55
-12 -53 -11 -210 -57 -315 -92 -60 -20 -112 -36 -115 -37 -25 -4 -315 -122
-400 -162 -61 -29 -90 -36 -156 -40 l-80 -5 -22 143 c-13 79 -25 160 -28 179
-8 63 -14 81 -39 118 -13 20 -29 57 -35 82 -18 70 -12 66 -160 86 -14 2 -52 6
-85 9 -103 9 -182 82 -169 155 3 19 9 37 12 40 4 3 25 27 47 55 22 27 79 89
128 137 80 80 144 168 152 208 2 9 6 52 10 96 3 43 8 104 12 134 3 30 6 72 7
93 1 30 7 41 32 56 17 10 52 50 79 87 27 38 86 117 132 176 93 119 105 153 69
187 l-22 21 -38 -26 c-41 -28 -49 -35 -123 -105 -40 -38 -56 -47 -98 -52 -47
-6 -65 -9 -125 -22 -37 -8 -61 14 -63 59 -2 34 1 40 23 46 61 18 469 133 510
144 25 7 70 29 102 49 44 29 164 73 206 76 42 4 122 26 123 35 1 6 2 16 4 21
1 6 3 26 3 45 2 31 6 36 29 38 31 2 163 54 195 76 19 13 23 13 50 -7 16 -12
31 -32 35 -45z m-5880 -46 c2 -2 20 0 40 6 55 15 72 17 77 10 5 -9 16 -76 21
-132 3 -25 7 -58 9 -75 7 -45 24 -243 30 -350 2 -31 14 -73 33 -110 32 -65 44
-101 48 -152 3 -31 -1 -34 -53 -58 -31 -14 -71 -41 -88 -60 l-31 -34 -79 41
c-43 22 -80 45 -82 49 -2 5 -10 9 -18 9 -15 0 -102 58 -133 89 -17 17 -24 39
-46 151 -6 30 -7 407 -1 436 2 12 7 45 11 75 4 30 8 55 10 57 1 2 45 18 96 36
71 24 101 31 123 25 16 -5 31 -10 33 -13z m6069 -80 c-4 -31 -20 -81 -40 -122
-18 -38 -37 -79 -40 -91 -6 -20 -23 -28 -42 -20 -3 1 -15 -15 -26 -37 -12 -24
-23 -35 -29 -29 -16 16 16 86 73 157 49 62 102 171 91 189 -2 4 1 7 7 7 7 0 9
-18 6 -54z m-1591 -280 c-30 -40 -29 -57 16 -189 36 -106 61 -149 94 -167 13
-7 27 -22 31 -33 8 -26 13 -90 7 -100 -5 -9 -63 77 -63 93 0 6 -3 10 -8 10 -4
0 -13 15 -21 33 -8 17 -17 34 -21 37 -4 3 -34 60 -68 127 -45 88 -61 130 -58
149 3 15 6 27 8 28 2 1 16 12 32 24 16 12 40 22 53 22 l24 0 -26 -34z m-6035
-340 c14 -2 41 -7 60 -10 19 -3 53 -11 75 -16 22 -6 45 -12 50 -13 26 -6 90
-34 195 -85 63 -31 117 -57 120 -57 3 -1 23 -9 45 -19 22 -10 58 -25 80 -34
35 -14 140 -77 155 -92 3 -3 25 -21 50 -40 99 -75 226 -216 318 -352 50 -75
92 -141 92 -146 0 -5 -6 -15 -14 -21 -16 -13 -54 5 -87 41 -9 10 -20 18 -24
18 -4 0 -19 8 -33 19 -15 10 -70 41 -122 69 -104 55 -186 83 -480 165 -30 9
-80 23 -110 31 -30 9 -107 30 -170 47 -63 17 -122 33 -130 36 -8 3 -21 7 -29
9 -8 1 -26 6 -40 9 -14 4 -28 7 -31 7 -3 0 -16 5 -30 10 -52 20 -80 23 -245
23 -176 -1 -258 -7 -335 -24 -38 -9 -400 -126 -453 -146 -15 -6 -17 -3 -12 22
2 17 10 41 17 54 20 37 81 124 90 127 4 2 8 8 8 14 0 6 11 20 23 32 13 11 41
37 63 57 48 44 161 118 192 125 12 4 22 10 22 15 0 5 9 9 20 9 11 0 20 5 20
12 0 6 3 9 6 5 4 -3 19 0 35 9 16 8 29 12 29 9 0 -3 10 0 22 6 12 6 89 29 172
49 137 35 161 38 256 35 58 -2 116 -6 130 -9z m8177 -841 c0 -11 -11 -15 -36
-15 l-36 1 23 19 c25 21 49 18 49 -5z m-4704 -1109 c37 -19 74 -42 83 -50 8
-9 18 -16 22 -16 13 0 77 -65 113 -115 33 -46 82 -133 82 -145 -1 -10 100
-132 153 -185 6 -6 15 -27 19 -46 8 -37 39 -87 67 -107 10 -7 18 -21 18 -31 0
-10 12 -27 28 -36 67 -44 86 -85 67 -153 -7 -28 -11 -52 -10 -54 2 -2 6 -41
10 -88 3 -47 8 -102 11 -122 2 -21 6 -92 9 -157 4 -103 9 -128 32 -178 21 -47
26 -70 24 -123 -3 -65 -3 -95 0 -180 1 -25 -1 -76 -5 -115 -4 -38 -9 -90 -11
-115 -2 -25 -6 -85 -11 -135 -9 -109 -9 -187 1 -280 8 -85 8 -78 6 -92 -1 -14
-20 -11 -95 14 -50 16 -55 21 -61 53 -4 19 -28 114 -55 210 -26 96 -53 202
-59 235 -6 33 -13 70 -16 83 -3 12 -7 32 -10 45 -33 161 -37 170 -124 297 -47
69 -90 131 -97 137 -43 44 -57 85 -60 181 -2 53 -6 149 -9 212 -4 63 -6 127
-5 142 0 15 -11 59 -24 97 -13 38 -27 105 -31 148 -15 187 -17 214 -31 323 -3
25 -7 59 -8 75 -2 17 -10 46 -18 65 -8 19 -16 38 -16 43 -1 4 -10 16 -19 26
-10 10 -29 31 -42 45 -13 14 -32 26 -42 26 -18 0 -18 1 1 33 11 17 20 40 20
50 0 25 17 21 93 -17z"/>
</g>
</svg>
