<svg width="252" height="49" viewBox="0 0 252 49" fill="none" xmlns="http://www.w3.org/2000/svg">
<path d="M102.508 29H100.641V23.8438H95.375V29H93.5V17.5781H95.375V22.25H100.641V17.5781H102.508V29ZM113 24.6562C113 25.375 112.906 26.013 112.719 26.5703C112.531 27.1276 112.258 27.599 111.898 27.9844C111.539 28.3646 111.107 28.6562 110.602 28.8594C110.096 29.0573 109.526 29.1562 108.891 29.1562C108.297 29.1562 107.753 29.0573 107.258 28.8594C106.763 28.6562 106.333 28.3646 105.969 27.9844C105.609 27.599 105.331 27.1276 105.133 26.5703C104.935 26.013 104.836 25.375 104.836 24.6562C104.836 23.7031 105 22.8958 105.328 22.2344C105.661 21.5677 106.135 21.0599 106.75 20.7109C107.365 20.362 108.096 20.1875 108.945 20.1875C109.742 20.1875 110.445 20.362 111.055 20.7109C111.664 21.0599 112.141 21.5677 112.484 22.2344C112.828 22.901 113 23.7083 113 24.6562ZM106.727 24.6562C106.727 25.2865 106.802 25.8255 106.953 26.2734C107.109 26.7214 107.349 27.0651 107.672 27.3047C107.995 27.5391 108.411 27.6562 108.922 27.6562C109.432 27.6562 109.849 27.5391 110.172 27.3047C110.495 27.0651 110.732 26.7214 110.883 26.2734C111.034 25.8255 111.109 25.2865 111.109 24.6562C111.109 24.026 111.034 23.4922 110.883 23.0547C110.732 22.612 110.495 22.276 110.172 22.0469C109.849 21.8125 109.43 21.6953 108.914 21.6953C108.154 21.6953 107.599 21.9505 107.25 22.4609C106.901 22.9714 106.727 23.7031 106.727 24.6562ZM122.648 20.3516V29H121.203L120.953 27.8359H120.852C120.669 28.1328 120.438 28.3802 120.156 28.5781C119.875 28.7708 119.562 28.9141 119.219 29.0078C118.875 29.1068 118.513 29.1562 118.133 29.1562C117.482 29.1562 116.924 29.0469 116.461 28.8281C116.003 28.6042 115.651 28.2604 115.406 27.7969C115.161 27.3333 115.039 26.7344 115.039 26V20.3516H116.883V25.6562C116.883 26.3281 117.018 26.8307 117.289 27.1641C117.565 27.4974 117.992 27.6641 118.57 27.6641C119.128 27.6641 119.57 27.5495 119.898 27.3203C120.227 27.0911 120.458 26.7526 120.594 26.3047C120.734 25.8568 120.805 25.3073 120.805 24.6562V20.3516H122.648ZM127.258 29L123.969 20.3516H125.914L127.695 25.4297C127.81 25.7526 127.914 26.1016 128.008 26.4766C128.102 26.8516 128.167 27.1667 128.203 27.4219H128.266C128.302 27.1562 128.372 26.8385 128.477 26.4688C128.581 26.0938 128.688 25.7474 128.797 25.4297L130.578 20.3516H132.516L129.227 29H127.258ZM137.219 20.1875C138.312 20.1875 139.138 20.4297 139.695 20.9141C140.258 21.3984 140.539 22.1536 140.539 23.1797V29H139.234L138.883 27.7734H138.82C138.576 28.0859 138.323 28.3438 138.062 28.5469C137.802 28.75 137.5 28.901 137.156 29C136.818 29.1042 136.404 29.1562 135.914 29.1562C135.398 29.1562 134.938 29.0625 134.531 28.875C134.125 28.6823 133.805 28.3906 133.57 28C133.336 27.6094 133.219 27.1146 133.219 26.5156C133.219 25.625 133.549 24.9557 134.211 24.5078C134.878 24.0599 135.883 23.8125 137.227 23.7656L138.727 23.7109V23.2578C138.727 22.6589 138.586 22.2318 138.305 21.9766C138.029 21.7214 137.638 21.5938 137.133 21.5938C136.701 21.5938 136.281 21.6562 135.875 21.7812C135.469 21.9062 135.073 22.0599 134.688 22.2422L134.094 20.9453C134.516 20.7214 134.995 20.5391 135.531 20.3984C136.073 20.2578 136.635 20.1875 137.219 20.1875ZM138.719 24.8672L137.602 24.9062C136.685 24.9375 136.042 25.0938 135.672 25.375C135.302 25.6562 135.117 26.0417 135.117 26.5312C135.117 26.9583 135.245 27.2708 135.5 27.4688C135.755 27.6615 136.091 27.7578 136.508 27.7578C137.143 27.7578 137.669 27.5781 138.086 27.2188C138.508 26.8542 138.719 26.3203 138.719 25.6172V24.8672ZM148.922 26.5312C148.922 27.099 148.784 27.5781 148.508 27.9688C148.232 28.3594 147.828 28.6562 147.297 28.8594C146.771 29.0573 146.125 29.1562 145.359 29.1562C144.755 29.1562 144.234 29.112 143.797 29.0234C143.365 28.9401 142.956 28.8099 142.57 28.6328V27.0469C142.982 27.2396 143.443 27.4062 143.953 27.5469C144.469 27.6875 144.956 27.7578 145.414 27.7578C146.018 27.7578 146.453 27.6641 146.719 27.4766C146.984 27.2839 147.117 27.0286 147.117 26.7109C147.117 26.5234 147.062 26.3568 146.953 26.2109C146.849 26.0599 146.651 25.9062 146.359 25.75C146.073 25.5885 145.651 25.3958 145.094 25.1719C144.547 24.9531 144.086 24.7344 143.711 24.5156C143.336 24.2969 143.052 24.0339 142.859 23.7266C142.667 23.4141 142.57 23.0156 142.57 22.5312C142.57 21.7656 142.872 21.1849 143.477 20.7891C144.086 20.388 144.891 20.1875 145.891 20.1875C146.422 20.1875 146.922 20.2422 147.391 20.3516C147.865 20.4557 148.328 20.6094 148.781 20.8125L148.203 22.1953C147.812 22.0234 147.419 21.8828 147.023 21.7734C146.633 21.6589 146.234 21.6016 145.828 21.6016C145.354 21.6016 144.992 21.6745 144.742 21.8203C144.497 21.9661 144.375 22.1745 144.375 22.4453C144.375 22.6484 144.435 22.8203 144.555 22.9609C144.674 23.1016 144.88 23.2422 145.172 23.3828C145.469 23.5234 145.88 23.6979 146.406 23.9062C146.922 24.1042 147.367 24.3125 147.742 24.5312C148.122 24.7448 148.414 25.0078 148.617 25.3203C148.82 25.6328 148.922 26.0365 148.922 26.5312ZM154.125 27.6719C154.365 27.6719 154.602 27.651 154.836 27.6094C155.07 27.5625 155.284 27.5078 155.477 27.4453V28.8359C155.273 28.9245 155.01 29 154.688 29.0625C154.365 29.125 154.029 29.1562 153.68 29.1562C153.19 29.1562 152.75 29.0755 152.359 28.9141C151.969 28.7474 151.659 28.4635 151.43 28.0625C151.201 27.6615 151.086 27.1068 151.086 26.3984V21.75H149.906V20.9297L151.172 20.2812L151.773 18.4297H152.93V20.3516H155.406V21.75H152.93V26.375C152.93 26.8125 153.039 27.138 153.258 27.3516C153.477 27.5651 153.766 27.6719 154.125 27.6719ZM161.4 19.8828V22.0801C161.4 22.334 161.393 22.584 161.377 22.8301C161.365 23.0723 161.354 23.2617 161.342 23.3984H161.4C161.576 23.1172 161.82 22.8809 162.133 22.6895C162.449 22.4941 162.854 22.3965 163.346 22.3965C164.115 22.3965 164.734 22.6797 165.203 23.2461C165.672 23.8086 165.906 24.6426 165.906 25.748C165.906 26.4824 165.799 27.0996 165.584 27.5996C165.369 28.0996 165.066 28.4785 164.676 28.7363C164.289 28.9902 163.834 29.1172 163.311 29.1172C162.818 29.1172 162.42 29.0273 162.115 28.8477C161.814 28.6641 161.578 28.4512 161.406 28.209H161.307L161.055 29H160.023V19.8828H161.4ZM162.982 23.5156C162.592 23.5156 162.281 23.5938 162.051 23.75C161.824 23.9062 161.66 24.1406 161.559 24.4531C161.457 24.7617 161.404 25.1543 161.4 25.6309V25.7539C161.4 26.4766 161.514 27.0293 161.74 27.4121C161.971 27.7949 162.389 27.9863 162.994 27.9863C163.475 27.9863 163.844 27.793 164.102 27.4062C164.359 27.0156 164.488 26.457 164.488 25.7305C164.488 24.9961 164.359 24.4434 164.102 24.0723C163.848 23.7012 163.475 23.5156 162.982 23.5156ZM168.877 22.5137V29H167.5V22.5137H168.877ZM168.197 20.0293C168.408 20.0293 168.59 20.0859 168.742 20.1992C168.898 20.3125 168.977 20.5078 168.977 20.7852C168.977 21.0586 168.898 21.2539 168.742 21.3711C168.59 21.4844 168.408 21.541 168.197 21.541C167.979 21.541 167.793 21.4844 167.641 21.3711C167.492 21.2539 167.418 21.0586 167.418 20.7852C167.418 20.5078 167.492 20.3125 167.641 20.1992C167.793 20.0859 167.979 20.0293 168.197 20.0293ZM170.201 31.8828C169.998 31.8828 169.805 31.8672 169.621 31.8359C169.438 31.8086 169.283 31.7754 169.158 31.7363V30.6348C169.291 30.6738 169.42 30.7031 169.545 30.7227C169.67 30.7422 169.812 30.752 169.973 30.752C170.227 30.752 170.436 30.6816 170.6 30.541C170.768 30.4004 170.852 30.1328 170.852 29.7383V22.5137H172.229V29.8613C172.229 30.2559 172.158 30.6055 172.018 30.9102C171.881 31.2148 171.662 31.4531 171.361 31.625C171.064 31.7969 170.678 31.8828 170.201 31.8828ZM170.77 20.7852C170.77 20.5078 170.844 20.3125 170.992 20.1992C171.145 20.0859 171.33 20.0293 171.549 20.0293C171.76 20.0293 171.941 20.0859 172.094 20.1992C172.25 20.3125 172.328 20.5078 172.328 20.7852C172.328 21.0586 172.25 21.2539 172.094 21.3711C171.941 21.4844 171.76 21.541 171.549 21.541C171.33 21.541 171.145 21.4844 170.992 21.3711C170.844 21.2539 170.77 21.0586 170.77 20.7852ZM187.109 23.1797C187.109 24.4661 186.87 25.5417 186.391 26.4062C185.911 27.2656 185.216 27.9141 184.305 28.3516C183.393 28.7839 182.294 29 181.008 29H177.836V17.5781H181.352C182.534 17.5781 183.555 17.7917 184.414 18.2188C185.273 18.6406 185.938 19.2682 186.406 20.1016C186.875 20.9297 187.109 21.9557 187.109 23.1797ZM185.156 23.2344C185.156 22.2969 185.008 21.526 184.711 20.9219C184.419 20.3177 183.987 19.8698 183.414 19.5781C182.846 19.2812 182.146 19.1328 181.312 19.1328H179.711V27.4297H181.039C182.419 27.4297 183.451 27.0781 184.133 26.375C184.815 25.6719 185.156 24.625 185.156 23.2344ZM192.828 20.1875C193.599 20.1875 194.26 20.3464 194.812 20.6641C195.365 20.9818 195.789 21.4323 196.086 22.0156C196.383 22.599 196.531 23.2969 196.531 24.1094V25.0938H190.758C190.779 25.9323 191.003 26.5781 191.43 27.0312C191.862 27.4844 192.466 27.7109 193.242 27.7109C193.794 27.7109 194.289 27.6589 194.727 27.5547C195.169 27.4453 195.625 27.2865 196.094 27.0781V28.5703C195.661 28.7734 195.221 28.9219 194.773 29.0156C194.326 29.1094 193.789 29.1562 193.164 29.1562C192.315 29.1562 191.568 28.9922 190.922 28.6641C190.281 28.3307 189.779 27.8359 189.414 27.1797C189.055 26.5234 188.875 25.7083 188.875 24.7344C188.875 23.7656 189.039 22.9427 189.367 22.2656C189.695 21.5885 190.156 21.0729 190.75 20.7188C191.344 20.3646 192.036 20.1875 192.828 20.1875ZM192.828 21.5703C192.25 21.5703 191.781 21.7578 191.422 22.1328C191.068 22.5078 190.859 23.0573 190.797 23.7812H194.734C194.729 23.349 194.656 22.9661 194.516 22.6328C194.38 22.2995 194.172 22.0391 193.891 21.8516C193.615 21.6641 193.26 21.5703 192.828 21.5703ZM208.375 20.1875C209.344 20.1875 210.073 20.4375 210.562 20.9375C211.057 21.4375 211.305 22.2396 211.305 23.3438V29H209.469V23.6719C209.469 23.0156 209.341 22.5208 209.086 22.1875C208.831 21.8542 208.443 21.6875 207.922 21.6875C207.193 21.6875 206.667 21.9219 206.344 22.3906C206.026 22.8542 205.867 23.5286 205.867 24.4141V29H204.031V23.6719C204.031 23.2344 203.974 22.8698 203.859 22.5781C203.75 22.2812 203.581 22.0599 203.352 21.9141C203.122 21.763 202.833 21.6875 202.484 21.6875C201.979 21.6875 201.576 21.8021 201.273 22.0312C200.977 22.2604 200.763 22.599 200.633 23.0469C200.503 23.4896 200.438 24.0339 200.438 24.6797V29H198.602V20.3516H200.031L200.289 21.5156H200.391C200.568 21.2135 200.786 20.9661 201.047 20.7734C201.312 20.5755 201.607 20.4297 201.93 20.3359C202.253 20.237 202.589 20.1875 202.938 20.1875C203.583 20.1875 204.128 20.3021 204.57 20.5312C205.013 20.7552 205.344 21.099 205.562 21.5625H205.703C205.974 21.0938 206.352 20.7474 206.836 20.5234C207.32 20.2995 207.833 20.1875 208.375 20.1875ZM217.312 20.1875C218.083 20.1875 218.745 20.3464 219.297 20.6641C219.849 20.9818 220.273 21.4323 220.57 22.0156C220.867 22.599 221.016 23.2969 221.016 24.1094V25.0938H215.242C215.263 25.9323 215.487 26.5781 215.914 27.0312C216.346 27.4844 216.951 27.7109 217.727 27.7109C218.279 27.7109 218.773 27.6589 219.211 27.5547C219.654 27.4453 220.109 27.2865 220.578 27.0781V28.5703C220.146 28.7734 219.706 28.9219 219.258 29.0156C218.81 29.1094 218.273 29.1562 217.648 29.1562C216.799 29.1562 216.052 28.9922 215.406 28.6641C214.766 28.3307 214.263 27.8359 213.898 27.1797C213.539 26.5234 213.359 25.7083 213.359 24.7344C213.359 23.7656 213.523 22.9427 213.852 22.2656C214.18 21.5885 214.641 21.0729 215.234 20.7188C215.828 20.3646 216.521 20.1875 217.312 20.1875ZM217.312 21.5703C216.734 21.5703 216.266 21.7578 215.906 22.1328C215.552 22.5078 215.344 23.0573 215.281 23.7812H219.219C219.214 23.349 219.141 22.9661 219 22.6328C218.865 22.2995 218.656 22.0391 218.375 21.8516C218.099 21.6641 217.745 21.5703 217.312 21.5703ZM227.594 20.1875C228.568 20.1875 229.326 20.4401 229.867 20.9453C230.414 21.4453 230.688 22.25 230.688 23.3594V29H228.852V23.7031C228.852 23.0312 228.714 22.5286 228.438 22.1953C228.161 21.8568 227.734 21.6875 227.156 21.6875C226.318 21.6875 225.734 21.9453 225.406 22.4609C225.083 22.9766 224.922 23.724 224.922 24.7031V29H223.086V20.3516H224.516L224.773 21.5234H224.875C225.062 21.2214 225.294 20.974 225.57 20.7812C225.852 20.5833 226.164 20.4349 226.508 20.3359C226.857 20.237 227.219 20.1875 227.594 20.1875ZM236.477 27.6719C236.716 27.6719 236.953 27.651 237.188 27.6094C237.422 27.5625 237.635 27.5078 237.828 27.4453V28.8359C237.625 28.9245 237.362 29 237.039 29.0625C236.716 29.125 236.38 29.1562 236.031 29.1562C235.542 29.1562 235.102 29.0755 234.711 28.9141C234.32 28.7474 234.01 28.4635 233.781 28.0625C233.552 27.6615 233.438 27.1068 233.438 26.3984V21.75H232.258V20.9297L233.523 20.2812L234.125 18.4297H235.281V20.3516H237.758V21.75H235.281V26.375C235.281 26.8125 235.391 27.138 235.609 27.3516C235.828 27.5651 236.117 27.6719 236.477 27.6719ZM241.422 20.3516V29H239.586V20.3516H241.422ZM240.516 17.0391C240.797 17.0391 241.039 17.1146 241.242 17.2656C241.451 17.4167 241.555 17.6771 241.555 18.0469C241.555 18.4115 241.451 18.6719 241.242 18.8281C241.039 18.9792 240.797 19.0547 240.516 19.0547C240.224 19.0547 239.977 18.9792 239.773 18.8281C239.576 18.6719 239.477 18.4115 239.477 18.0469C239.477 17.6771 239.576 17.4167 239.773 17.2656C239.977 17.1146 240.224 17.0391 240.516 17.0391ZM247.5 20.1875C248.271 20.1875 248.932 20.3464 249.484 20.6641C250.036 20.9818 250.461 21.4323 250.758 22.0156C251.055 22.599 251.203 23.2969 251.203 24.1094V25.0938H245.43C245.451 25.9323 245.674 26.5781 246.102 27.0312C246.534 27.4844 247.138 27.7109 247.914 27.7109C248.466 27.7109 248.961 27.6589 249.398 27.5547C249.841 27.4453 250.297 27.2865 250.766 27.0781V28.5703C250.333 28.7734 249.893 28.9219 249.445 29.0156C248.997 29.1094 248.461 29.1562 247.836 29.1562C246.987 29.1562 246.24 28.9922 245.594 28.6641C244.953 28.3307 244.451 27.8359 244.086 27.1797C243.727 26.5234 243.547 25.7083 243.547 24.7344C243.547 23.7656 243.711 22.9427 244.039 22.2656C244.367 21.5885 244.828 21.0729 245.422 20.7188C246.016 20.3646 246.708 20.1875 247.5 20.1875ZM247.5 21.5703C246.922 21.5703 246.453 21.7578 246.094 22.1328C245.74 22.5078 245.531 23.0573 245.469 23.7812H249.406C249.401 23.349 249.328 22.9661 249.188 22.6328C249.052 22.2995 248.844 22.0391 248.562 21.8516C248.286 21.6641 247.932 21.5703 247.5 21.5703Z" fill="#FFFCF0"/>
<path opacity="0.858" fill-rule="evenodd" clip-rule="evenodd" d="M79.6877 14.2917C79.5927 14.2349 79.5066 14.1631 79.4301 14.0761C79.3632 14.159 79.3013 14.147 79.2462 14.0402C79.2704 14.0163 79.2955 13.9923 79.3197 13.9683C79.0909 13.9721 78.9069 13.8883 78.7678 13.7168C78.7222 13.6486 78.7347 13.5888 78.8046 13.5372C78.7642 13.4707 78.7156 13.4108 78.6575 13.3575C78.5059 13.4732 78.3587 13.5211 78.216 13.5012C77.9709 12.4951 77.8363 11.4651 77.8112 10.4112C77.7377 10.1115 77.6273 9.82405 77.4801 9.5489C77.1917 9.12305 76.848 8.73982 76.4499 8.39913C76.0732 7.73571 75.6074 7.1369 75.0518 6.60261C75.1011 6.55468 75.1497 6.50682 75.199 6.45889C74.1835 6.28125 73.4719 5.73037 73.065 4.8061C73.0087 4.72619 72.9351 4.67826 72.8442 4.66238C72.8442 4.56659 72.7952 4.51866 72.6971 4.51866C71.3669 3.79739 69.9933 3.15065 68.5763 2.57842C68.2001 2.48615 67.8199 2.41429 67.4357 2.36284C67.1585 2.37118 66.901 2.44304 66.6631 2.57842C65.9517 2.67421 65.2405 2.67421 64.5291 2.57842C64.2037 2.43765 63.897 2.26992 63.6093 2.0754C63.2745 2.27668 62.9189 2.4444 62.5423 2.57842C61.7574 3.05752 60.9725 3.53654 60.1876 4.01563C59.7216 4.47073 59.2555 4.92589 58.7895 5.38098C58.3272 5.66483 57.8857 5.97628 57.4649 6.31517C57.3775 6.38193 57.2794 6.40586 57.1706 6.38703C57.1061 6.39645 57.0571 6.37252 57.0234 6.31517C57.2152 6.16577 57.2152 6.02205 57.0234 5.88401C57.1627 5.48439 57.4324 5.19695 57.8329 5.02168C58.2499 4.61445 58.6668 4.20729 59.0838 3.80005C59.9991 3.23235 60.833 2.56168 61.5857 1.78796C61.782 1.74002 61.9781 1.69216 62.1744 1.64423C62.613 1.40947 63.0545 1.1699 63.4989 0.925628C64.0186 0.839158 64.4846 0.958928 64.897 1.28493C65.3459 1.07873 65.7874 1.10269 66.2216 1.35679C66.9084 1.40472 67.5952 1.45258 68.282 1.50051C68.755 1.53989 69.1475 1.73154 69.4593 2.0754C69.8885 2.29493 70.3301 2.48658 70.7839 2.65028C71.2338 3.04156 71.7243 3.37694 72.2556 3.65633C72.5438 3.76218 72.8381 3.84597 73.1386 3.90784C73.3668 4.02268 73.563 4.1784 73.7273 4.37494C73.8936 4.46828 74.065 4.54014 74.2424 4.59052C74.2821 5.0265 74.5146 5.31394 74.9414 5.45284C75.0216 5.39564 75.1077 5.34771 75.199 5.30912C75.8318 5.42381 76.3719 5.69933 76.8178 6.13552C77.0143 6.24331 77.2101 6.3511 77.4065 6.45889C77.5544 6.67584 77.628 6.91535 77.6273 7.1775C77.5257 7.55505 77.4764 7.93829 77.4801 8.32727C77.5574 8.31656 77.631 8.32849 77.7009 8.3632C77.8834 8.57763 78.0798 8.78128 78.2895 8.97401C78.4455 9.42214 78.6413 9.8533 78.8782 10.2675C78.9275 11.3215 78.9761 12.3754 79.0254 13.4294C79.3352 13.659 79.5559 13.9465 79.6877 14.2917Z" fill="#FFFCF0"/>
<path opacity="0.807" fill-rule="evenodd" clip-rule="evenodd" d="M30.7517 8.97401C30.6283 9.02309 30.5793 9.11895 30.6045 9.26145C30.4328 9.26145 30.2611 9.26145 30.0894 9.26145C29.8999 8.95439 29.7773 8.61902 29.7215 8.2554C29.4214 7.88482 29.1393 7.50159 28.8753 7.10564C28.6237 7.50583 28.6482 7.88913 28.9488 8.2554C29.0594 8.61499 29.1698 8.9743 29.28 9.33331C29.0157 10.3296 28.7704 11.3236 28.5441 12.3155C28.6804 12.5777 28.7172 12.8532 28.6545 13.1419C28.2918 13.6051 27.838 13.9405 27.2932 14.148C27.1021 14.1321 27.1021 14.0962 27.2932 14.0402C27.1932 13.9731 27.0951 13.9131 26.9988 13.8605C27.0295 13.6562 27.1031 13.4646 27.2196 13.2856C27.4234 13.1347 27.5706 12.943 27.6611 12.7108C27.8912 11.611 28.112 10.5092 28.3234 9.40517C28.312 9.14662 28.2385 8.90711 28.1026 8.68657C28.0535 8.30334 28.0045 7.92003 27.9554 7.5368C27.8151 7.25582 27.6189 7.01624 27.3668 6.81819C27.2325 6.50797 27.1099 6.1966 26.9988 5.88401C26.4584 5.47612 25.8697 5.14075 25.2328 4.87796C24.9964 4.65224 24.7511 4.43666 24.4969 4.23121C24.3669 3.85718 24.1462 3.54581 23.8347 3.29702C23.321 3.09409 22.806 2.90244 22.2894 2.72214C22.1523 2.55018 22.0542 2.35853 21.995 2.14725C20.9476 1.54909 19.8193 1.35744 18.6101 1.57237C18.2408 1.77667 17.8974 2.01618 17.5799 2.29098C16.9274 2.48974 16.2896 2.72925 15.6667 3.00958C14.8818 3.44075 14.0969 3.87191 13.312 4.30307C12.9873 4.59576 12.693 4.9072 12.429 5.23726C12.1491 5.01765 12.0878 4.77814 12.245 4.51865C12.2695 4.56659 12.2941 4.61444 12.3186 4.66238C12.3552 4.49638 12.3674 4.32873 12.3554 4.15935C13.5926 3.11184 15.0152 2.38123 16.6233 1.9676C17.5158 1.09399 18.6073 0.674803 19.8979 0.710043C20.6929 0.677404 21.441 0.845077 22.1422 1.21307C22.443 1.45854 22.6882 1.74599 22.8781 2.07539C23.6826 2.2646 24.3939 2.62391 25.012 3.1533C25.1248 3.28186 25.1984 3.42558 25.2328 3.58447C26.747 3.75938 27.9366 4.45405 28.8017 5.66842C29.1467 6.15104 29.4533 6.65406 29.7215 7.1775C29.9277 7.26459 30.1116 7.38438 30.2734 7.5368C30.4928 7.99843 30.6523 8.47745 30.7517 8.97401Z" fill="#FFFCF0"/>
<path opacity="0.01" fill-rule="evenodd" clip-rule="evenodd" d="M72.6953 4.52051C72.7934 4.52051 72.8425 4.56835 72.8425 4.66396C72.7444 4.66396 72.6953 4.61612 72.6953 4.52051Z" fill="#FFFCF0"/>
<path opacity="0.01" fill-rule="evenodd" clip-rule="evenodd" d="M56.444 6.96094C56.444 7.05655 56.395 7.10439 56.2969 7.10439C56.2969 7.00878 56.346 6.96094 56.444 6.96094Z" fill="#FFFCF0"/>
<path opacity="0.823" fill-rule="evenodd" clip-rule="evenodd" d="M12.3623 4.1582C12.3743 4.32758 12.3621 4.49523 12.3255 4.66123C12.301 4.6133 12.2764 4.56544 12.2519 4.51751C12.0947 4.77699 12.156 5.01651 12.4359 5.23611C12.084 6.1629 11.6916 7.07316 11.2585 7.96681C11.0751 8.00102 10.9279 8.09688 10.817 8.25426C10.5646 8.88095 10.3929 9.5277 10.3019 10.1945C10.3272 10.4507 10.3762 10.7022 10.4491 10.949C10.4246 11.0329 10.4 11.1167 10.3755 11.2005C9.934 11.5359 9.49249 11.8712 9.05097 12.2066C9.08975 14.0008 9.08975 15.7973 9.05097 17.5961C9.1119 17.6619 9.18549 17.7097 9.27173 17.7399C9.78741 17.4643 10.2779 17.1528 10.7434 16.8057C11.5288 16.566 12.3137 16.3265 13.0982 16.0871C14.1529 15.9913 15.2076 15.9913 16.2623 16.0871C16.6074 16.3634 16.9999 16.543 17.4397 16.626C18.9165 17.3111 20.3391 18.0896 21.7076 18.9615C22.5942 19.8975 23.3301 20.9274 23.9152 22.0515C24.0402 22.063 24.1629 22.0511 24.2831 22.0156C24.5436 21.8452 24.8134 21.6895 25.0925 21.5485C25.2828 21.478 25.4791 21.4541 25.6812 21.4766C25.6716 21.2046 25.6225 20.9411 25.534 20.6861C25.534 20.5903 25.485 20.5424 25.3869 20.5424C25.3101 20.1015 25.1875 19.6703 25.019 19.2489C24.1227 18.7985 23.3132 18.2236 22.5906 17.5243C22.5401 17.3968 22.4788 17.277 22.4067 17.165C22.3454 15.6793 22.3577 14.1942 22.4435 12.7096C22.56 12.5307 22.6335 12.339 22.6642 12.1347C23.5314 11.8887 24.4144 11.697 25.3133 11.5598C25.6548 11.6187 25.9737 11.7385 26.2699 11.9191C26.362 12.027 26.4356 12.1468 26.4907 12.2785C26.564 12.8032 26.5886 13.3303 26.5642 13.8594C26.7114 13.8594 26.8586 13.8594 27.0058 13.8594C27.102 13.912 27.2002 13.9719 27.3001 14.039C27.109 14.095 27.109 14.1309 27.3001 14.1468C26.9839 14.4656 26.7876 14.8369 26.7114 15.2607C26.7359 15.4164 26.7605 15.572 26.785 15.7278C27.0202 16.1798 27.2164 16.6469 27.3737 17.129C27.2146 17.499 27.0674 17.8704 26.9322 18.2429C25.9794 18.7437 25.7341 19.4864 26.1963 20.4706C26.3029 20.8226 26.4501 21.1579 26.6378 21.4766C26.7205 21.5516 26.8186 21.5995 26.9322 21.6203C27.5548 21.5259 28.1802 21.4301 28.8086 21.3329C28.9672 21.3512 29.1144 21.3991 29.2501 21.4766C29.32 21.4391 29.3814 21.3912 29.4341 21.3329C29.6002 20.2961 29.87 19.29 30.2435 18.3147C30.1548 18.15 30.1057 17.9703 30.0963 17.7758C30.1944 17.129 30.2926 16.4823 30.3907 15.8355C30.1795 15.0735 30.204 14.319 30.4643 13.5719C30.5133 12.9013 30.5623 12.2305 30.6114 11.5598C30.7158 11.3022 30.8875 11.0986 31.1265 10.949C30.8856 10.8793 30.6648 10.7715 30.4643 10.6257C30.2837 10.1838 30.1611 9.72869 30.0963 9.2603C30.268 9.2603 30.4397 9.2603 30.6114 9.2603C30.5862 9.11781 30.6353 9.02194 30.7586 8.97286C30.8222 9.29279 30.9203 9.60423 31.0529 9.90705C31.4899 10.1062 31.7842 10.4296 31.936 10.8772C31.7571 11.2743 31.561 11.6575 31.3473 12.0269C31.3899 12.1846 31.439 12.3403 31.4944 12.494C31.3976 13.2609 31.2504 14.0154 31.0529 14.7576C31.1433 15.0346 31.1923 15.322 31.2001 15.62C31.1729 17.3036 30.9031 18.9445 30.3907 20.5424C30.3179 20.8016 30.2933 21.0651 30.3171 21.3329C31.634 21.0755 32.7377 21.4587 33.6284 22.4827C33.8187 22.8665 34.015 23.2378 34.2171 23.5965C34.5801 23.6912 34.948 23.7511 35.3209 23.7761C35.3209 23.848 35.3209 23.9199 35.3209 23.9917C35.5962 24.0433 35.817 24.187 35.9831 24.4229C36.3381 25.1643 36.7306 25.8829 37.1605 26.5787C37.3122 27.1928 37.4103 27.8156 37.4548 28.4471C38.1368 28.9691 38.7745 29.544 39.3681 30.1717C39.6324 30.7606 39.9512 31.3115 40.3247 31.8245C40.213 31.8253 40.1272 31.8732 40.0671 31.9683C40.0576 32.1697 40.0821 32.3613 40.1407 32.5431C40.0472 32.4438 39.9368 32.3719 39.8096 32.3276C39.4623 31.9627 39.1312 31.5795 38.8162 31.1778C38.3656 30.0071 37.5439 29.2166 36.3511 28.8064C36.3219 29.043 36.2238 29.2466 36.0567 29.4172C36.2756 29.4523 36.4472 29.5601 36.5718 29.7406C36.7836 29.9956 36.9308 30.283 37.0133 30.6029C37.1489 31.6054 37.247 32.6114 37.3077 33.621C37.3802 33.9169 37.4783 34.2043 37.602 34.4834C37.6511 35.5374 37.7001 36.5913 37.7492 37.6452C38.2675 38.3194 38.7581 39.0141 39.2209 39.7292C39.4213 40.5399 39.5929 41.3544 39.736 42.1725C39.4948 42.2885 39.2741 42.4322 39.0737 42.6036C38.9806 41.3793 38.6126 40.2296 37.9699 39.1543C37.3147 38.6888 36.9222 38.066 36.7926 37.2859C36.7435 36.2799 36.6945 35.2738 36.6454 34.2678C36.4042 33.4455 36.2693 32.6071 36.2407 31.7527C36.136 31.3025 36.0256 30.8474 35.9096 30.3873C35.6643 30.1478 35.419 29.9082 35.1737 29.6687C35.0756 29.4531 35.0756 29.2375 35.1737 29.022C35.4869 28.5721 35.8548 28.1649 36.2775 27.8003C36.365 27.7336 36.4631 27.7096 36.5718 27.7285C36.5105 27.4167 36.4369 27.1053 36.3511 26.7943C35.945 26.2361 35.6016 25.6372 35.3209 24.9978C34.9418 24.6181 34.4757 24.4025 33.9228 24.351C33.7265 24.2552 33.5303 24.1594 33.3341 24.0636C33.1138 23.6109 32.8931 23.1558 32.6718 22.6982C32.4292 22.4929 32.1594 22.3252 31.8624 22.1952C31.6784 22.1713 31.4944 22.1473 31.3105 22.1234C30.5255 22.315 29.7407 22.315 28.9558 22.1234C28.1375 22.2206 27.3281 22.3643 26.5274 22.5545C26.1916 22.5509 25.9341 22.4072 25.7548 22.1234C25.1194 22.3256 24.5062 22.589 23.9152 22.9138C23.3722 23.0362 22.8326 23.156 22.2963 23.2731C22.2736 23.4473 22.2982 23.615 22.3699 23.7761C22.6497 24.3797 22.9441 24.9786 23.2529 25.5727C23.5087 26.5617 23.8521 27.5198 24.2831 28.4471C24.5774 28.8303 24.8718 29.2136 25.1661 29.5969C25.2345 29.6823 25.259 29.7781 25.2397 29.8843C25.7093 29.7992 26.1508 29.6315 26.5642 29.3813C27.2398 29.1134 27.9267 28.8739 28.6246 28.6627C28.89 28.5916 29.1599 28.5676 29.4341 28.5908C29.4341 28.7106 29.4341 28.8303 29.4341 28.9501C28.7804 29.227 28.1181 29.4904 27.4473 29.7406C26.9177 30.0348 26.4026 30.3461 25.902 30.6748C25.7009 31.5918 25.5292 32.514 25.3869 33.4414C25.4597 34.4295 25.6313 35.3997 25.902 36.3517C26.0736 36.5194 26.2454 36.6871 26.4171 36.8548C26.5046 36.9215 26.6027 36.9455 26.7114 36.9266C26.7114 37.0224 26.7114 37.1183 26.7114 37.2141C26.785 37.2141 26.8586 37.2141 26.9322 37.2141C26.9322 37.3817 26.9322 37.5494 26.9322 37.7171C26.8586 37.7171 26.785 37.7171 26.7114 37.7171C26.6499 37.9393 26.6008 38.1669 26.5642 38.3998C26.6506 38.7431 26.6996 39.0904 26.7114 39.4418C26.7114 39.5375 26.7605 39.5855 26.8586 39.5855C27.0261 39.9921 27.0997 40.4233 27.0793 40.879C26.0466 40.8588 25.6541 41.3379 25.902 42.3162C25.949 42.8152 26.1698 43.2225 26.5642 43.5378C26.8813 43.6687 27.1757 43.8363 27.4473 44.0408C27.5879 44.3996 27.5266 44.711 27.2633 44.975C27.1443 45.2293 27.0953 45.4928 27.1161 45.7655C27.427 46.7803 27.8808 47.7385 28.4775 48.6399C28.5475 48.7509 28.572 48.8707 28.551 48.9992C28.2322 48.9992 27.9133 48.9992 27.5944 48.9992C27.0338 47.8921 26.5433 46.7542 26.1227 45.5858C26.3055 45.1811 26.5017 44.7859 26.7114 44.4001C25.9243 44.1343 25.4092 43.6073 25.1661 42.8192C25.068 42.1725 25.068 41.5257 25.1661 40.879C25.465 40.5574 25.8329 40.3418 26.2699 40.2322C26.1778 40.1244 26.1042 40.0046 26.0491 39.8729C25.9966 39.3786 25.923 38.8876 25.8284 38.3998C25.857 38.2262 25.906 38.0585 25.9756 37.8968C25.75 37.4728 25.4802 37.0776 25.1661 36.711C25.0465 36.4329 24.9729 36.1454 24.9454 35.8487C24.9454 35.7529 24.8963 35.705 24.7982 35.705C24.7353 35.1149 24.6617 34.516 24.5774 33.9085C24.6907 32.9072 24.8624 31.9131 25.0925 30.9263C25.068 30.7946 25.0435 30.6628 25.019 30.531C24.8963 30.4352 24.7737 30.3394 24.651 30.2436C24.2095 29.5729 23.768 28.9022 23.3265 28.2315C23.0812 27.4407 22.8359 26.6502 22.5906 25.8601C22.1717 25.1019 21.8038 24.3234 21.4869 23.5246C21.5106 23.2748 21.6086 23.0593 21.7812 22.8779C21.0415 22.5025 20.3302 22.0833 19.6472 21.6203C17.8541 21.1164 16.0636 20.6133 14.2755 20.1113C14.2264 19.9196 14.1774 19.9196 14.1283 20.1113C14.0364 20.1057 13.9751 20.0578 13.9444 19.9675C13.3614 20.0843 12.7605 20.1562 12.1416 20.1831C11.0171 20.4395 9.91332 20.7509 8.83022 21.1173C8.73213 21.1173 8.68305 21.1652 8.68305 21.261C8.4305 21.2795 8.18517 21.3274 7.9472 21.4047C7.84911 21.4047 7.80003 21.4527 7.80003 21.5485C7.04175 21.7395 6.3059 22.0031 5.59247 22.3389C5.39624 22.5784 5.20002 22.818 5.00379 23.0575C3.79217 23.697 2.51669 24.176 1.17736 24.4947C0.798311 24.7041 0.405855 24.8717 0 24.9978C0 24.7103 0 24.4229 0 24.1354C0.225476 24.1047 0.446231 24.0568 0.662266 23.9917C0.662266 23.9199 0.662266 23.848 0.662266 23.7761C1.45071 23.5967 2.23562 23.3811 3.01699 23.1294C3.21322 23.0336 3.40944 22.9377 3.60567 22.842C3.85704 22.5483 4.15138 22.3088 4.48869 22.1234C5.4162 21.6375 6.33601 21.1345 7.24814 20.6143C7.2615 20.4184 7.29829 20.2267 7.35852 20.0394C7.88612 19.4519 8.20504 18.7692 8.31512 17.9914C8.12137 16.8297 8.12137 15.668 8.31512 14.5061C8.25154 13.8383 8.15346 13.1795 8.02078 12.53C8.17377 12.0754 8.39452 11.6562 8.68305 11.2724C8.87569 11.035 9.12095 10.8913 9.4189 10.8412C9.53428 9.88715 9.75504 8.95296 10.0812 8.03867C10.3619 7.73075 10.6072 7.39538 10.817 7.03263C11.1407 6.0651 11.5822 5.15491 12.1416 4.30192C12.1978 4.22202 12.2714 4.17408 12.3623 4.1582ZM23.1793 15.5122C23.1793 15.3685 23.1793 15.2247 23.1793 15.081C23.1793 14.9612 23.1793 14.8415 23.1793 14.7217C23.159 14.0681 23.2081 13.4213 23.3265 12.7815C23.7248 12.6318 24.1295 12.4881 24.5406 12.3503C24.6936 12.4152 24.8531 12.4631 25.019 12.494C25.2308 12.401 25.4516 12.353 25.6812 12.3503C25.8594 13.6357 25.982 14.9292 26.0491 16.2308C26.3704 16.6893 26.5421 17.1923 26.5642 17.7399C26.1016 17.8309 25.7337 18.0704 25.4605 18.4585C24.8891 18.1673 24.3249 17.8559 23.768 17.5243C23.6453 17.4045 23.5227 17.2848 23.4001 17.165C23.2333 16.6257 23.1597 16.0748 23.1793 15.5122ZM13.6133 16.8057C14.7587 16.7179 15.8625 16.8855 16.9246 17.3087C17.7408 17.7312 18.5747 18.1145 19.4265 18.4585C20.2739 18.998 21.0343 19.6447 21.7076 20.3987C22.1385 20.9995 22.5555 21.6103 22.9586 22.2311C22.9269 22.3342 22.8656 22.4181 22.7746 22.4827C21.9623 21.8464 21.067 21.3434 20.0887 20.9736C18.151 20.4228 16.2132 19.8838 14.2755 19.3567C13.1873 19.2776 12.108 19.3375 11.0378 19.5364C10.092 19.8362 9.15995 20.1475 8.24154 20.4706C8.2536 20.2372 8.32719 20.0216 8.46229 19.8238C8.65854 19.5364 8.85472 19.2489 9.05097 18.9615C9.78638 18.1946 10.6694 17.6436 11.7 17.3087C12.3504 17.1143 12.9881 16.9467 13.6133 16.8057Z" fill="#FFFCF0"/>
<path opacity="0.01" fill-rule="evenodd" clip-rule="evenodd" d="M54.3737 7.82422C54.3737 7.91983 54.3247 7.96767 54.2266 7.96767C54.2266 7.87206 54.2756 7.82422 54.3737 7.82422Z" fill="#FFFCF0"/>
<path opacity="0.851" fill-rule="evenodd" clip-rule="evenodd" d="M57.0237 5.88379C57.2154 6.02183 57.2154 6.16555 57.0237 6.31495C57.0573 6.3723 57.1064 6.39623 57.1708 6.38681C57.012 6.68044 56.7667 6.87209 56.435 6.9617C56.3369 6.9617 56.2878 7.00963 56.2878 7.10542C55.6378 7.31698 55.0001 7.55649 54.3746 7.82402C54.2765 7.82402 54.2274 7.87196 54.2274 7.96775C53.7004 8.21401 53.2343 8.54939 52.8293 8.97379C52.7191 9.44197 52.4738 9.8252 52.0935 10.1236C51.6949 10.9748 51.2043 11.7653 50.6218 12.495C50.3682 13.3618 50.1474 14.2361 49.9595 15.1179C50.257 15.8098 50.5759 16.4925 50.9161 17.1659C51.4786 17.8112 52.0427 18.458 52.6086 19.1061C52.8869 19.1383 53.1445 19.2101 53.3812 19.3217C53.3935 19.2619 53.4057 19.2019 53.418 19.1421C52.765 17.9265 52.1027 16.7168 51.4312 15.5131C51.3701 15.2493 51.2597 15.0097 51.1001 14.7945C51.0414 14.6681 51.0536 14.5483 51.1369 14.4352C51.4357 14.1136 51.8036 13.898 52.2406 13.7885C54.0553 13.159 55.895 12.632 57.7595 12.2075C58.6061 11.9084 59.44 11.5969 60.2614 11.2733C60.2614 11.2015 60.2614 11.1296 60.2614 11.0578C59.7538 11.0736 59.2632 11.1575 58.7897 11.3093C58.4472 11.3451 58.1038 11.3571 57.7595 11.3452C57.726 11.0857 57.7751 10.8462 57.9067 10.6266C58.2327 10.4765 58.576 10.3808 58.9369 10.3391C59.5652 10.2886 60.1906 10.2167 60.8133 10.1236C60.9482 10.1475 61.0832 10.1715 61.218 10.1954C61.4633 10.3391 61.7086 10.4829 61.9539 10.6266C63.1199 11.8418 63.0953 13.0395 61.8803 14.2196C61.8056 14.4384 61.732 14.6539 61.6595 14.8664C61.7331 14.8664 61.8067 14.8664 61.8803 14.8664C61.8803 14.5789 62.0275 14.4352 62.3218 14.4352C62.4512 14.0382 62.6229 13.6549 62.8369 13.2854C62.878 12.4436 62.9516 11.6052 63.0577 10.7703C63.0332 10.6505 63.0086 10.5308 62.9841 10.411C62.3769 9.91711 61.6778 9.62967 60.8869 9.54868C60.6622 9.57987 60.4415 9.62773 60.2246 9.6924C60.0414 9.63232 59.8574 9.58447 59.6727 9.54868C59.7256 9.27978 59.8727 9.06419 60.1143 8.90193C60.6822 8.78918 61.2218 8.60953 61.7331 8.36298C62.1127 8.32216 62.1863 8.45388 61.9539 8.75821C62.3717 9.03423 62.8132 9.27374 63.2784 9.47682C63.6803 9.85423 63.9501 10.3093 64.0879 10.8422C64.1391 11.1208 64.1882 11.3962 64.235 11.6686C64.1949 12.2879 64.1826 12.9227 64.1982 13.5729C64.3004 13.4082 64.4108 13.2525 64.5294 13.1058C64.4422 13.021 64.3932 12.9132 64.3822 12.7824C64.3808 12.5856 64.4299 12.4059 64.5294 12.2435C64.4966 12.1395 64.4475 12.0437 64.3822 11.956C64.4475 11.8683 64.4966 11.7725 64.5294 11.6686C64.3865 11.4011 64.362 11.1257 64.4558 10.8422C64.527 10.7711 64.6129 10.7232 64.7133 10.6984C64.9284 10.8003 65.1124 10.9441 65.2652 11.1296C65.3146 11.6072 65.3882 12.0743 65.486 12.5309C65.437 13.1164 65.2408 13.6554 64.8973 14.1478C64.6765 14.2435 64.4558 14.2435 64.235 14.1478C64.1347 14.0477 64.0734 13.9279 64.0511 13.7885C63.4814 14.4284 62.9541 15.0991 62.469 15.8005C62.3573 16.0187 62.2469 16.2343 62.1378 16.4473C62.0392 17.1152 61.9779 17.786 61.9539 18.4594C62.5408 18.4962 63.0068 18.2806 63.352 17.8126C63.5675 17.7419 63.7882 17.718 64.0143 17.7408C64.0581 17.9453 64.0581 18.1609 64.0143 18.3875C63.9278 18.3718 63.8542 18.3957 63.7935 18.4594C63.6246 18.6963 63.4284 18.9119 63.2048 19.1061C63.1365 19.1916 63.112 19.2874 63.1312 19.3936C62.935 19.4415 62.7388 19.4894 62.5426 19.5373C62.5186 19.8523 62.5432 20.1637 62.6161 20.4715C63.1335 20.8098 63.4278 21.2889 63.4992 21.9087C63.5726 22.6017 63.5972 23.2963 63.5728 23.9927C63.6546 24.1969 63.6178 24.3885 63.4624 24.5675C63.3611 24.3789 63.2753 24.3789 63.2048 24.5675C62.9236 24.5568 62.7519 24.4131 62.6897 24.1364C62.6533 23.2192 62.5797 22.309 62.469 21.4057C62.2832 21.3238 62.0869 21.2758 61.8803 21.262C61.8369 20.9855 61.7142 20.746 61.5124 20.5433C61.4729 19.8033 61.3257 19.0847 61.0709 18.3875C61.0464 18.0402 61.0218 17.6929 60.9973 17.3456C60.988 16.7697 61.0371 16.2067 61.1444 15.6568C60.8076 15.7122 60.6113 15.5805 60.5558 15.2616C60.7008 14.8487 60.8235 14.4294 60.9237 14.004C61.5645 13.4959 61.8097 12.8492 61.6595 12.0638C61.5153 11.9759 61.3804 11.8801 61.2548 11.7764C60.9823 11.9873 60.6757 12.131 60.335 12.2075C60.246 12.2386 60.1724 12.2865 60.1143 12.3512C59.9916 12.3512 59.869 12.3512 59.7463 12.3512C59.7493 12.5942 59.7248 12.8337 59.6727 13.0698C59.1283 13.1631 58.5886 13.2828 58.0539 13.4292C57.7987 13.5707 57.5534 13.7264 57.318 13.8962C56.0873 14.2371 54.8609 14.5844 53.6388 14.9382C53.6161 15.1124 53.6407 15.2801 53.7123 15.4412C53.7836 15.5123 53.8695 15.5602 53.9699 15.585C54.3678 15.4832 54.7725 15.4114 55.184 15.3694C55.5566 14.9574 55.9736 14.5981 56.435 14.2915C56.5212 14.3216 56.5948 14.3694 56.6558 14.4352C56.7538 14.6028 56.7538 14.7706 56.6558 14.9382C56.0802 15.6313 55.5406 16.3499 55.0369 17.094C54.9381 17.2022 54.8155 17.2501 54.669 17.2378C54.6149 18.053 54.5414 18.8674 54.4482 19.681C54.301 19.9205 54.1539 20.1601 54.0067 20.3996C53.4129 20.9314 52.8732 21.5063 52.3878 22.1243C52.2715 22.4263 52.3206 22.6898 52.535 22.9147C52.4689 22.962 52.3953 23.0099 52.3142 23.0585C52.3529 23.1082 52.4019 23.1441 52.4614 23.1663C52.3535 23.2778 52.2799 23.4096 52.2406 23.5615C52.2976 23.6485 52.3589 23.6485 52.4246 23.5615C52.4755 23.6288 52.4632 23.6767 52.3878 23.7052C52.1253 23.6301 51.9046 23.4864 51.7255 23.274C51.6399 22.7968 51.6276 22.3177 51.6888 21.8368C52.025 21.3284 52.4298 20.8733 52.9029 20.4715C52.9681 20.4122 52.9926 20.3403 52.9765 20.2559C52.8217 20.2774 52.6745 20.2535 52.535 20.184C51.773 19.4879 51.0617 18.7453 50.401 17.9564C50.0174 17.2551 49.674 16.5365 49.3708 15.8005C49.2647 14.8115 49.3138 13.8294 49.518 12.8543C49.997 12.0626 50.4385 11.2482 50.8425 10.411C51.3765 9.72998 51.8425 9.01138 52.2406 8.25519C53.1051 7.71408 53.9636 7.17512 54.8161 6.63833C55.2501 6.50689 55.6916 6.38717 56.1407 6.27902C56.4445 6.16052 56.7388 6.02873 57.0237 5.88379ZM52.7557 14.5071C52.8808 14.4956 53.0034 14.5075 53.1237 14.543C52.9304 14.6476 52.8078 14.8033 52.7557 15.0101C52.8848 15.6335 53.0933 16.2323 53.3812 16.8066C53.5192 16.8958 53.6541 16.9917 53.7859 17.094C53.8712 17.3543 53.8834 17.6178 53.8227 17.8845C53.2874 17.0547 52.8091 16.1923 52.3878 15.2975C52.2897 15.1299 52.2897 14.9622 52.3878 14.7945C52.5342 14.7132 52.6568 14.6174 52.7557 14.5071Z" fill="#FFFCF0"/>
<path opacity="0.01" fill-rule="evenodd" clip-rule="evenodd" d="M60.3458 12.208C60.3221 12.319 60.2485 12.3669 60.125 12.3515C60.1831 12.2868 60.2567 12.239 60.3458 12.208Z" fill="#FFFCF0"/>
<path opacity="0.867" fill-rule="evenodd" clip-rule="evenodd" d="M74.4631 18.9637C74.4631 18.8679 74.4138 18.8199 74.316 18.8199C74.2865 18.2117 74.3358 17.6128 74.4631 17.0234C74.6817 16.9954 74.8774 17.0433 75.0518 17.1672C75.3145 18.1549 75.4985 19.161 75.6037 20.1853C75.6405 20.2212 75.6773 20.2572 75.7141 20.2931C76.2792 20.3571 76.8436 20.429 77.4065 20.5087C77.5773 20.6519 77.773 20.7357 77.9952 20.7602C77.8201 19.3141 77.6236 17.8769 77.4065 16.4485C77.4838 16.0167 77.5824 15.5856 77.7009 15.1551C77.9194 15.127 78.1152 15.175 78.2896 15.2988C78.4066 15.7258 78.5044 16.157 78.5839 16.5923C78.6332 17.5025 78.6818 18.4127 78.7311 19.323C78.7819 19.3607 78.8186 19.4086 78.8415 19.4667C78.9025 17.9092 78.8908 16.3522 78.8047 14.7958C78.645 14.3408 78.4485 13.9096 78.216 13.5023C78.3587 13.5222 78.5059 13.4742 78.6575 13.3585C78.7156 13.4119 78.7642 13.4717 78.8047 13.5382C78.7348 13.5898 78.7222 13.6496 78.7679 13.7178C78.9069 13.8893 79.0909 13.9732 79.3198 13.9694C79.2955 13.9933 79.2705 14.0173 79.2462 14.0412C79.3014 14.1481 79.3632 14.1601 79.4301 14.0771C79.5067 14.1641 79.5928 14.236 79.6877 14.2927C79.712 16.2815 79.6877 18.2696 79.6141 20.2572C79.5648 20.5446 79.5162 20.832 79.4669 21.1195C79.333 21.2077 79.2594 21.3274 79.2462 21.4788C80.1292 21.7879 81.0122 22.0873 81.8952 22.377C82.339 22.5596 82.7069 22.835 82.999 23.2034C82.999 23.5148 82.999 23.8263 82.999 24.1376C82.5818 23.7545 82.1403 23.3952 81.6745 23.0597C80.8533 22.7445 80.0196 22.457 79.1726 22.1974C78.5523 21.8706 77.915 21.5832 77.2594 21.3351C76.447 21.1009 75.6376 21.0769 74.8311 21.2632C73.9738 21.1101 73.115 20.9663 72.2556 20.832C72.2065 20.6404 72.1575 20.6404 72.1084 20.832C71.9063 20.8095 71.71 20.8335 71.5197 20.9039C70.4238 21.1729 69.3445 21.4844 68.282 21.8381C68.2204 21.7281 68.1468 21.5844 68.0612 21.4069C68.0276 21.3496 67.9785 21.3257 67.9141 21.3351C67.9677 21.0656 68.1149 20.85 68.3556 20.6883C68.7304 20.6148 68.9512 20.3992 69.0178 20.0416C69.3337 19.6014 69.6894 19.1941 70.0848 18.8199C70.2781 18.3949 70.5111 17.9877 70.7839 17.5983C70.8696 16.9049 70.8819 16.2103 70.8207 15.5144C70.4795 14.812 70.1483 14.1054 69.8273 13.3945C70.0009 12.8249 70.2952 12.741 70.7103 13.143C71.1701 13.9329 71.538 14.7592 71.8141 15.6221C71.6322 16.2261 71.6322 16.825 71.8141 17.4187C71.6498 17.8401 71.4781 18.2592 71.299 18.6762C70.8684 19.1805 70.4514 19.6956 70.048 20.2212C70.0725 20.2572 70.0971 20.2931 70.1216 20.329C70.7965 20.0925 71.4832 19.9008 72.182 19.7541C72.3309 19.8744 72.5025 19.9223 72.6971 19.8979C72.7018 19.4507 72.7509 19.0076 72.8443 18.5684C72.8172 18.3244 72.7681 18.0849 72.6971 17.8498C72.7586 17.6709 72.8076 17.4912 72.8443 17.3109C72.9908 17.3232 73.1134 17.2753 73.2122 17.1672C73.416 17.3181 73.5632 17.5098 73.6537 17.742C73.6265 18.4828 73.6265 19.2254 73.6537 19.9697C73.8921 20.0786 74.1129 20.0546 74.316 19.8979C74.2667 19.8499 74.2181 19.8021 74.1688 19.7541C74.2784 19.4933 74.3763 19.2298 74.4631 18.9637Z" fill="#FFFCF0"/>
<path opacity="0.01" fill-rule="evenodd" clip-rule="evenodd" d="M23.1797 14.7236C23.1797 14.8432 23.1797 14.9627 23.1797 15.0823C23.1306 15.0823 23.0816 15.0823 23.0325 15.0823C23.0014 14.9187 23.0505 14.7991 23.1797 14.7236Z" fill="#FFFCF0"/>
<path opacity="0.01" fill-rule="evenodd" clip-rule="evenodd" d="M23.0343 15.084C23.0834 15.084 23.1324 15.084 23.1815 15.084C23.1815 15.2277 23.1815 15.3714 23.1815 15.5151C23.0485 15.4132 22.9994 15.2695 23.0343 15.084Z" fill="#FFFCF0"/>
<path opacity="0.01" fill-rule="evenodd" clip-rule="evenodd" d="M74.3242 18.8193C74.4221 18.8193 74.4714 18.8672 74.4714 18.9628C74.3735 18.9628 74.3242 18.9149 74.3242 18.8193Z" fill="#FFFCF0"/>
<path opacity="0.01" fill-rule="evenodd" clip-rule="evenodd" d="M14.2761 20.1132C14.227 20.1132 14.178 20.1132 14.1289 20.1132C14.178 19.9219 14.227 19.9219 14.2761 20.1132Z" fill="#FFFCF0"/>
<path opacity="0.839" fill-rule="evenodd" clip-rule="evenodd" d="M67.9158 21.3346C67.9803 21.3252 68.0294 21.3491 68.063 21.4064C68.1486 21.5839 68.2222 21.7276 68.2838 21.8376C68.2675 21.9263 68.2184 21.9982 68.1366 22.0532C67.7916 22.1735 67.4973 22.3651 67.2536 22.6281C66.8552 22.9022 66.4137 23.022 65.929 22.9874C65.8679 23.3111 65.6716 23.5267 65.3403 23.6341C64.855 24.2521 64.3153 24.827 63.7215 25.3588C63.2051 25.6116 62.6655 25.7793 62.1026 25.8618C62.1026 25.9336 62.1026 26.0055 62.1026 26.0774C61.4155 26.2561 60.7533 26.4837 60.1158 26.76C58.8417 27.0343 57.6152 27.4535 56.4365 28.0176C56.2463 28.088 56.05 28.112 55.8479 28.0895C55.8813 28.2236 55.9304 28.3554 55.995 28.4847C55.9128 28.6327 55.8637 28.7884 55.8479 28.9518C55.5387 28.9746 55.2443 28.9506 54.9648 28.8799C54.9841 28.7737 54.9596 28.6779 54.8913 28.5925C54.7762 28.6418 54.6535 28.6298 54.5233 28.5566C54.5724 28.5086 54.6214 28.4608 54.6705 28.4128C54.6617 28.3306 54.6372 28.2467 54.5969 28.1613C54.7825 28.1881 54.9297 28.1282 55.0384 27.9817C54.9259 27.8161 54.84 27.6365 54.7809 27.4427C54.7737 27.0029 54.7124 26.5717 54.5969 26.1492C54.6721 25.7813 54.5863 25.4459 54.3394 25.1432C54.3264 24.9002 54.2896 24.6606 54.229 24.4246C54.0805 24.2916 53.9456 24.1479 53.8243 23.9934C53.6741 24.0834 53.5023 24.1313 53.3092 24.1371C53.1497 24.1132 52.9903 24.0892 52.8309 24.0653C52.6733 23.9428 52.5262 23.8231 52.3894 23.706C52.4648 23.6774 52.4771 23.6296 52.4262 23.5623C52.3604 23.6493 52.2991 23.6493 52.2422 23.5623C52.2815 23.4103 52.3551 23.2785 52.4629 23.167C52.4035 23.1449 52.3544 23.109 52.3158 23.0592C52.3969 23.0106 52.4704 22.9628 52.5365 22.9155C52.6903 23.0513 52.862 23.1711 53.0516 23.2748C53.6484 23.3149 54.2371 23.3868 54.8177 23.4904C54.9019 23.7474 54.9755 24.0109 55.0384 24.2809C55.173 24.3999 55.2712 24.5436 55.3328 24.712C55.4513 25.5269 55.574 26.3294 55.7007 27.1193C56.0467 27.1788 56.3901 27.1669 56.7309 27.0834C58.7044 26.1459 60.7647 25.4272 62.912 24.9276C63.0416 24.8258 63.1397 24.7061 63.2064 24.5683C63.2769 24.3797 63.3627 24.3797 63.4639 24.5683C63.6193 24.3892 63.6561 24.1976 63.5743 23.9934C63.7059 24.0139 63.8285 23.99 63.9422 23.9216C64.0645 23.7131 64.1749 23.4975 64.2734 23.2748C64.3979 23.2257 64.5083 23.1538 64.6045 23.0592C64.7656 22.6983 65.0355 22.4468 65.4139 22.3047C65.1826 22.1888 65.0968 22.0091 65.1564 21.7657C65.569 21.2547 66.0228 20.7757 66.5177 20.3285C66.8611 19.8016 67.2045 19.2745 67.5479 18.7476C67.6801 18.4734 67.7781 18.186 67.8422 17.8853C67.9951 17.6997 68.179 17.556 68.3941 17.4541C68.8248 17.6367 68.9598 17.9481 68.7988 18.3883C68.5654 18.7002 68.3692 19.0356 68.2102 19.3943C67.6536 19.8595 67.2857 20.4344 67.1064 21.119C67.1143 21.1867 67.1388 21.2465 67.18 21.2986C67.4241 21.3344 67.6693 21.3464 67.9158 21.3346ZM66.0762 21.9813C66.1498 21.9813 66.2234 21.9813 66.297 21.9813C66.297 22.0532 66.297 22.125 66.297 22.1969C66.1167 22.2369 65.9451 22.2369 65.7819 22.1969C65.9167 22.1569 66.0148 22.085 66.0762 21.9813Z" fill="#FFFCF0"/>
<path opacity="0.01" fill-rule="evenodd" clip-rule="evenodd" d="M25.3906 20.543C25.4887 20.543 25.5378 20.5908 25.5378 20.6864C25.4397 20.6864 25.3906 20.6386 25.3906 20.543Z" fill="#FFFCF0"/>
<path opacity="0.01" fill-rule="evenodd" clip-rule="evenodd" d="M72.2565 20.831C72.2075 20.831 72.1585 20.831 72.1094 20.831C72.1585 20.6397 72.2075 20.6397 72.2565 20.831Z" fill="#FFFCF0"/>
<path opacity="0.01" fill-rule="evenodd" clip-rule="evenodd" d="M8.81905 21.1201C8.81905 21.2157 8.76996 21.2636 8.67188 21.2636C8.67188 21.168 8.72096 21.1201 8.81905 21.1201Z" fill="#FFFCF0"/>
<path opacity="0.01" fill-rule="evenodd" clip-rule="evenodd" d="M7.94405 21.4053C7.94405 21.5009 7.89496 21.5487 7.79688 21.5487C7.79688 21.4531 7.84596 21.4053 7.94405 21.4053Z" fill="#FFFCF0"/>
<path opacity="0.01" fill-rule="evenodd" clip-rule="evenodd" d="M24.8047 35.7061C24.9028 35.7061 24.9519 35.7539 24.9519 35.8495C24.8538 35.8495 24.8047 35.8017 24.8047 35.7061Z" fill="#FFFCF0"/>
<path opacity="0.85" fill-rule="evenodd" clip-rule="evenodd" d="M54.6046 28.1602C54.6449 28.2455 54.6694 28.3294 54.6782 28.4117C54.6291 28.4596 54.5801 28.5075 54.531 28.5554C54.6612 28.6286 54.7838 28.6406 54.8989 28.5913C54.9673 28.6768 54.9918 28.7726 54.9725 28.8788C54.8288 28.771 54.7061 28.795 54.6046 28.9506C54.4836 29.2795 54.3855 29.6149 54.3103 29.9567C54.1316 30.1793 53.9108 30.3469 53.648 30.4597C53.5366 30.677 53.3895 30.8687 53.2065 31.0346C53.119 31.1013 53.0209 31.1253 52.9121 31.1064C52.9314 31.2127 52.9069 31.3084 52.8385 31.3939C52.6914 31.4897 52.5442 31.5855 52.397 31.6813C52.2159 32.1459 51.9216 32.5291 51.514 32.8311C51.2571 33.381 50.9627 33.9081 50.631 34.412C50.0055 35.298 49.4168 36.2083 48.8649 37.1427C48.5076 37.5879 48.0661 37.9233 47.5404 38.1488C47.3782 38.7116 47.2801 39.2865 47.2461 39.8734C46.8346 40.7494 46.295 41.5399 45.6272 42.2448C45.2315 42.4462 44.839 42.6618 44.4498 42.8916C44.3252 43.467 44.1903 44.0419 44.0451 44.6162C43.9347 44.724 43.8244 44.8318 43.714 44.9396C42.9941 45.3376 42.2583 45.7089 41.5064 46.0534C41.2612 46.1492 41.0158 46.1492 40.7706 46.0534C40.5804 45.8657 40.3597 45.722 40.1083 45.6223C39.9366 45.4546 39.7649 45.2869 39.5932 45.1193C39.3082 44.3088 39.1365 43.4704 39.0781 42.6041C39.2785 42.4327 39.4993 42.289 39.7404 42.173C39.9809 42.9831 40.2017 43.7975 40.4027 44.6162C40.7098 44.7451 41.0286 44.841 41.3593 44.9037C41.3015 44.4267 41.2524 43.9477 41.2121 43.4665C41.2852 42.3107 41.3833 41.161 41.5064 40.0172C41.4574 39.9214 41.4083 39.8255 41.3593 39.7297C41.5593 39.1278 41.4858 38.5529 41.1385 38.0051C41.0997 36.9599 41.0261 35.9179 40.9178 34.8791C40.9413 34.6808 40.9903 34.4891 41.0649 34.3042C40.983 33.9255 40.7622 33.674 40.4027 33.5497C40.4219 33.4435 40.3974 33.3477 40.3291 33.2623C40.0213 33.0202 39.8496 32.7089 39.814 32.3281C39.9412 32.3724 40.0516 32.4443 40.1451 32.5437C40.0865 32.3618 40.062 32.1703 40.0715 31.9688C40.1316 31.8737 40.2174 31.8258 40.3291 31.825C40.8115 32.406 41.2775 33.0049 41.7272 33.6216C41.8298 34.6902 41.8053 35.7562 41.6536 36.8194C41.6781 36.999 41.7027 37.1787 41.7272 37.3583C41.8808 37.5196 41.9789 37.7113 42.0215 37.9332C42.0951 40.1604 42.1196 42.388 42.0951 44.6162C42.3703 44.6348 42.6401 44.6109 42.9046 44.5444C42.9647 44.2669 43.0628 44.0034 43.1989 43.7539C43.248 43.4665 43.297 43.179 43.3461 42.8916C43.5112 42.6175 43.6339 42.3301 43.714 42.0292C44.0543 41.9115 44.3977 41.7917 44.7442 41.6699C45.0514 41.5561 45.3212 41.3884 45.5536 41.1669C45.8661 40.7723 46.1604 40.3651 46.4366 39.9453C46.3432 39.659 46.3432 39.3716 46.4366 39.083C46.5905 38.6004 46.7377 38.1213 46.8782 37.6458C47.2415 37.4326 47.6094 37.241 47.9819 37.0709C47.971 36.9953 47.9832 36.9234 48.0187 36.8553C48.5511 36.1564 49.0048 35.4138 49.38 34.6276C49.7732 33.9565 50.1656 33.2858 50.5574 32.6155C51.5187 31.7248 52.4262 30.7906 53.2801 29.8129C53.4141 29.0344 53.8556 28.4835 54.6046 28.1602Z" fill="#FFFCF0"/>
</svg>
