<svg width="258" height="49" viewBox="0 0 258 49" fill="none" xmlns="http://www.w3.org/2000/svg">
<path d="M102.797 29H100.383V24.0703H95.8594V29H93.4375V17.5781H95.8594V22.0547H100.383V17.5781H102.797V29ZM113.438 24.6172C113.438 25.3464 113.339 25.9922 113.141 26.5547C112.948 27.1172 112.664 27.5938 112.289 27.9844C111.919 28.3698 111.471 28.6615 110.945 28.8594C110.424 29.0573 109.836 29.1562 109.18 29.1562C108.565 29.1562 108 29.0573 107.484 28.8594C106.974 28.6615 106.529 28.3698 106.148 27.9844C105.773 27.5938 105.482 27.1172 105.273 26.5547C105.07 25.9922 104.969 25.3464 104.969 24.6172C104.969 23.6484 105.141 22.8281 105.484 22.1562C105.828 21.4844 106.318 20.974 106.953 20.625C107.589 20.276 108.346 20.1016 109.227 20.1016C110.044 20.1016 110.768 20.276 111.398 20.625C112.034 20.974 112.531 21.4844 112.891 22.1562C113.255 22.8281 113.438 23.6484 113.438 24.6172ZM107.398 24.6172C107.398 25.1901 107.461 25.6719 107.586 26.0625C107.711 26.4531 107.906 26.7474 108.172 26.9453C108.438 27.1432 108.784 27.2422 109.211 27.2422C109.633 27.2422 109.974 27.1432 110.234 26.9453C110.5 26.7474 110.693 26.4531 110.812 26.0625C110.938 25.6719 111 25.1901 111 24.6172C111 24.0391 110.938 23.5599 110.812 23.1797C110.693 22.7943 110.5 22.5052 110.234 22.3125C109.969 22.1198 109.622 22.0234 109.195 22.0234C108.565 22.0234 108.107 22.2396 107.82 22.6719C107.539 23.1042 107.398 23.7526 107.398 24.6172ZM123.422 20.2656V29H121.594L121.273 27.8828H121.148C120.961 28.1797 120.727 28.4219 120.445 28.6094C120.164 28.7969 119.854 28.9349 119.516 29.0234C119.177 29.112 118.826 29.1562 118.461 29.1562C117.836 29.1562 117.292 29.0469 116.828 28.8281C116.365 28.6042 116.003 28.2578 115.742 27.7891C115.487 27.3203 115.359 26.7109 115.359 25.9609V20.2656H117.742V25.3672C117.742 25.9922 117.854 26.4635 118.078 26.7812C118.302 27.099 118.659 27.2578 119.148 27.2578C119.633 27.2578 120.013 27.1484 120.289 26.9297C120.565 26.7057 120.758 26.3802 120.867 25.9531C120.982 25.5208 121.039 24.9948 121.039 24.375V20.2656H123.422ZM128 29L124.672 20.2656H127.164L128.852 25.2422C128.945 25.5339 129.018 25.8411 129.07 26.1641C129.128 26.487 129.167 26.776 129.188 27.0312H129.25C129.266 26.7552 129.302 26.4609 129.359 26.1484C129.422 25.8359 129.503 25.5339 129.602 25.2422L131.281 20.2656H133.773L130.445 29H128ZM138.609 20.0859C139.781 20.0859 140.68 20.3411 141.305 20.8516C141.93 21.362 142.242 22.138 142.242 23.1797V29H140.578L140.117 27.8125H140.055C139.805 28.125 139.549 28.3802 139.289 28.5781C139.029 28.776 138.729 28.9219 138.391 29.0156C138.052 29.1094 137.641 29.1562 137.156 29.1562C136.641 29.1562 136.177 29.0573 135.766 28.8594C135.359 28.6615 135.039 28.3594 134.805 27.9531C134.57 27.5417 134.453 27.0208 134.453 26.3906C134.453 25.4635 134.779 24.7812 135.43 24.3438C136.081 23.901 137.057 23.6562 138.359 23.6094L139.875 23.5625V23.1797C139.875 22.7214 139.755 22.3854 139.516 22.1719C139.276 21.9583 138.943 21.8516 138.516 21.8516C138.094 21.8516 137.68 21.9115 137.273 22.0312C136.867 22.151 136.461 22.3021 136.055 22.4844L135.266 20.875C135.729 20.6302 136.247 20.4375 136.82 20.2969C137.398 20.1562 137.995 20.0859 138.609 20.0859ZM139.875 24.9531L138.953 24.9844C138.182 25.0052 137.646 25.1432 137.344 25.3984C137.047 25.6536 136.898 25.9896 136.898 26.4062C136.898 26.7708 137.005 27.0312 137.219 27.1875C137.432 27.3385 137.711 27.4141 138.055 27.4141C138.565 27.4141 138.995 27.263 139.344 26.9609C139.698 26.6589 139.875 26.2292 139.875 25.6719V24.9531ZM150.797 26.4062C150.797 27 150.656 27.5026 150.375 27.9141C150.099 28.3203 149.685 28.6302 149.133 28.8438C148.581 29.0521 147.893 29.1562 147.07 29.1562C146.461 29.1562 145.938 29.1172 145.5 29.0391C145.068 28.9609 144.63 28.8307 144.188 28.6484V26.6797C144.661 26.8932 145.169 27.0703 145.711 27.2109C146.258 27.3464 146.737 27.4141 147.148 27.4141C147.612 27.4141 147.943 27.3464 148.141 27.2109C148.344 27.0703 148.445 26.888 148.445 26.6641C148.445 26.5182 148.404 26.388 148.32 26.2734C148.242 26.1536 148.07 26.0208 147.805 25.875C147.539 25.724 147.122 25.5286 146.555 25.2891C146.008 25.0599 145.557 24.8281 145.203 24.5938C144.854 24.3594 144.594 24.0833 144.422 23.7656C144.255 23.4427 144.172 23.0339 144.172 22.5391C144.172 21.7318 144.484 21.125 145.109 20.7188C145.74 20.3073 146.581 20.1016 147.633 20.1016C148.174 20.1016 148.69 20.1562 149.18 20.2656C149.674 20.375 150.182 20.5495 150.703 20.7891L149.984 22.5078C149.552 22.3203 149.143 22.1667 148.758 22.0469C148.378 21.9271 147.99 21.8672 147.594 21.8672C147.245 21.8672 146.982 21.9141 146.805 22.0078C146.628 22.1016 146.539 22.2448 146.539 22.4375C146.539 22.5781 146.583 22.7031 146.672 22.8125C146.766 22.9219 146.943 23.0443 147.203 23.1797C147.469 23.3099 147.857 23.4792 148.367 23.6875C148.862 23.8906 149.292 24.1042 149.656 24.3281C150.021 24.5469 150.302 24.8203 150.5 25.1484C150.698 25.4714 150.797 25.8906 150.797 26.4062ZM156.336 27.2578C156.596 27.2578 156.849 27.2318 157.094 27.1797C157.344 27.1276 157.591 27.0625 157.836 26.9844V28.7578C157.581 28.8724 157.263 28.9661 156.883 29.0391C156.508 29.1172 156.096 29.1562 155.648 29.1562C155.128 29.1562 154.659 29.0729 154.242 28.9062C153.831 28.7344 153.505 28.4401 153.266 28.0234C153.031 27.6016 152.914 27.0156 152.914 26.2656V22.0547H151.773V21.0469L153.086 20.25L153.773 18.4062H155.297V20.2656H157.742V22.0547H155.297V26.2656C155.297 26.599 155.391 26.849 155.578 27.0156C155.771 27.1771 156.023 27.2578 156.336 27.2578ZM164.201 19.8828V22.0039C164.201 22.25 164.193 22.4941 164.178 22.7363C164.166 22.9785 164.15 23.166 164.131 23.2988H164.201C164.373 23.0293 164.607 22.8008 164.904 22.6133C165.201 22.4219 165.586 22.3262 166.059 22.3262C166.793 22.3262 167.389 22.6133 167.846 23.1875C168.303 23.7617 168.531 24.6035 168.531 25.7129C168.531 26.459 168.426 27.0859 168.215 27.5938C168.004 28.0977 167.709 28.4785 167.33 28.7363C166.951 28.9902 166.512 29.1172 166.012 29.1172C165.531 29.1172 165.152 29.0312 164.875 28.8594C164.598 28.6875 164.373 28.4941 164.201 28.2793H164.078L163.779 29H162.414V19.8828H164.201ZM165.484 23.7559C165.172 23.7559 164.924 23.8203 164.74 23.9492C164.557 24.0781 164.422 24.2715 164.336 24.5293C164.254 24.7871 164.209 25.1133 164.201 25.5078V25.7012C164.201 26.3379 164.295 26.8262 164.482 27.166C164.67 27.502 165.012 27.6699 165.508 27.6699C165.875 27.6699 166.166 27.5 166.381 27.1602C166.6 26.8203 166.709 26.3301 166.709 25.6895C166.709 25.0488 166.6 24.5664 166.381 24.2422C166.162 23.918 165.863 23.7559 165.484 23.7559ZM171.795 22.4492V29H170.008V22.4492H171.795ZM170.904 19.8828C171.17 19.8828 171.398 19.9453 171.59 20.0703C171.781 20.1914 171.877 20.4199 171.877 20.7559C171.877 21.0879 171.781 21.3184 171.59 21.4473C171.398 21.5723 171.17 21.6348 170.904 21.6348C170.635 21.6348 170.404 21.5723 170.213 21.4473C170.025 21.3184 169.932 21.0879 169.932 20.7559C169.932 20.4199 170.025 20.1914 170.213 20.0703C170.404 19.9453 170.635 19.8828 170.904 19.8828ZM173.148 31.8828C172.945 31.8828 172.734 31.8672 172.516 31.8359C172.297 31.8086 172.115 31.7754 171.971 31.7363V30.3301C172.115 30.3691 172.252 30.3965 172.381 30.4121C172.506 30.4316 172.648 30.4414 172.809 30.4414C173.051 30.4414 173.256 30.373 173.424 30.2363C173.592 30.1035 173.676 29.8398 173.676 29.4453V22.4492H175.463V29.709C175.463 30.1074 175.387 30.4707 175.234 30.7988C175.082 31.1309 174.836 31.3945 174.496 31.5898C174.156 31.7852 173.707 31.8828 173.148 31.8828ZM173.6 20.7559C173.6 20.4199 173.693 20.1914 173.881 20.0703C174.072 19.9453 174.303 19.8828 174.572 19.8828C174.838 19.8828 175.066 19.9453 175.258 20.0703C175.449 20.1914 175.545 20.4199 175.545 20.7559C175.545 21.0879 175.449 21.3184 175.258 21.4473C175.066 21.5723 174.838 21.6348 174.572 21.6348C174.303 21.6348 174.072 21.5723 173.881 21.4473C173.693 21.3184 173.6 21.0879 173.6 20.7559ZM190.438 23.1797C190.438 24.4661 190.19 25.5417 189.695 26.4062C189.206 27.2656 188.495 27.9141 187.562 28.3516C186.63 28.7839 185.508 29 184.195 29H180.961V17.5781H184.547C185.745 17.5781 186.784 17.7917 187.664 18.2188C188.544 18.6406 189.227 19.2682 189.711 20.1016C190.195 20.9297 190.438 21.9557 190.438 23.1797ZM187.922 23.2422C187.922 22.3984 187.797 21.7057 187.547 21.1641C187.302 20.6172 186.938 20.2135 186.453 19.9531C185.974 19.6927 185.38 19.5625 184.672 19.5625H183.383V27H184.422C185.604 27 186.482 26.6849 187.055 26.0547C187.633 25.4245 187.922 24.487 187.922 23.2422ZM196.219 20.1016C197.026 20.1016 197.721 20.2578 198.305 20.5703C198.888 20.8776 199.339 21.3255 199.656 21.9141C199.974 22.5026 200.133 23.2214 200.133 24.0703V25.2266H194.5C194.526 25.8984 194.727 26.4271 195.102 26.8125C195.482 27.1927 196.008 27.3828 196.68 27.3828C197.237 27.3828 197.747 27.3255 198.211 27.2109C198.674 27.0964 199.151 26.9245 199.641 26.6953V28.5391C199.208 28.7526 198.755 28.9089 198.281 29.0078C197.812 29.1068 197.242 29.1562 196.57 29.1562C195.695 29.1562 194.919 28.9948 194.242 28.6719C193.57 28.349 193.042 27.8568 192.656 27.1953C192.276 26.5339 192.086 25.7005 192.086 24.6953C192.086 23.6745 192.258 22.8255 192.602 22.1484C192.951 21.4661 193.435 20.9557 194.055 20.6172C194.674 20.2734 195.396 20.1016 196.219 20.1016ZM196.234 21.7969C195.771 21.7969 195.385 21.9453 195.078 22.2422C194.776 22.5391 194.602 23.0052 194.555 23.6406H197.898C197.893 23.2865 197.828 22.9714 197.703 22.6953C197.583 22.4193 197.401 22.2005 197.156 22.0391C196.917 21.8776 196.609 21.7969 196.234 21.7969ZM212.328 20.1016C213.318 20.1016 214.065 20.3568 214.57 20.8672C215.081 21.3724 215.336 22.1849 215.336 23.3047V29H212.945V23.8984C212.945 23.2734 212.839 22.8021 212.625 22.4844C212.411 22.1667 212.081 22.0078 211.633 22.0078C211.003 22.0078 210.555 22.2344 210.289 22.6875C210.023 23.1354 209.891 23.7786 209.891 24.6172V29H207.508V23.8984C207.508 23.4818 207.461 23.1328 207.367 22.8516C207.273 22.5703 207.13 22.3594 206.938 22.2188C206.745 22.0781 206.497 22.0078 206.195 22.0078C205.753 22.0078 205.404 22.1198 205.148 22.3438C204.898 22.5625 204.719 22.888 204.609 23.3203C204.505 23.7474 204.453 24.2708 204.453 24.8906V29H202.07V20.2656H203.891L204.211 21.3828H204.344C204.521 21.0807 204.742 20.8359 205.008 20.6484C205.279 20.4609 205.576 20.3229 205.898 20.2344C206.221 20.1458 206.549 20.1016 206.883 20.1016C207.523 20.1016 208.065 20.2057 208.508 20.4141C208.956 20.6224 209.299 20.9453 209.539 21.3828H209.75C210.01 20.9349 210.378 20.6094 210.852 20.4062C211.331 20.2031 211.823 20.1016 212.328 20.1016ZM221.391 20.1016C222.198 20.1016 222.893 20.2578 223.477 20.5703C224.06 20.8776 224.51 21.3255 224.828 21.9141C225.146 22.5026 225.305 23.2214 225.305 24.0703V25.2266H219.672C219.698 25.8984 219.898 26.4271 220.273 26.8125C220.654 27.1927 221.18 27.3828 221.852 27.3828C222.409 27.3828 222.919 27.3255 223.383 27.2109C223.846 27.0964 224.323 26.9245 224.812 26.6953V28.5391C224.38 28.7526 223.927 28.9089 223.453 29.0078C222.984 29.1068 222.414 29.1562 221.742 29.1562C220.867 29.1562 220.091 28.9948 219.414 28.6719C218.742 28.349 218.214 27.8568 217.828 27.1953C217.448 26.5339 217.258 25.7005 217.258 24.6953C217.258 23.6745 217.43 22.8255 217.773 22.1484C218.122 21.4661 218.607 20.9557 219.227 20.6172C219.846 20.2734 220.568 20.1016 221.391 20.1016ZM221.406 21.7969C220.943 21.7969 220.557 21.9453 220.25 22.2422C219.948 22.5391 219.773 23.0052 219.727 23.6406H223.07C223.065 23.2865 223 22.9714 222.875 22.6953C222.755 22.4193 222.573 22.2005 222.328 22.0391C222.089 21.8776 221.781 21.7969 221.406 21.7969ZM232.203 20.1016C233.135 20.1016 233.885 20.3568 234.453 20.8672C235.021 21.3724 235.305 22.1849 235.305 23.3047V29H232.922V23.8984C232.922 23.2734 232.807 22.8021 232.578 22.4844C232.354 22.1667 232 22.0078 231.516 22.0078C230.786 22.0078 230.289 22.2552 230.023 22.75C229.758 23.2448 229.625 23.9583 229.625 24.8906V29H227.242V20.2656H229.062L229.383 21.3828H229.516C229.703 21.0807 229.935 20.8359 230.211 20.6484C230.492 20.4609 230.802 20.3229 231.141 20.2344C231.484 20.1458 231.839 20.1016 232.203 20.1016ZM241.438 27.2578C241.698 27.2578 241.951 27.2318 242.195 27.1797C242.445 27.1276 242.693 27.0625 242.938 26.9844V28.7578C242.682 28.8724 242.365 28.9661 241.984 29.0391C241.609 29.1172 241.198 29.1562 240.75 29.1562C240.229 29.1562 239.76 29.0729 239.344 28.9062C238.932 28.7344 238.607 28.4401 238.367 28.0234C238.133 27.6016 238.016 27.0156 238.016 26.2656V22.0547H236.875V21.0469L238.188 20.25L238.875 18.4062H240.398V20.2656H242.844V22.0547H240.398V26.2656C240.398 26.599 240.492 26.849 240.68 27.0156C240.872 27.1771 241.125 27.2578 241.438 27.2578ZM247.094 20.2656V29H244.711V20.2656H247.094ZM245.906 16.8438C246.26 16.8438 246.565 16.9271 246.82 17.0938C247.076 17.2552 247.203 17.5599 247.203 18.0078C247.203 18.4505 247.076 18.7578 246.82 18.9297C246.565 19.0964 246.26 19.1797 245.906 19.1797C245.547 19.1797 245.24 19.0964 244.984 18.9297C244.734 18.7578 244.609 18.4505 244.609 18.0078C244.609 17.5599 244.734 17.2552 244.984 17.0938C245.24 16.9271 245.547 16.8438 245.906 16.8438ZM253.203 20.1016C254.01 20.1016 254.706 20.2578 255.289 20.5703C255.872 20.8776 256.323 21.3255 256.641 21.9141C256.958 22.5026 257.117 23.2214 257.117 24.0703V25.2266H251.484C251.51 25.8984 251.711 26.4271 252.086 26.8125C252.466 27.1927 252.992 27.3828 253.664 27.3828C254.221 27.3828 254.732 27.3255 255.195 27.2109C255.659 27.0964 256.135 26.9245 256.625 26.6953V28.5391C256.193 28.7526 255.74 28.9089 255.266 29.0078C254.797 29.1068 254.227 29.1562 253.555 29.1562C252.68 29.1562 251.904 28.9948 251.227 28.6719C250.555 28.349 250.026 27.8568 249.641 27.1953C249.26 26.5339 249.07 25.7005 249.07 24.6953C249.07 23.6745 249.242 22.8255 249.586 22.1484C249.935 21.4661 250.419 20.9557 251.039 20.6172C251.659 20.2734 252.38 20.1016 253.203 20.1016ZM253.219 21.7969C252.755 21.7969 252.37 21.9453 252.062 22.2422C251.76 22.5391 251.586 23.0052 251.539 23.6406H254.883C254.878 23.2865 254.812 22.9714 254.688 22.6953C254.568 22.4193 254.385 22.2005 254.141 22.0391C253.901 21.8776 253.594 21.7969 253.219 21.7969Z" fill="#FFFCF0"/>
<path opacity="0.858" fill-rule="evenodd" clip-rule="evenodd" d="M79.6877 14.2917C79.5927 14.2349 79.5066 14.1631 79.4301 14.0761C79.3632 14.159 79.3013 14.147 79.2462 14.0402C79.2704 14.0163 79.2955 13.9923 79.3197 13.9683C79.0909 13.9721 78.9069 13.8883 78.7678 13.7168C78.7222 13.6486 78.7347 13.5888 78.8046 13.5372C78.7642 13.4707 78.7156 13.4108 78.6575 13.3575C78.5059 13.4732 78.3587 13.5211 78.216 13.5012C77.9709 12.4951 77.8363 11.4651 77.8112 10.4112C77.7377 10.1115 77.6273 9.82405 77.4801 9.5489C77.1917 9.12305 76.848 8.73982 76.4499 8.39913C76.0732 7.73571 75.6074 7.1369 75.0518 6.60261C75.1011 6.55468 75.1497 6.50682 75.199 6.45889C74.1835 6.28125 73.4719 5.73037 73.065 4.8061C73.0087 4.72619 72.9351 4.67826 72.8442 4.66238C72.8442 4.56659 72.7952 4.51866 72.6971 4.51866C71.3669 3.79739 69.9933 3.15065 68.5763 2.57842C68.2001 2.48615 67.8199 2.41429 67.4357 2.36284C67.1585 2.37118 66.901 2.44304 66.6631 2.57842C65.9517 2.67421 65.2405 2.67421 64.5291 2.57842C64.2037 2.43765 63.897 2.26992 63.6093 2.0754C63.2745 2.27668 62.9189 2.4444 62.5423 2.57842C61.7574 3.05752 60.9725 3.53654 60.1876 4.01563C59.7216 4.47073 59.2555 4.92589 58.7895 5.38098C58.3272 5.66483 57.8857 5.97628 57.4649 6.31517C57.3775 6.38193 57.2794 6.40586 57.1706 6.38703C57.1061 6.39645 57.0571 6.37252 57.0234 6.31517C57.2152 6.16577 57.2152 6.02205 57.0234 5.88401C57.1627 5.48439 57.4324 5.19695 57.8329 5.02168C58.2499 4.61445 58.6668 4.20729 59.0838 3.80005C59.9991 3.23235 60.833 2.56168 61.5857 1.78796C61.782 1.74002 61.9781 1.69216 62.1744 1.64423C62.613 1.40947 63.0545 1.1699 63.4989 0.925628C64.0186 0.839158 64.4846 0.958928 64.897 1.28493C65.3459 1.07873 65.7874 1.10269 66.2216 1.35679C66.9084 1.40472 67.5952 1.45258 68.282 1.50051C68.755 1.53989 69.1475 1.73154 69.4593 2.0754C69.8885 2.29493 70.3301 2.48658 70.7839 2.65028C71.2338 3.04156 71.7243 3.37694 72.2556 3.65633C72.5438 3.76218 72.8381 3.84597 73.1386 3.90784C73.3668 4.02268 73.563 4.1784 73.7273 4.37494C73.8936 4.46828 74.065 4.54014 74.2424 4.59052C74.2821 5.0265 74.5146 5.31394 74.9414 5.45284C75.0216 5.39564 75.1077 5.34771 75.199 5.30912C75.8318 5.42381 76.3719 5.69933 76.8178 6.13552C77.0143 6.24331 77.2101 6.3511 77.4065 6.45889C77.5544 6.67584 77.628 6.91535 77.6273 7.1775C77.5257 7.55505 77.4764 7.93829 77.4801 8.32727C77.5574 8.31656 77.631 8.32849 77.7009 8.3632C77.8834 8.57763 78.0798 8.78128 78.2895 8.97401C78.4455 9.42214 78.6413 9.8533 78.8782 10.2675C78.9275 11.3215 78.9761 12.3754 79.0254 13.4294C79.3352 13.659 79.5559 13.9465 79.6877 14.2917Z" fill="#FFFCF0"/>
<path opacity="0.807" fill-rule="evenodd" clip-rule="evenodd" d="M30.7517 8.97401C30.6283 9.02309 30.5793 9.11895 30.6045 9.26145C30.4328 9.26145 30.2611 9.26145 30.0894 9.26145C29.8999 8.95439 29.7773 8.61902 29.7215 8.2554C29.4214 7.88482 29.1393 7.50159 28.8753 7.10563C28.6237 7.50583 28.6482 7.88913 28.9488 8.2554C29.0594 8.61499 29.1698 8.9743 29.28 9.33331C29.0157 10.3296 28.7704 11.3236 28.5441 12.3155C28.6804 12.5777 28.7172 12.8532 28.6545 13.1419C28.2918 13.6051 27.838 13.9405 27.2932 14.148C27.1021 14.1321 27.1021 14.0962 27.2932 14.0402C27.1932 13.9731 27.0951 13.9131 26.9988 13.8605C27.0295 13.6562 27.1031 13.4646 27.2196 13.2856C27.4234 13.1347 27.5706 12.943 27.6611 12.7108C27.8912 11.611 28.112 10.5092 28.3234 9.40517C28.312 9.14662 28.2385 8.90711 28.1026 8.68657C28.0535 8.30334 28.0045 7.92003 27.9554 7.5368C27.8151 7.25582 27.6189 7.01624 27.3668 6.81819C27.2325 6.50797 27.1099 6.1966 26.9988 5.88401C26.4584 5.47612 25.8697 5.14075 25.2328 4.87796C24.9964 4.65224 24.7511 4.43666 24.4969 4.23121C24.3669 3.85718 24.1462 3.54581 23.8347 3.29702C23.321 3.09409 22.806 2.90244 22.2894 2.72214C22.1523 2.55018 22.0542 2.35853 21.995 2.14725C20.9476 1.54909 19.8193 1.35744 18.6101 1.57237C18.2408 1.77667 17.8974 2.01618 17.5799 2.29098C16.9274 2.48974 16.2896 2.72925 15.6667 3.00958C14.8818 3.44075 14.0969 3.87191 13.312 4.30307C12.9873 4.59576 12.693 4.9072 12.429 5.23726C12.1491 5.01765 12.0878 4.77814 12.245 4.51865C12.2695 4.56659 12.2941 4.61444 12.3186 4.66238C12.3552 4.49638 12.3674 4.32873 12.3554 4.15935C13.5926 3.11184 15.0152 2.38123 16.6233 1.9676C17.5158 1.09399 18.6073 0.674803 19.8979 0.710043C20.6929 0.677404 21.441 0.845077 22.1422 1.21307C22.443 1.45854 22.6882 1.74599 22.8781 2.07539C23.6826 2.2646 24.3939 2.62391 25.012 3.1533C25.1248 3.28186 25.1984 3.42558 25.2328 3.58447C26.747 3.75938 27.9366 4.45405 28.8017 5.66842C29.1467 6.15104 29.4533 6.65406 29.7215 7.1775C29.9277 7.26459 30.1116 7.38438 30.2734 7.5368C30.4928 7.99843 30.6523 8.47745 30.7517 8.97401Z" fill="#FFFCF0"/>
<path opacity="0.01" fill-rule="evenodd" clip-rule="evenodd" d="M72.6953 4.52051C72.7934 4.52051 72.8425 4.56835 72.8425 4.66396C72.7444 4.66396 72.6953 4.61612 72.6953 4.52051Z" fill="#FFFCF0"/>
<path opacity="0.01" fill-rule="evenodd" clip-rule="evenodd" d="M56.444 6.96094C56.444 7.05655 56.395 7.10439 56.2969 7.10439C56.2969 7.00878 56.346 6.96094 56.444 6.96094Z" fill="#FFFCF0"/>
<path opacity="0.823" fill-rule="evenodd" clip-rule="evenodd" d="M12.3623 4.1582C12.3743 4.32758 12.3621 4.49523 12.3255 4.66123C12.301 4.6133 12.2764 4.56544 12.2519 4.51751C12.0947 4.77699 12.156 5.01651 12.4359 5.23611C12.084 6.1629 11.6916 7.07316 11.2585 7.96681C11.0751 8.00102 10.9279 8.09688 10.817 8.25426C10.5646 8.88095 10.3929 9.5277 10.3019 10.1945C10.3272 10.4507 10.3762 10.7022 10.4491 10.949C10.4246 11.0329 10.4 11.1167 10.3755 11.2005C9.934 11.5359 9.49248 11.8712 9.05097 12.2066C9.08975 14.0008 9.08975 15.7973 9.05097 17.5961C9.1119 17.6619 9.18549 17.7097 9.27173 17.7399C9.78741 17.4643 10.2779 17.1528 10.7434 16.8057C11.5288 16.566 12.3137 16.3265 13.0982 16.0871C14.1529 15.9913 15.2076 15.9913 16.2623 16.0871C16.6074 16.3634 16.9999 16.543 17.4397 16.626C18.9165 17.3111 20.3391 18.0896 21.7076 18.9615C22.5942 19.8975 23.3301 20.9274 23.9152 22.0515C24.0402 22.063 24.1629 22.0511 24.2831 22.0156C24.5436 21.8452 24.8134 21.6895 25.0925 21.5485C25.2828 21.478 25.4791 21.4541 25.6812 21.4766C25.6716 21.2046 25.6225 20.9411 25.534 20.6861C25.534 20.5903 25.485 20.5424 25.3869 20.5424C25.3101 20.1015 25.1875 19.6703 25.019 19.2489C24.1227 18.7985 23.3132 18.2236 22.5906 17.5243C22.5401 17.3968 22.4788 17.277 22.4067 17.165C22.3454 15.6793 22.3577 14.1942 22.4435 12.7096C22.56 12.5307 22.6335 12.339 22.6642 12.1347C23.5314 11.8887 24.4144 11.697 25.3133 11.5598C25.6548 11.6187 25.9737 11.7385 26.2699 11.9191C26.362 12.027 26.4356 12.1468 26.4907 12.2784C26.564 12.8032 26.5886 13.3303 26.5642 13.8594C26.7114 13.8594 26.8586 13.8594 27.0058 13.8594C27.102 13.912 27.2002 13.9719 27.3001 14.039C27.109 14.095 27.109 14.1309 27.3001 14.1468C26.9839 14.4656 26.7876 14.8369 26.7114 15.2607C26.7359 15.4164 26.7605 15.572 26.785 15.7278C27.0202 16.1798 27.2164 16.6469 27.3737 17.129C27.2146 17.499 27.0674 17.8704 26.9322 18.2429C25.9794 18.7437 25.7341 19.4864 26.1963 20.4706C26.3029 20.8226 26.4501 21.1579 26.6378 21.4766C26.7205 21.5516 26.8186 21.5995 26.9322 21.6203C27.5548 21.5259 28.1802 21.4301 28.8086 21.3329C28.9672 21.3512 29.1144 21.3991 29.2501 21.4766C29.32 21.4391 29.3814 21.3912 29.4341 21.3329C29.6002 20.2961 29.87 19.29 30.2435 18.3147C30.1548 18.15 30.1057 17.9703 30.0963 17.7758C30.1944 17.129 30.2926 16.4823 30.3907 15.8355C30.1795 15.0735 30.204 14.319 30.4643 13.5719C30.5133 12.9013 30.5623 12.2305 30.6114 11.5598C30.7158 11.3022 30.8875 11.0986 31.1265 10.949C30.8856 10.8793 30.6648 10.7715 30.4643 10.6257C30.2837 10.1838 30.1611 9.72869 30.0963 9.2603C30.268 9.2603 30.4397 9.2603 30.6114 9.2603C30.5862 9.11781 30.6353 9.02194 30.7586 8.97286C30.8222 9.29279 30.9203 9.60423 31.0529 9.90705C31.4899 10.1062 31.7842 10.4296 31.936 10.8772C31.7571 11.2743 31.561 11.6575 31.3473 12.0269C31.3899 12.1846 31.439 12.3402 31.4944 12.494C31.3976 13.2609 31.2504 14.0154 31.0529 14.7576C31.1433 15.0346 31.1923 15.322 31.2001 15.62C31.1729 17.3036 30.9031 18.9445 30.3907 20.5424C30.3179 20.8016 30.2933 21.0651 30.3171 21.3329C31.634 21.0755 32.7377 21.4587 33.6284 22.4827C33.8187 22.8665 34.015 23.2378 34.2171 23.5965C34.5801 23.6912 34.948 23.7511 35.3209 23.7761C35.3209 23.848 35.3209 23.9199 35.3209 23.9917C35.5962 24.0433 35.817 24.187 35.9831 24.4229C36.3381 25.1643 36.7306 25.8829 37.1605 26.5787C37.3122 27.1928 37.4103 27.8156 37.4548 28.4471C38.1368 28.9691 38.7745 29.544 39.3681 30.1717C39.6324 30.7606 39.9512 31.3115 40.3247 31.8245C40.213 31.8253 40.1272 31.8732 40.0671 31.9683C40.0576 32.1697 40.0821 32.3613 40.1407 32.5431C40.0472 32.4438 39.9368 32.3719 39.8096 32.3276C39.4623 31.9627 39.1312 31.5795 38.8162 31.1778C38.3656 30.0071 37.5439 29.2166 36.3511 28.8064C36.3219 29.043 36.2238 29.2466 36.0567 29.4172C36.2756 29.4523 36.4472 29.5601 36.5718 29.7406C36.7836 29.9956 36.9308 30.283 37.0133 30.6029C37.1489 31.6054 37.247 32.6114 37.3077 33.621C37.3802 33.9169 37.4783 34.2043 37.602 34.4834C37.6511 35.5374 37.7001 36.5913 37.7492 37.6452C38.2675 38.3194 38.7581 39.0141 39.2209 39.7292C39.4213 40.5399 39.5929 41.3544 39.736 42.1725C39.4948 42.2885 39.2741 42.4322 39.0737 42.6036C38.9806 41.3793 38.6126 40.2296 37.9699 39.1543C37.3147 38.6888 36.9222 38.066 36.7926 37.2859C36.7435 36.2799 36.6945 35.2738 36.6454 34.2678C36.4042 33.4455 36.2693 32.6071 36.2407 31.7527C36.136 31.3025 36.0256 30.8474 35.9096 30.3873C35.6643 30.1478 35.419 29.9082 35.1737 29.6687C35.0756 29.4531 35.0756 29.2375 35.1737 29.022C35.4869 28.5721 35.8548 28.1649 36.2775 27.8003C36.365 27.7336 36.4631 27.7096 36.5718 27.7285C36.5105 27.4167 36.4369 27.1053 36.3511 26.7943C35.945 26.2361 35.6016 25.6372 35.3209 24.9978C34.9418 24.6181 34.4757 24.4025 33.9228 24.351C33.7265 24.2552 33.5303 24.1594 33.3341 24.0636C33.1138 23.6109 32.8931 23.1558 32.6718 22.6982C32.4292 22.4929 32.1594 22.3252 31.8624 22.1952C31.6784 22.1713 31.4944 22.1473 31.3105 22.1234C30.5255 22.315 29.7407 22.315 28.9558 22.1234C28.1375 22.2206 27.3281 22.3643 26.5274 22.5545C26.1916 22.5509 25.9341 22.4072 25.7548 22.1234C25.1194 22.3256 24.5062 22.589 23.9152 22.9138C23.3722 23.0362 22.8326 23.156 22.2963 23.2731C22.2736 23.4473 22.2982 23.615 22.3699 23.7761C22.6497 24.3797 22.9441 24.9786 23.2529 25.5727C23.5087 26.5617 23.8521 27.5198 24.2831 28.4471C24.5774 28.8303 24.8718 29.2136 25.1661 29.5969C25.2345 29.6823 25.259 29.7781 25.2397 29.8843C25.7093 29.7992 26.1508 29.6315 26.5642 29.3813C27.2398 29.1134 27.9267 28.8739 28.6246 28.6627C28.89 28.5916 29.1599 28.5676 29.4341 28.5908C29.4341 28.7106 29.4341 28.8303 29.4341 28.9501C28.7804 29.227 28.1181 29.4904 27.4473 29.7406C26.9177 30.0348 26.4026 30.3461 25.902 30.6748C25.7009 31.5918 25.5292 32.514 25.3869 33.4414C25.4597 34.4295 25.6313 35.3997 25.902 36.3517C26.0736 36.5194 26.2454 36.6871 26.4171 36.8548C26.5046 36.9215 26.6027 36.9455 26.7114 36.9266C26.7114 37.0224 26.7114 37.1183 26.7114 37.2141C26.785 37.2141 26.8586 37.2141 26.9322 37.2141C26.9322 37.3817 26.9322 37.5494 26.9322 37.7171C26.8586 37.7171 26.785 37.7171 26.7114 37.7171C26.6499 37.9393 26.6008 38.1669 26.5642 38.3998C26.6506 38.7431 26.6996 39.0904 26.7114 39.4418C26.7114 39.5375 26.7605 39.5855 26.8586 39.5855C27.0261 39.9921 27.0997 40.4233 27.0793 40.879C26.0466 40.8588 25.6541 41.3379 25.902 42.3162C25.949 42.8152 26.1698 43.2225 26.5642 43.5378C26.8813 43.6687 27.1757 43.8363 27.4473 44.0408C27.5879 44.3996 27.5266 44.711 27.2633 44.975C27.1443 45.2293 27.0953 45.4928 27.1161 45.7655C27.427 46.7803 27.8808 47.7385 28.4775 48.6399C28.5475 48.7509 28.572 48.8707 28.551 48.9992C28.2322 48.9992 27.9133 48.9992 27.5944 48.9992C27.0338 47.8921 26.5433 46.7542 26.1227 45.5858C26.3055 45.1811 26.5017 44.7859 26.7114 44.4001C25.9243 44.1342 25.4092 43.6073 25.1661 42.8192C25.068 42.1725 25.068 41.5257 25.1661 40.879C25.465 40.5574 25.8329 40.3418 26.2699 40.2322C26.1778 40.1244 26.1042 40.0046 26.0491 39.8729C25.9966 39.3786 25.923 38.8876 25.8284 38.3998C25.857 38.2262 25.906 38.0585 25.9756 37.8967C25.75 37.4728 25.4802 37.0776 25.1661 36.711C25.0465 36.4329 24.9729 36.1454 24.9454 35.8487C24.9454 35.7529 24.8963 35.705 24.7982 35.705C24.7353 35.1149 24.6617 34.516 24.5774 33.9085C24.6907 32.9072 24.8624 31.9131 25.0925 30.9263C25.068 30.7946 25.0435 30.6628 25.019 30.531C24.8963 30.4352 24.7737 30.3394 24.651 30.2436C24.2095 29.5729 23.768 28.9022 23.3265 28.2315C23.0812 27.4407 22.8359 26.6502 22.5906 25.8601C22.1717 25.1019 21.8038 24.3234 21.4869 23.5246C21.5106 23.2748 21.6086 23.0593 21.7812 22.8779C21.0415 22.5025 20.3302 22.0833 19.6472 21.6203C17.8541 21.1164 16.0636 20.6133 14.2755 20.1113C14.2264 19.9196 14.1774 19.9196 14.1283 20.1113C14.0364 20.1057 13.9751 20.0578 13.9444 19.9675C13.3614 20.0843 12.7605 20.1562 12.1416 20.1831C11.0171 20.4395 9.91332 20.7509 8.83022 21.1173C8.73213 21.1173 8.68305 21.1652 8.68305 21.261C8.4305 21.2795 8.18517 21.3274 7.9472 21.4047C7.84911 21.4047 7.80003 21.4527 7.80003 21.5485C7.04175 21.7395 6.3059 22.0031 5.59247 22.3389C5.39624 22.5784 5.20002 22.818 5.00379 23.0575C3.79217 23.697 2.51669 24.176 1.17736 24.4947C0.798311 24.7041 0.405855 24.8717 0 24.9978C0 24.7103 0 24.4229 0 24.1354C0.225476 24.1047 0.446231 24.0568 0.662266 23.9917C0.662266 23.9199 0.662266 23.848 0.662266 23.7761C1.45071 23.5967 2.23562 23.3811 3.01699 23.1294C3.21322 23.0336 3.40944 22.9377 3.60567 22.842C3.85704 22.5483 4.15138 22.3088 4.48869 22.1234C5.4162 21.6375 6.33601 21.1345 7.24814 20.6143C7.2615 20.4184 7.29829 20.2267 7.35852 20.0394C7.88612 19.4519 8.20504 18.7692 8.31512 17.9914C8.12137 16.8297 8.12137 15.668 8.31512 14.5061C8.25154 13.8383 8.15346 13.1795 8.02078 12.53C8.17377 12.0754 8.39452 11.6562 8.68305 11.2724C8.87569 11.035 9.12095 10.8913 9.4189 10.8412C9.53428 9.88714 9.75504 8.95296 10.0812 8.03867C10.3619 7.73075 10.6072 7.39538 10.817 7.03263C11.1407 6.0651 11.5822 5.15491 12.1416 4.30192C12.1978 4.22202 12.2714 4.17408 12.3623 4.1582ZM23.1793 15.5122C23.1793 15.3685 23.1793 15.2247 23.1793 15.081C23.1793 14.9612 23.1793 14.8415 23.1793 14.7217C23.159 14.0681 23.2081 13.4213 23.3265 12.7815C23.7248 12.6318 24.1295 12.4881 24.5406 12.3503C24.6936 12.4152 24.8531 12.4631 25.019 12.494C25.2308 12.401 25.4516 12.353 25.6812 12.3503C25.8594 13.6357 25.982 14.9292 26.0491 16.2308C26.3704 16.6893 26.5421 17.1923 26.5642 17.7399C26.1016 17.8309 25.7337 18.0704 25.4605 18.4585C24.8891 18.1673 24.3249 17.8559 23.768 17.5243C23.6453 17.4045 23.5227 17.2848 23.4001 17.165C23.2333 16.6257 23.1597 16.0748 23.1793 15.5122ZM13.6133 16.8057C14.7587 16.7179 15.8625 16.8855 16.9246 17.3087C17.7408 17.7312 18.5747 18.1145 19.4265 18.4585C20.2739 18.998 21.0343 19.6447 21.7076 20.3987C22.1385 20.9995 22.5555 21.6103 22.9586 22.2311C22.9269 22.3342 22.8656 22.4181 22.7746 22.4827C21.9623 21.8464 21.067 21.3434 20.0887 20.9736C18.151 20.4228 16.2132 19.8838 14.2755 19.3567C13.1873 19.2776 12.108 19.3375 11.0378 19.5364C10.092 19.8362 9.15995 20.1475 8.24154 20.4706C8.25361 20.2372 8.32719 20.0216 8.46229 19.8238C8.65854 19.5364 8.85472 19.2489 9.05097 18.9615C9.78638 18.1946 10.6694 17.6436 11.7 17.3087C12.3504 17.1143 12.9881 16.9467 13.6133 16.8057Z" fill="#FFFCF0"/>
<path opacity="0.01" fill-rule="evenodd" clip-rule="evenodd" d="M54.3737 7.82422C54.3737 7.91983 54.3247 7.96767 54.2266 7.96767C54.2266 7.87206 54.2756 7.82422 54.3737 7.82422Z" fill="#FFFCF0"/>
<path opacity="0.851" fill-rule="evenodd" clip-rule="evenodd" d="M57.0237 5.88379C57.2154 6.02183 57.2154 6.16555 57.0237 6.31495C57.0573 6.3723 57.1064 6.39623 57.1708 6.38681C57.012 6.68044 56.7667 6.87209 56.435 6.9617C56.3369 6.9617 56.2878 7.00963 56.2878 7.10542C55.6378 7.31698 55.0001 7.55649 54.3746 7.82402C54.2765 7.82402 54.2274 7.87196 54.2274 7.96775C53.7004 8.21401 53.2343 8.54939 52.8293 8.97379C52.7191 9.44197 52.4738 9.8252 52.0935 10.1236C51.6949 10.9748 51.2043 11.7653 50.6218 12.495C50.3682 13.3618 50.1474 14.2361 49.9595 15.1179C50.257 15.8098 50.5759 16.4925 50.9161 17.1659C51.4786 17.8112 52.0427 18.458 52.6086 19.1061C52.8869 19.1383 53.1445 19.2101 53.3812 19.3217C53.3935 19.2619 53.4057 19.2019 53.418 19.1421C52.765 17.9265 52.1027 16.7168 51.4312 15.5131C51.3701 15.2493 51.2597 15.0097 51.1001 14.7945C51.0414 14.6681 51.0536 14.5483 51.1369 14.4352C51.4357 14.1136 51.8036 13.898 52.2406 13.7885C54.0553 13.159 55.895 12.632 57.7595 12.2075C58.6061 11.9084 59.44 11.5969 60.2614 11.2733C60.2614 11.2015 60.2614 11.1296 60.2614 11.0578C59.7538 11.0736 59.2632 11.1575 58.7897 11.3093C58.4472 11.3451 58.1038 11.3571 57.7595 11.3452C57.726 11.0857 57.7751 10.8462 57.9067 10.6266C58.2327 10.4765 58.576 10.3808 58.9369 10.3391C59.5652 10.2886 60.1906 10.2167 60.8133 10.1236C60.9482 10.1475 61.0832 10.1715 61.218 10.1954C61.4633 10.3391 61.7086 10.4829 61.9539 10.6266C63.1199 11.8418 63.0953 13.0395 61.8803 14.2196C61.8056 14.4384 61.732 14.6539 61.6595 14.8664C61.7331 14.8664 61.8067 14.8664 61.8803 14.8664C61.8803 14.5789 62.0275 14.4352 62.3218 14.4352C62.4512 14.0382 62.6229 13.6549 62.8369 13.2854C62.878 12.4436 62.9516 11.6052 63.0577 10.7703C63.0332 10.6505 63.0086 10.5308 62.9841 10.411C62.3769 9.91711 61.6778 9.62967 60.8869 9.54868C60.6622 9.57987 60.4415 9.62773 60.2246 9.6924C60.0414 9.63232 59.8574 9.58447 59.6727 9.54868C59.7256 9.27978 59.8727 9.06419 60.1143 8.90193C60.6822 8.78918 61.2218 8.60953 61.7331 8.36298C62.1127 8.32216 62.1863 8.45388 61.9539 8.75821C62.3717 9.03423 62.8132 9.27374 63.2784 9.47682C63.6803 9.85423 63.9501 10.3093 64.0879 10.8422C64.1391 11.1208 64.1882 11.3962 64.235 11.6686C64.1949 12.2879 64.1826 12.9227 64.1982 13.5729C64.3004 13.4082 64.4108 13.2525 64.5294 13.1058C64.4422 13.021 64.3932 12.9132 64.3822 12.7824C64.3808 12.5856 64.4299 12.4059 64.5294 12.2435C64.4966 12.1395 64.4475 12.0437 64.3822 11.956C64.4475 11.8683 64.4966 11.7725 64.5294 11.6686C64.3865 11.4011 64.362 11.1257 64.4558 10.8422C64.527 10.7711 64.6129 10.7232 64.7133 10.6984C64.9284 10.8003 65.1124 10.9441 65.2652 11.1296C65.3146 11.6072 65.3882 12.0743 65.486 12.5309C65.437 13.1164 65.2408 13.6554 64.8973 14.1478C64.6765 14.2435 64.4558 14.2435 64.235 14.1478C64.1347 14.0477 64.0734 13.9279 64.0511 13.7885C63.4814 14.4284 62.9541 15.0991 62.469 15.8005C62.3573 16.0187 62.2469 16.2343 62.1378 16.4473C62.0392 17.1152 61.9779 17.786 61.9539 18.4594C62.5408 18.4962 63.0068 18.2806 63.352 17.8126C63.5675 17.7419 63.7882 17.718 64.0143 17.7408C64.0581 17.9453 64.0581 18.1609 64.0143 18.3875C63.9278 18.3718 63.8542 18.3957 63.7935 18.4594C63.6246 18.6963 63.4284 18.9119 63.2048 19.1061C63.1365 19.1916 63.112 19.2874 63.1312 19.3936C62.935 19.4415 62.7388 19.4894 62.5426 19.5373C62.5186 19.8523 62.5432 20.1637 62.6162 20.4715C63.1335 20.8098 63.4278 21.2889 63.4992 21.9087C63.5726 22.6017 63.5972 23.2963 63.5728 23.9927C63.6546 24.1969 63.6178 24.3885 63.4624 24.5675C63.3611 24.3789 63.2753 24.3789 63.2048 24.5675C62.9236 24.5568 62.7519 24.4131 62.6897 24.1364C62.6533 23.2192 62.5797 22.309 62.469 21.4057C62.2832 21.3238 62.0869 21.2758 61.8803 21.262C61.8369 20.9855 61.7142 20.746 61.5124 20.5433C61.4729 19.8033 61.3257 19.0846 61.0709 18.3875C61.0464 18.0402 61.0218 17.6929 60.9973 17.3456C60.988 16.7697 61.0371 16.2067 61.1444 15.6568C60.8076 15.7122 60.6113 15.5805 60.5558 15.2616C60.7008 14.8487 60.8235 14.4294 60.9237 14.004C61.5645 13.4959 61.8097 12.8492 61.6595 12.0638C61.5153 11.9759 61.3804 11.8801 61.2548 11.7764C60.9823 11.9873 60.6757 12.131 60.335 12.2075C60.246 12.2386 60.1724 12.2865 60.1143 12.3512C59.9916 12.3512 59.869 12.3512 59.7463 12.3512C59.7493 12.5942 59.7248 12.8337 59.6727 13.0698C59.1283 13.1631 58.5886 13.2828 58.0539 13.4292C57.7987 13.5707 57.5534 13.7264 57.318 13.8962C56.0873 14.2371 54.8609 14.5844 53.6388 14.9382C53.6161 15.1124 53.6407 15.2801 53.7123 15.4412C53.7836 15.5123 53.8695 15.5602 53.9699 15.585C54.3678 15.4832 54.7725 15.4114 55.184 15.3694C55.5566 14.9574 55.9736 14.5981 56.435 14.2915C56.5212 14.3216 56.5948 14.3694 56.6558 14.4352C56.7538 14.6028 56.7538 14.7706 56.6558 14.9382C56.0802 15.6313 55.5406 16.3499 55.0369 17.094C54.9381 17.2022 54.8155 17.2501 54.669 17.2378C54.6149 18.053 54.5414 18.8674 54.4482 19.681C54.301 19.9205 54.1539 20.1601 54.0067 20.3996C53.4129 20.9314 52.8732 21.5063 52.3878 22.1243C52.2715 22.4263 52.3206 22.6898 52.535 22.9147C52.4689 22.962 52.3953 23.0099 52.3142 23.0585C52.3529 23.1082 52.4019 23.1441 52.4614 23.1663C52.3535 23.2778 52.2799 23.4096 52.2406 23.5615C52.2976 23.6485 52.3589 23.6485 52.4246 23.5615C52.4755 23.6288 52.4632 23.6767 52.3878 23.7052C52.1253 23.6301 51.9046 23.4864 51.7255 23.274C51.6399 22.7968 51.6276 22.3177 51.6888 21.8368C52.025 21.3284 52.4298 20.8733 52.9029 20.4715C52.9681 20.4122 52.9926 20.3403 52.9765 20.2559C52.8217 20.2774 52.6745 20.2535 52.535 20.184C51.773 19.4879 51.0617 18.7453 50.401 17.9564C50.0174 17.2551 49.674 16.5365 49.3708 15.8005C49.2647 14.8115 49.3138 13.8294 49.518 12.8543C49.997 12.0626 50.4385 11.2482 50.8425 10.411C51.3765 9.72998 51.8425 9.01138 52.2406 8.25519C53.1051 7.71408 53.9636 7.17512 54.8161 6.63833C55.2501 6.50689 55.6916 6.38717 56.1407 6.27902C56.4445 6.16052 56.7388 6.02873 57.0237 5.88379ZM52.7557 14.5071C52.8808 14.4956 53.0034 14.5075 53.1237 14.543C52.9304 14.6476 52.8078 14.8033 52.7557 15.0101C52.8848 15.6335 53.0933 16.2323 53.3812 16.8066C53.5192 16.8958 53.6541 16.9917 53.7859 17.094C53.8712 17.3543 53.8834 17.6178 53.8227 17.8845C53.2874 17.0547 52.8091 16.1923 52.3878 15.2975C52.2897 15.1299 52.2897 14.9622 52.3878 14.7945C52.5342 14.7132 52.6568 14.6174 52.7557 14.5071Z" fill="#FFFCF0"/>
<path opacity="0.01" fill-rule="evenodd" clip-rule="evenodd" d="M60.3458 12.208C60.3221 12.319 60.2485 12.3669 60.125 12.3515C60.1831 12.2868 60.2567 12.239 60.3458 12.208Z" fill="#FFFCF0"/>
<path opacity="0.867" fill-rule="evenodd" clip-rule="evenodd" d="M74.4631 18.9637C74.4631 18.8679 74.4138 18.8199 74.316 18.8199C74.2865 18.2117 74.3358 17.6128 74.4631 17.0234C74.6817 16.9954 74.8774 17.0433 75.0518 17.1672C75.3145 18.1549 75.4985 19.161 75.6037 20.1853C75.6405 20.2212 75.6773 20.2572 75.7141 20.2931C76.2792 20.3571 76.8436 20.429 77.4065 20.5087C77.5773 20.6519 77.773 20.7357 77.9952 20.7602C77.8201 19.3141 77.6236 17.8769 77.4065 16.4485C77.4838 16.0167 77.5824 15.5856 77.7009 15.1551C77.9194 15.127 78.1152 15.175 78.2896 15.2988C78.4066 15.7258 78.5044 16.157 78.5839 16.5923C78.6332 17.5025 78.6818 18.4127 78.7311 19.323C78.7819 19.3607 78.8186 19.4086 78.8415 19.4667C78.9025 17.9092 78.8908 16.3522 78.8047 14.7958C78.645 14.3408 78.4485 13.9096 78.216 13.5023C78.3587 13.5222 78.5059 13.4742 78.6575 13.3585C78.7156 13.4119 78.7642 13.4717 78.8047 13.5382C78.7348 13.5898 78.7222 13.6496 78.7679 13.7178C78.9069 13.8893 79.0909 13.9732 79.3198 13.9694C79.2955 13.9933 79.2705 14.0173 79.2462 14.0412C79.3014 14.1481 79.3632 14.1601 79.4301 14.0771C79.5067 14.1641 79.5928 14.236 79.6877 14.2927C79.712 16.2815 79.6877 18.2696 79.6141 20.2572C79.5648 20.5446 79.5162 20.832 79.4669 21.1195C79.333 21.2077 79.2594 21.3274 79.2462 21.4788C80.1292 21.7879 81.0122 22.0873 81.8952 22.377C82.339 22.5596 82.7069 22.835 82.999 23.2034C82.999 23.5148 82.999 23.8263 82.999 24.1376C82.5818 23.7545 82.1403 23.3952 81.6745 23.0597C80.8533 22.7445 80.0196 22.457 79.1726 22.1974C78.5523 21.8706 77.915 21.5832 77.2594 21.3351C76.447 21.1009 75.6376 21.0769 74.8311 21.2632C73.9738 21.1101 73.115 20.9663 72.2556 20.832C72.2065 20.6404 72.1575 20.6404 72.1084 20.832C71.9063 20.8095 71.71 20.8335 71.5197 20.9039C70.4238 21.1729 69.3445 21.4844 68.282 21.8381C68.2204 21.7281 68.1468 21.5844 68.0612 21.4069C68.0276 21.3496 67.9785 21.3257 67.9141 21.3351C67.9677 21.0656 68.1149 20.85 68.3556 20.6883C68.7304 20.6148 68.9512 20.3992 69.0178 20.0416C69.3337 19.6014 69.6894 19.1941 70.0848 18.8199C70.2781 18.3949 70.5111 17.9877 70.7839 17.5983C70.8696 16.9049 70.8819 16.2103 70.8207 15.5144C70.4795 14.812 70.1483 14.1054 69.8273 13.3945C70.0009 12.8249 70.2952 12.741 70.7103 13.143C71.1701 13.9329 71.538 14.7592 71.8141 15.6221C71.6322 16.2261 71.6322 16.825 71.8141 17.4187C71.6498 17.8401 71.4781 18.2592 71.299 18.6762C70.8684 19.1805 70.4514 19.6956 70.048 20.2212C70.0725 20.2572 70.0971 20.2931 70.1216 20.329C70.7965 20.0925 71.4832 19.9008 72.182 19.7541C72.3309 19.8744 72.5025 19.9223 72.6971 19.8979C72.7018 19.4507 72.7509 19.0076 72.8443 18.5684C72.8172 18.3244 72.7681 18.0849 72.6971 17.8498C72.7586 17.6709 72.8076 17.4912 72.8443 17.3109C72.9908 17.3232 73.1134 17.2753 73.2122 17.1672C73.416 17.3181 73.5632 17.5098 73.6537 17.742C73.6265 18.4828 73.6265 19.2254 73.6537 19.9697C73.8921 20.0786 74.1129 20.0546 74.316 19.8979C74.2667 19.8499 74.2181 19.8021 74.1688 19.7541C74.2784 19.4933 74.3763 19.2298 74.4631 18.9637Z" fill="#FFFCF0"/>
<path opacity="0.01" fill-rule="evenodd" clip-rule="evenodd" d="M23.1797 14.7236C23.1797 14.8432 23.1797 14.9627 23.1797 15.0823C23.1306 15.0823 23.0816 15.0823 23.0325 15.0823C23.0014 14.9187 23.0505 14.7991 23.1797 14.7236Z" fill="#FFFCF0"/>
<path opacity="0.01" fill-rule="evenodd" clip-rule="evenodd" d="M23.0343 15.084C23.0834 15.084 23.1324 15.084 23.1815 15.084C23.1815 15.2277 23.1815 15.3714 23.1815 15.5151C23.0485 15.4132 22.9994 15.2695 23.0343 15.084Z" fill="#FFFCF0"/>
<path opacity="0.01" fill-rule="evenodd" clip-rule="evenodd" d="M74.3242 18.8193C74.4221 18.8193 74.4714 18.8672 74.4714 18.9628C74.3735 18.9628 74.3242 18.9149 74.3242 18.8193Z" fill="#FFFCF0"/>
<path opacity="0.01" fill-rule="evenodd" clip-rule="evenodd" d="M14.2761 20.1132C14.227 20.1132 14.178 20.1132 14.1289 20.1132C14.178 19.9219 14.227 19.9219 14.2761 20.1132Z" fill="#FFFCF0"/>
<path opacity="0.839" fill-rule="evenodd" clip-rule="evenodd" d="M67.9158 21.3346C67.9803 21.3252 68.0294 21.3491 68.063 21.4064C68.1486 21.5839 68.2222 21.7276 68.2838 21.8376C68.2675 21.9263 68.2184 21.9982 68.1366 22.0532C67.7916 22.1735 67.4973 22.3651 67.2536 22.6281C66.8552 22.9022 66.4137 23.022 65.929 22.9874C65.8679 23.3111 65.6716 23.5267 65.3403 23.6341C64.855 24.2521 64.3153 24.827 63.7215 25.3588C63.2051 25.6116 62.6655 25.7793 62.1026 25.8618C62.1026 25.9336 62.1026 26.0055 62.1026 26.0774C61.4155 26.2561 60.7533 26.4837 60.1158 26.76C58.8417 27.0343 57.6152 27.4535 56.4365 28.0176C56.2463 28.088 56.05 28.112 55.8479 28.0895C55.8813 28.2236 55.9304 28.3554 55.995 28.4847C55.9128 28.6327 55.8637 28.7884 55.8479 28.9518C55.5387 28.9746 55.2443 28.9506 54.9648 28.8799C54.9841 28.7737 54.9596 28.6779 54.8913 28.5925C54.7762 28.6418 54.6535 28.6298 54.5233 28.5566C54.5724 28.5086 54.6214 28.4608 54.6705 28.4128C54.6617 28.3306 54.6372 28.2467 54.5969 28.1613C54.7825 28.1881 54.9297 28.1282 55.0384 27.9817C54.9259 27.8161 54.84 27.6365 54.7809 27.4427C54.7737 27.0029 54.7124 26.5717 54.5969 26.1492C54.6721 25.7813 54.5863 25.4459 54.3394 25.1432C54.3264 24.9002 54.2896 24.6606 54.229 24.4246C54.0805 24.2916 53.9456 24.1479 53.8243 23.9934C53.6741 24.0834 53.5023 24.1313 53.3092 24.1371C53.1497 24.1132 52.9903 24.0892 52.8309 24.0653C52.6733 23.9428 52.5262 23.8231 52.3894 23.706C52.4648 23.6774 52.4771 23.6296 52.4262 23.5623C52.3604 23.6493 52.2991 23.6493 52.2422 23.5623C52.2815 23.4103 52.3551 23.2785 52.4629 23.167C52.4035 23.1449 52.3544 23.109 52.3158 23.0592C52.3969 23.0106 52.4704 22.9628 52.5365 22.9155C52.6903 23.0513 52.862 23.1711 53.0516 23.2748C53.6484 23.3149 54.2371 23.3868 54.8177 23.4904C54.9019 23.7474 54.9755 24.0109 55.0384 24.2809C55.173 24.3999 55.2712 24.5436 55.3328 24.712C55.4513 25.5269 55.574 26.3294 55.7007 27.1193C56.0467 27.1788 56.3901 27.1669 56.7309 27.0834C58.7044 26.1459 60.7647 25.4272 62.912 24.9276C63.0416 24.8258 63.1397 24.7061 63.2064 24.5683C63.2769 24.3797 63.3627 24.3797 63.4639 24.5683C63.6193 24.3892 63.6561 24.1976 63.5743 23.9934C63.7059 24.0139 63.8285 23.99 63.9422 23.9216C64.0645 23.7131 64.1749 23.4975 64.2734 23.2748C64.3979 23.2257 64.5083 23.1538 64.6045 23.0592C64.7656 22.6983 65.0355 22.4468 65.4139 22.3047C65.1826 22.1888 65.0968 22.0091 65.1564 21.7657C65.569 21.2547 66.0228 20.7757 66.5177 20.3285C66.8611 19.8016 67.2045 19.2745 67.5479 18.7476C67.6801 18.4734 67.7781 18.186 67.8422 17.8853C67.9951 17.6997 68.179 17.556 68.3941 17.4541C68.8248 17.6367 68.9598 17.9481 68.7988 18.3883C68.5654 18.7002 68.3692 19.0356 68.2102 19.3943C67.6536 19.8595 67.2857 20.4344 67.1064 21.119C67.1143 21.1867 67.1388 21.2465 67.18 21.2986C67.4241 21.3344 67.6693 21.3464 67.9158 21.3346ZM66.0762 21.9813C66.1498 21.9813 66.2234 21.9813 66.297 21.9813C66.297 22.0532 66.297 22.125 66.297 22.1969C66.1167 22.2369 65.9451 22.2369 65.7819 22.1969C65.9167 22.1569 66.0148 22.085 66.0762 21.9813Z" fill="#FFFCF0"/>
<path opacity="0.01" fill-rule="evenodd" clip-rule="evenodd" d="M25.3906 20.543C25.4887 20.543 25.5378 20.5908 25.5378 20.6864C25.4397 20.6864 25.3906 20.6386 25.3906 20.543Z" fill="#FFFCF0"/>
<path opacity="0.01" fill-rule="evenodd" clip-rule="evenodd" d="M72.2565 20.831C72.2075 20.831 72.1585 20.831 72.1094 20.831C72.1585 20.6397 72.2075 20.6397 72.2565 20.831Z" fill="#FFFCF0"/>
<path opacity="0.01" fill-rule="evenodd" clip-rule="evenodd" d="M8.81905 21.1201C8.81905 21.2157 8.76996 21.2636 8.67188 21.2636C8.67188 21.168 8.72096 21.1201 8.81905 21.1201Z" fill="#FFFCF0"/>
<path opacity="0.01" fill-rule="evenodd" clip-rule="evenodd" d="M7.94405 21.4053C7.94405 21.5009 7.89496 21.5487 7.79688 21.5487C7.79688 21.4531 7.84596 21.4053 7.94405 21.4053Z" fill="#FFFCF0"/>
<path opacity="0.01" fill-rule="evenodd" clip-rule="evenodd" d="M24.8047 35.7061C24.9028 35.7061 24.9519 35.7539 24.9519 35.8495C24.8538 35.8495 24.8047 35.8017 24.8047 35.7061Z" fill="#FFFCF0"/>
<path opacity="0.85" fill-rule="evenodd" clip-rule="evenodd" d="M54.6046 28.1602C54.6449 28.2455 54.6694 28.3294 54.6782 28.4117C54.6291 28.4596 54.5801 28.5075 54.531 28.5554C54.6612 28.6286 54.7838 28.6406 54.8989 28.5913C54.9673 28.6768 54.9918 28.7726 54.9725 28.8788C54.8288 28.771 54.7061 28.795 54.6046 28.9506C54.4836 29.2795 54.3855 29.6149 54.3103 29.9567C54.1316 30.1793 53.9108 30.3469 53.648 30.4597C53.5366 30.677 53.3895 30.8687 53.2065 31.0346C53.119 31.1013 53.0209 31.1253 52.9121 31.1064C52.9314 31.2127 52.9069 31.3084 52.8385 31.3939C52.6914 31.4897 52.5442 31.5855 52.397 31.6813C52.2159 32.1459 51.9216 32.5291 51.514 32.8311C51.2571 33.381 50.9627 33.9081 50.631 34.412C50.0055 35.298 49.4168 36.2083 48.8649 37.1427C48.5076 37.5879 48.0661 37.9233 47.5404 38.1488C47.3782 38.7116 47.2801 39.2865 47.2461 39.8734C46.8346 40.7494 46.295 41.5399 45.6272 42.2448C45.2315 42.4462 44.839 42.6618 44.4498 42.8916C44.3252 43.467 44.1903 44.0419 44.0451 44.6162C43.9347 44.724 43.8244 44.8318 43.714 44.9396C42.9941 45.3376 42.2583 45.7089 41.5064 46.0534C41.2612 46.1492 41.0158 46.1492 40.7706 46.0534C40.5804 45.8657 40.3597 45.722 40.1083 45.6223C39.9366 45.4546 39.7649 45.2869 39.5932 45.1193C39.3082 44.3088 39.1365 43.4704 39.0781 42.6041C39.2785 42.4327 39.4993 42.289 39.7404 42.173C39.9809 42.9831 40.2017 43.7974 40.4027 44.6162C40.7098 44.7451 41.0286 44.841 41.3593 44.9037C41.3015 44.4267 41.2524 43.9477 41.2121 43.4665C41.2852 42.3107 41.3833 41.161 41.5064 40.0172C41.4574 39.9214 41.4083 39.8255 41.3593 39.7297C41.5593 39.1278 41.4858 38.5529 41.1385 38.0051C41.0997 36.9599 41.0261 35.9179 40.9178 34.8791C40.9413 34.6808 40.9903 34.4891 41.0649 34.3042C40.983 33.9255 40.7622 33.674 40.4027 33.5497C40.4219 33.4435 40.3974 33.3477 40.3291 33.2623C40.0213 33.0202 39.8496 32.7089 39.814 32.3281C39.9412 32.3724 40.0516 32.4443 40.1451 32.5437C40.0865 32.3618 40.062 32.1703 40.0715 31.9688C40.1316 31.8737 40.2174 31.8258 40.3291 31.825C40.8115 32.406 41.2775 33.0049 41.7272 33.6216C41.8298 34.6902 41.8053 35.7562 41.6536 36.8194C41.6781 36.999 41.7027 37.1787 41.7272 37.3583C41.8808 37.5196 41.9789 37.7113 42.0215 37.9332C42.0951 40.1604 42.1196 42.388 42.0951 44.6162C42.3703 44.6348 42.6401 44.6109 42.9046 44.5444C42.9647 44.2669 43.0628 44.0034 43.1989 43.7539C43.248 43.4665 43.297 43.179 43.3461 42.8916C43.5112 42.6175 43.6339 42.3301 43.714 42.0292C44.0543 41.9115 44.3977 41.7917 44.7442 41.6699C45.0514 41.5561 45.3212 41.3884 45.5536 41.1669C45.8661 40.7723 46.1604 40.3651 46.4366 39.9453C46.3432 39.659 46.3432 39.3716 46.4366 39.083C46.5905 38.6004 46.7377 38.1213 46.8782 37.6458C47.2415 37.4326 47.6094 37.241 47.9819 37.0709C47.971 36.9953 47.9832 36.9234 48.0187 36.8553C48.5511 36.1564 49.0048 35.4138 49.38 34.6276C49.7732 33.9565 50.1656 33.2858 50.5574 32.6155C51.5187 31.7248 52.4262 30.7906 53.2801 29.8129C53.4141 29.0344 53.8556 28.4835 54.6046 28.1602Z" fill="#FFFCF0"/>
</svg>
